M48
; DRILL file {KiCad (5.1.4)-1} date 05/13/20 21:25:18
; FORMAT={-:-/ absolute / inch / decimal}
; #@! TF.CreationDate,2020-05-13T21:25:18+02:00
; #@! TF.GenerationSoftware,Kicad,Pcbnew,(5.1.4)-1
; #@! TF.FileFunction,Plated,1,2,PTH
FMAT,2
INCH
T1C0.0315
T2C0.0354
T3C0.0394
%
G90
G05
T1
X4.03Y-2.99
X4.03Y-3.29
X5.53Y-2.99
X5.53Y-3.29
X3.77Y-2.99
X3.77Y-3.29
X6.05Y-2.99
X6.05Y-3.29
X4.62Y-2.75
X4.8169Y-2.75
X4.31Y-2.2
X4.31Y-2.5
X4.41Y-2.2
X4.41Y-2.5
X4.51Y-2.2
X4.51Y-2.5
X4.61Y-2.2
X4.61Y-2.5
X4.71Y-2.2
X4.71Y-2.5
X4.81Y-2.2
X4.81Y-2.5
X4.91Y-2.2
X4.91Y-2.5
X5.01Y-2.2
X5.01Y-2.5
X5.11Y-2.2
X5.11Y-2.5
X5.21Y-2.2
X5.21Y-2.5
X5.39Y-2.2
X5.39Y-2.5
X5.49Y-2.2
X5.49Y-2.5
X5.59Y-2.2
X5.59Y-2.5
X5.69Y-2.2
X5.69Y-2.5
X5.79Y-2.2
X5.79Y-2.5
X5.89Y-2.2
X5.89Y-2.5
X5.99Y-2.2
X5.99Y-2.5
X6.09Y-2.2
X6.09Y-2.5
X6.19Y-2.2
X6.19Y-2.5
X6.29Y-2.2
X6.29Y-2.5
X6.57Y-2.99
X6.57Y-3.29
X3.51Y-2.99
X3.51Y-3.29
X4.29Y-2.99
X4.29Y-3.29
X5.07Y-2.99
X5.07Y-3.29
X3.25Y-2.99
X3.25Y-3.29
X5.79Y-2.99
X5.79Y-3.29
X4.28Y-2.75
X4.4769Y-2.75
X6.45Y-2.2
X6.45Y-2.5
X6.55Y-2.2
X6.55Y-2.5
X6.65Y-2.2
X6.65Y-2.5
X6.75Y-2.2
X6.75Y-2.5
X6.85Y-2.2
X6.85Y-2.5
X6.95Y-2.2
X6.95Y-2.5
X7.05Y-2.2
X7.05Y-2.5
X7.15Y-2.2
X7.15Y-2.5
X7.25Y-2.2
X7.25Y-2.5
X7.35Y-2.2
X7.35Y-2.5
X3.25Y-2.2
X3.25Y-2.5
X3.35Y-2.2
X3.35Y-2.5
X3.45Y-2.2
X3.45Y-2.5
X3.55Y-2.2
X3.55Y-2.5
X3.65Y-2.2
X3.65Y-2.5
X3.75Y-2.2
X3.75Y-2.5
X3.85Y-2.2
X3.85Y-2.5
X3.95Y-2.2
X3.95Y-2.5
X4.05Y-2.2
X4.05Y-2.5
X4.15Y-2.2
X4.15Y-2.5
X7.09Y-2.99
X7.09Y-3.29
X4.55Y-2.99
X4.55Y-3.29
X6.31Y-2.99
X6.31Y-3.29
X4.81Y-2.99
X4.81Y-3.29
X7.35Y-2.99
X7.35Y-3.29
X6.83Y-2.99
X6.83Y-3.29
T2
X6.05Y-3.46
X6.05Y-3.56
X7.09Y-3.46
X7.09Y-3.56
X5.07Y-3.46
X5.07Y-3.56
X5.53Y-3.46
X5.53Y-3.56
X3.51Y-3.46
X3.51Y-3.56
X6.57Y-3.46
X6.57Y-3.56
X4.29Y-3.46
X4.29Y-3.56
X3.25Y-3.46
X3.25Y-3.56
X4.55Y-3.46
X4.55Y-3.56
X5.79Y-3.46
X5.79Y-3.56
X4.03Y-3.46
X4.03Y-3.56
X6.83Y-3.46
X6.83Y-3.56
X6.31Y-3.46
X6.31Y-3.56
X7.35Y-3.46
X7.35Y-3.56
X4.81Y-3.46
X4.81Y-3.56
X3.77Y-3.46
X3.77Y-3.56
T3
X5.11Y-2.7
X5.11Y-2.8
X5.21Y-2.7
X5.21Y-2.8
X5.59Y-2.7
X5.59Y-2.8
X6.55Y-2.72
X6.55Y-2.82
X6.65Y-2.72
X6.65Y-2.82
X6.75Y-2.72
X6.75Y-2.82
X6.85Y-2.72
X6.85Y-2.82
X6.95Y-2.72
X6.95Y-2.82
X7.05Y-2.72
X7.05Y-2.82
X7.15Y-2.72
X7.15Y-2.82
X7.25Y-2.72
X7.25Y-2.82
X3.35Y-2.7
X3.35Y-2.8
X3.45Y-2.7
X3.45Y-2.8
X3.55Y-2.7
X3.55Y-2.8
X3.65Y-2.7
X3.65Y-2.8
X3.75Y-2.7
X3.75Y-2.8
X3.85Y-2.7
X3.85Y-2.8
X3.95Y-2.7
X3.95Y-2.8
X4.05Y-2.7
X4.05Y-2.8
T0
M30
