G04 #@! TF.GenerationSoftware,KiCad,Pcbnew,(5.1.4)-1*
G04 #@! TF.CreationDate,2020-05-13T21:25:10+02:00*
G04 #@! TF.ProjectId,register_pcb,72656769-7374-4657-925f-7063622e6b69,rev?*
G04 #@! TF.SameCoordinates,Original*
G04 #@! TF.FileFunction,Soldermask,Bot*
G04 #@! TF.FilePolarity,Negative*
%FSLAX46Y46*%
G04 Gerber Fmt 4.6, Leading zero omitted, Abs format (unit mm)*
G04 Created by KiCad (PCBNEW (5.1.4)-1) date 2020-05-13 21:25:10*
%MOMM*%
%LPD*%
G04 APERTURE LIST*
%ADD10C,0.100000*%
G04 APERTURE END LIST*
D10*
G36*
X186967395Y-89509546D02*
G01*
X187140466Y-89581234D01*
X187140467Y-89581235D01*
X187296227Y-89685310D01*
X187428690Y-89817773D01*
X187428691Y-89817775D01*
X187532766Y-89973534D01*
X187604454Y-90146605D01*
X187641000Y-90330333D01*
X187641000Y-90517667D01*
X187604454Y-90701395D01*
X187532766Y-90874466D01*
X187532765Y-90874467D01*
X187428690Y-91030227D01*
X187296227Y-91162690D01*
X187217818Y-91215081D01*
X187140466Y-91266766D01*
X186967395Y-91338454D01*
X186783667Y-91375000D01*
X186596333Y-91375000D01*
X186412605Y-91338454D01*
X186239534Y-91266766D01*
X186162182Y-91215081D01*
X186083773Y-91162690D01*
X185951310Y-91030227D01*
X185847235Y-90874467D01*
X185847234Y-90874466D01*
X185775546Y-90701395D01*
X185739000Y-90517667D01*
X185739000Y-90330333D01*
X185775546Y-90146605D01*
X185847234Y-89973534D01*
X185951309Y-89817775D01*
X185951310Y-89817773D01*
X186083773Y-89685310D01*
X186239533Y-89581235D01*
X186239534Y-89581234D01*
X186412605Y-89509546D01*
X186596333Y-89473000D01*
X186783667Y-89473000D01*
X186967395Y-89509546D01*
X186967395Y-89509546D01*
G37*
G36*
X129055395Y-89509546D02*
G01*
X129228466Y-89581234D01*
X129228467Y-89581235D01*
X129384227Y-89685310D01*
X129516690Y-89817773D01*
X129516691Y-89817775D01*
X129620766Y-89973534D01*
X129692454Y-90146605D01*
X129729000Y-90330333D01*
X129729000Y-90517667D01*
X129692454Y-90701395D01*
X129620766Y-90874466D01*
X129620765Y-90874467D01*
X129516690Y-91030227D01*
X129384227Y-91162690D01*
X129305818Y-91215081D01*
X129228466Y-91266766D01*
X129055395Y-91338454D01*
X128871667Y-91375000D01*
X128684333Y-91375000D01*
X128500605Y-91338454D01*
X128327534Y-91266766D01*
X128250182Y-91215081D01*
X128171773Y-91162690D01*
X128039310Y-91030227D01*
X127935235Y-90874467D01*
X127935234Y-90874466D01*
X127863546Y-90701395D01*
X127827000Y-90517667D01*
X127827000Y-90330333D01*
X127863546Y-90146605D01*
X127935234Y-89973534D01*
X128039309Y-89817775D01*
X128039310Y-89817773D01*
X128171773Y-89685310D01*
X128327533Y-89581235D01*
X128327534Y-89581234D01*
X128500605Y-89509546D01*
X128684333Y-89473000D01*
X128871667Y-89473000D01*
X129055395Y-89509546D01*
X129055395Y-89509546D01*
G37*
G36*
X82827395Y-89509546D02*
G01*
X83000466Y-89581234D01*
X83000467Y-89581235D01*
X83156227Y-89685310D01*
X83288690Y-89817773D01*
X83288691Y-89817775D01*
X83392766Y-89973534D01*
X83464454Y-90146605D01*
X83501000Y-90330333D01*
X83501000Y-90517667D01*
X83464454Y-90701395D01*
X83392766Y-90874466D01*
X83392765Y-90874467D01*
X83288690Y-91030227D01*
X83156227Y-91162690D01*
X83077818Y-91215081D01*
X83000466Y-91266766D01*
X82827395Y-91338454D01*
X82643667Y-91375000D01*
X82456333Y-91375000D01*
X82272605Y-91338454D01*
X82099534Y-91266766D01*
X82022182Y-91215081D01*
X81943773Y-91162690D01*
X81811310Y-91030227D01*
X81707235Y-90874467D01*
X81707234Y-90874466D01*
X81635546Y-90701395D01*
X81599000Y-90517667D01*
X81599000Y-90330333D01*
X81635546Y-90146605D01*
X81707234Y-89973534D01*
X81811309Y-89817775D01*
X81811310Y-89817773D01*
X81943773Y-89685310D01*
X82099533Y-89581235D01*
X82099534Y-89581234D01*
X82272605Y-89509546D01*
X82456333Y-89473000D01*
X82643667Y-89473000D01*
X82827395Y-89509546D01*
X82827395Y-89509546D01*
G37*
G36*
X89431395Y-89509546D02*
G01*
X89604466Y-89581234D01*
X89604467Y-89581235D01*
X89760227Y-89685310D01*
X89892690Y-89817773D01*
X89892691Y-89817775D01*
X89996766Y-89973534D01*
X90068454Y-90146605D01*
X90105000Y-90330333D01*
X90105000Y-90517667D01*
X90068454Y-90701395D01*
X89996766Y-90874466D01*
X89996765Y-90874467D01*
X89892690Y-91030227D01*
X89760227Y-91162690D01*
X89681818Y-91215081D01*
X89604466Y-91266766D01*
X89431395Y-91338454D01*
X89247667Y-91375000D01*
X89060333Y-91375000D01*
X88876605Y-91338454D01*
X88703534Y-91266766D01*
X88626182Y-91215081D01*
X88547773Y-91162690D01*
X88415310Y-91030227D01*
X88311235Y-90874467D01*
X88311234Y-90874466D01*
X88239546Y-90701395D01*
X88203000Y-90517667D01*
X88203000Y-90330333D01*
X88239546Y-90146605D01*
X88311234Y-89973534D01*
X88415309Y-89817775D01*
X88415310Y-89817773D01*
X88547773Y-89685310D01*
X88703533Y-89581235D01*
X88703534Y-89581234D01*
X88876605Y-89509546D01*
X89060333Y-89473000D01*
X89247667Y-89473000D01*
X89431395Y-89509546D01*
X89431395Y-89509546D01*
G37*
G36*
X96035395Y-89509546D02*
G01*
X96208466Y-89581234D01*
X96208467Y-89581235D01*
X96364227Y-89685310D01*
X96496690Y-89817773D01*
X96496691Y-89817775D01*
X96600766Y-89973534D01*
X96672454Y-90146605D01*
X96709000Y-90330333D01*
X96709000Y-90517667D01*
X96672454Y-90701395D01*
X96600766Y-90874466D01*
X96600765Y-90874467D01*
X96496690Y-91030227D01*
X96364227Y-91162690D01*
X96285818Y-91215081D01*
X96208466Y-91266766D01*
X96035395Y-91338454D01*
X95851667Y-91375000D01*
X95664333Y-91375000D01*
X95480605Y-91338454D01*
X95307534Y-91266766D01*
X95230182Y-91215081D01*
X95151773Y-91162690D01*
X95019310Y-91030227D01*
X94915235Y-90874467D01*
X94915234Y-90874466D01*
X94843546Y-90701395D01*
X94807000Y-90517667D01*
X94807000Y-90330333D01*
X94843546Y-90146605D01*
X94915234Y-89973534D01*
X95019309Y-89817775D01*
X95019310Y-89817773D01*
X95151773Y-89685310D01*
X95307533Y-89581235D01*
X95307534Y-89581234D01*
X95480605Y-89509546D01*
X95664333Y-89473000D01*
X95851667Y-89473000D01*
X96035395Y-89509546D01*
X96035395Y-89509546D01*
G37*
G36*
X102639395Y-89509546D02*
G01*
X102812466Y-89581234D01*
X102812467Y-89581235D01*
X102968227Y-89685310D01*
X103100690Y-89817773D01*
X103100691Y-89817775D01*
X103204766Y-89973534D01*
X103276454Y-90146605D01*
X103313000Y-90330333D01*
X103313000Y-90517667D01*
X103276454Y-90701395D01*
X103204766Y-90874466D01*
X103204765Y-90874467D01*
X103100690Y-91030227D01*
X102968227Y-91162690D01*
X102889818Y-91215081D01*
X102812466Y-91266766D01*
X102639395Y-91338454D01*
X102455667Y-91375000D01*
X102268333Y-91375000D01*
X102084605Y-91338454D01*
X101911534Y-91266766D01*
X101834182Y-91215081D01*
X101755773Y-91162690D01*
X101623310Y-91030227D01*
X101519235Y-90874467D01*
X101519234Y-90874466D01*
X101447546Y-90701395D01*
X101411000Y-90517667D01*
X101411000Y-90330333D01*
X101447546Y-90146605D01*
X101519234Y-89973534D01*
X101623309Y-89817775D01*
X101623310Y-89817773D01*
X101755773Y-89685310D01*
X101911533Y-89581235D01*
X101911534Y-89581234D01*
X102084605Y-89509546D01*
X102268333Y-89473000D01*
X102455667Y-89473000D01*
X102639395Y-89509546D01*
X102639395Y-89509546D01*
G37*
G36*
X109243395Y-89509546D02*
G01*
X109416466Y-89581234D01*
X109416467Y-89581235D01*
X109572227Y-89685310D01*
X109704690Y-89817773D01*
X109704691Y-89817775D01*
X109808766Y-89973534D01*
X109880454Y-90146605D01*
X109917000Y-90330333D01*
X109917000Y-90517667D01*
X109880454Y-90701395D01*
X109808766Y-90874466D01*
X109808765Y-90874467D01*
X109704690Y-91030227D01*
X109572227Y-91162690D01*
X109493818Y-91215081D01*
X109416466Y-91266766D01*
X109243395Y-91338454D01*
X109059667Y-91375000D01*
X108872333Y-91375000D01*
X108688605Y-91338454D01*
X108515534Y-91266766D01*
X108438182Y-91215081D01*
X108359773Y-91162690D01*
X108227310Y-91030227D01*
X108123235Y-90874467D01*
X108123234Y-90874466D01*
X108051546Y-90701395D01*
X108015000Y-90517667D01*
X108015000Y-90330333D01*
X108051546Y-90146605D01*
X108123234Y-89973534D01*
X108227309Y-89817775D01*
X108227310Y-89817773D01*
X108359773Y-89685310D01*
X108515533Y-89581235D01*
X108515534Y-89581234D01*
X108688605Y-89509546D01*
X108872333Y-89473000D01*
X109059667Y-89473000D01*
X109243395Y-89509546D01*
X109243395Y-89509546D01*
G37*
G36*
X115847395Y-89509546D02*
G01*
X116020466Y-89581234D01*
X116020467Y-89581235D01*
X116176227Y-89685310D01*
X116308690Y-89817773D01*
X116308691Y-89817775D01*
X116412766Y-89973534D01*
X116484454Y-90146605D01*
X116521000Y-90330333D01*
X116521000Y-90517667D01*
X116484454Y-90701395D01*
X116412766Y-90874466D01*
X116412765Y-90874467D01*
X116308690Y-91030227D01*
X116176227Y-91162690D01*
X116097818Y-91215081D01*
X116020466Y-91266766D01*
X115847395Y-91338454D01*
X115663667Y-91375000D01*
X115476333Y-91375000D01*
X115292605Y-91338454D01*
X115119534Y-91266766D01*
X115042182Y-91215081D01*
X114963773Y-91162690D01*
X114831310Y-91030227D01*
X114727235Y-90874467D01*
X114727234Y-90874466D01*
X114655546Y-90701395D01*
X114619000Y-90517667D01*
X114619000Y-90330333D01*
X114655546Y-90146605D01*
X114727234Y-89973534D01*
X114831309Y-89817775D01*
X114831310Y-89817773D01*
X114963773Y-89685310D01*
X115119533Y-89581235D01*
X115119534Y-89581234D01*
X115292605Y-89509546D01*
X115476333Y-89473000D01*
X115663667Y-89473000D01*
X115847395Y-89509546D01*
X115847395Y-89509546D01*
G37*
G36*
X122451395Y-89509546D02*
G01*
X122624466Y-89581234D01*
X122624467Y-89581235D01*
X122780227Y-89685310D01*
X122912690Y-89817773D01*
X122912691Y-89817775D01*
X123016766Y-89973534D01*
X123088454Y-90146605D01*
X123125000Y-90330333D01*
X123125000Y-90517667D01*
X123088454Y-90701395D01*
X123016766Y-90874466D01*
X123016765Y-90874467D01*
X122912690Y-91030227D01*
X122780227Y-91162690D01*
X122701818Y-91215081D01*
X122624466Y-91266766D01*
X122451395Y-91338454D01*
X122267667Y-91375000D01*
X122080333Y-91375000D01*
X121896605Y-91338454D01*
X121723534Y-91266766D01*
X121646182Y-91215081D01*
X121567773Y-91162690D01*
X121435310Y-91030227D01*
X121331235Y-90874467D01*
X121331234Y-90874466D01*
X121259546Y-90701395D01*
X121223000Y-90517667D01*
X121223000Y-90330333D01*
X121259546Y-90146605D01*
X121331234Y-89973534D01*
X121435309Y-89817775D01*
X121435310Y-89817773D01*
X121567773Y-89685310D01*
X121723533Y-89581235D01*
X121723534Y-89581234D01*
X121896605Y-89509546D01*
X122080333Y-89473000D01*
X122267667Y-89473000D01*
X122451395Y-89509546D01*
X122451395Y-89509546D01*
G37*
G36*
X140739395Y-89509546D02*
G01*
X140912466Y-89581234D01*
X140912467Y-89581235D01*
X141068227Y-89685310D01*
X141200690Y-89817773D01*
X141200691Y-89817775D01*
X141304766Y-89973534D01*
X141376454Y-90146605D01*
X141413000Y-90330333D01*
X141413000Y-90517667D01*
X141376454Y-90701395D01*
X141304766Y-90874466D01*
X141304765Y-90874467D01*
X141200690Y-91030227D01*
X141068227Y-91162690D01*
X140989818Y-91215081D01*
X140912466Y-91266766D01*
X140739395Y-91338454D01*
X140555667Y-91375000D01*
X140368333Y-91375000D01*
X140184605Y-91338454D01*
X140011534Y-91266766D01*
X139934182Y-91215081D01*
X139855773Y-91162690D01*
X139723310Y-91030227D01*
X139619235Y-90874467D01*
X139619234Y-90874466D01*
X139547546Y-90701395D01*
X139511000Y-90517667D01*
X139511000Y-90330333D01*
X139547546Y-90146605D01*
X139619234Y-89973534D01*
X139723309Y-89817775D01*
X139723310Y-89817773D01*
X139855773Y-89685310D01*
X140011533Y-89581235D01*
X140011534Y-89581234D01*
X140184605Y-89509546D01*
X140368333Y-89473000D01*
X140555667Y-89473000D01*
X140739395Y-89509546D01*
X140739395Y-89509546D01*
G37*
G36*
X147343395Y-89509546D02*
G01*
X147516466Y-89581234D01*
X147516467Y-89581235D01*
X147672227Y-89685310D01*
X147804690Y-89817773D01*
X147804691Y-89817775D01*
X147908766Y-89973534D01*
X147980454Y-90146605D01*
X148017000Y-90330333D01*
X148017000Y-90517667D01*
X147980454Y-90701395D01*
X147908766Y-90874466D01*
X147908765Y-90874467D01*
X147804690Y-91030227D01*
X147672227Y-91162690D01*
X147593818Y-91215081D01*
X147516466Y-91266766D01*
X147343395Y-91338454D01*
X147159667Y-91375000D01*
X146972333Y-91375000D01*
X146788605Y-91338454D01*
X146615534Y-91266766D01*
X146538182Y-91215081D01*
X146459773Y-91162690D01*
X146327310Y-91030227D01*
X146223235Y-90874467D01*
X146223234Y-90874466D01*
X146151546Y-90701395D01*
X146115000Y-90517667D01*
X146115000Y-90330333D01*
X146151546Y-90146605D01*
X146223234Y-89973534D01*
X146327309Y-89817775D01*
X146327310Y-89817773D01*
X146459773Y-89685310D01*
X146615533Y-89581235D01*
X146615534Y-89581234D01*
X146788605Y-89509546D01*
X146972333Y-89473000D01*
X147159667Y-89473000D01*
X147343395Y-89509546D01*
X147343395Y-89509546D01*
G37*
G36*
X153947395Y-89509546D02*
G01*
X154120466Y-89581234D01*
X154120467Y-89581235D01*
X154276227Y-89685310D01*
X154408690Y-89817773D01*
X154408691Y-89817775D01*
X154512766Y-89973534D01*
X154584454Y-90146605D01*
X154621000Y-90330333D01*
X154621000Y-90517667D01*
X154584454Y-90701395D01*
X154512766Y-90874466D01*
X154512765Y-90874467D01*
X154408690Y-91030227D01*
X154276227Y-91162690D01*
X154197818Y-91215081D01*
X154120466Y-91266766D01*
X153947395Y-91338454D01*
X153763667Y-91375000D01*
X153576333Y-91375000D01*
X153392605Y-91338454D01*
X153219534Y-91266766D01*
X153142182Y-91215081D01*
X153063773Y-91162690D01*
X152931310Y-91030227D01*
X152827235Y-90874467D01*
X152827234Y-90874466D01*
X152755546Y-90701395D01*
X152719000Y-90517667D01*
X152719000Y-90330333D01*
X152755546Y-90146605D01*
X152827234Y-89973534D01*
X152931309Y-89817775D01*
X152931310Y-89817773D01*
X153063773Y-89685310D01*
X153219533Y-89581235D01*
X153219534Y-89581234D01*
X153392605Y-89509546D01*
X153576333Y-89473000D01*
X153763667Y-89473000D01*
X153947395Y-89509546D01*
X153947395Y-89509546D01*
G37*
G36*
X160551395Y-89509546D02*
G01*
X160724466Y-89581234D01*
X160724467Y-89581235D01*
X160880227Y-89685310D01*
X161012690Y-89817773D01*
X161012691Y-89817775D01*
X161116766Y-89973534D01*
X161188454Y-90146605D01*
X161225000Y-90330333D01*
X161225000Y-90517667D01*
X161188454Y-90701395D01*
X161116766Y-90874466D01*
X161116765Y-90874467D01*
X161012690Y-91030227D01*
X160880227Y-91162690D01*
X160801818Y-91215081D01*
X160724466Y-91266766D01*
X160551395Y-91338454D01*
X160367667Y-91375000D01*
X160180333Y-91375000D01*
X159996605Y-91338454D01*
X159823534Y-91266766D01*
X159746182Y-91215081D01*
X159667773Y-91162690D01*
X159535310Y-91030227D01*
X159431235Y-90874467D01*
X159431234Y-90874466D01*
X159359546Y-90701395D01*
X159323000Y-90517667D01*
X159323000Y-90330333D01*
X159359546Y-90146605D01*
X159431234Y-89973534D01*
X159535309Y-89817775D01*
X159535310Y-89817773D01*
X159667773Y-89685310D01*
X159823533Y-89581235D01*
X159823534Y-89581234D01*
X159996605Y-89509546D01*
X160180333Y-89473000D01*
X160367667Y-89473000D01*
X160551395Y-89509546D01*
X160551395Y-89509546D01*
G37*
G36*
X167155395Y-89509546D02*
G01*
X167328466Y-89581234D01*
X167328467Y-89581235D01*
X167484227Y-89685310D01*
X167616690Y-89817773D01*
X167616691Y-89817775D01*
X167720766Y-89973534D01*
X167792454Y-90146605D01*
X167829000Y-90330333D01*
X167829000Y-90517667D01*
X167792454Y-90701395D01*
X167720766Y-90874466D01*
X167720765Y-90874467D01*
X167616690Y-91030227D01*
X167484227Y-91162690D01*
X167405818Y-91215081D01*
X167328466Y-91266766D01*
X167155395Y-91338454D01*
X166971667Y-91375000D01*
X166784333Y-91375000D01*
X166600605Y-91338454D01*
X166427534Y-91266766D01*
X166350182Y-91215081D01*
X166271773Y-91162690D01*
X166139310Y-91030227D01*
X166035235Y-90874467D01*
X166035234Y-90874466D01*
X165963546Y-90701395D01*
X165927000Y-90517667D01*
X165927000Y-90330333D01*
X165963546Y-90146605D01*
X166035234Y-89973534D01*
X166139309Y-89817775D01*
X166139310Y-89817773D01*
X166271773Y-89685310D01*
X166427533Y-89581235D01*
X166427534Y-89581234D01*
X166600605Y-89509546D01*
X166784333Y-89473000D01*
X166971667Y-89473000D01*
X167155395Y-89509546D01*
X167155395Y-89509546D01*
G37*
G36*
X173759395Y-89509546D02*
G01*
X173932466Y-89581234D01*
X173932467Y-89581235D01*
X174088227Y-89685310D01*
X174220690Y-89817773D01*
X174220691Y-89817775D01*
X174324766Y-89973534D01*
X174396454Y-90146605D01*
X174433000Y-90330333D01*
X174433000Y-90517667D01*
X174396454Y-90701395D01*
X174324766Y-90874466D01*
X174324765Y-90874467D01*
X174220690Y-91030227D01*
X174088227Y-91162690D01*
X174009818Y-91215081D01*
X173932466Y-91266766D01*
X173759395Y-91338454D01*
X173575667Y-91375000D01*
X173388333Y-91375000D01*
X173204605Y-91338454D01*
X173031534Y-91266766D01*
X172954182Y-91215081D01*
X172875773Y-91162690D01*
X172743310Y-91030227D01*
X172639235Y-90874467D01*
X172639234Y-90874466D01*
X172567546Y-90701395D01*
X172531000Y-90517667D01*
X172531000Y-90330333D01*
X172567546Y-90146605D01*
X172639234Y-89973534D01*
X172743309Y-89817775D01*
X172743310Y-89817773D01*
X172875773Y-89685310D01*
X173031533Y-89581235D01*
X173031534Y-89581234D01*
X173204605Y-89509546D01*
X173388333Y-89473000D01*
X173575667Y-89473000D01*
X173759395Y-89509546D01*
X173759395Y-89509546D01*
G37*
G36*
X180363395Y-89509546D02*
G01*
X180536466Y-89581234D01*
X180536467Y-89581235D01*
X180692227Y-89685310D01*
X180824690Y-89817773D01*
X180824691Y-89817775D01*
X180928766Y-89973534D01*
X181000454Y-90146605D01*
X181037000Y-90330333D01*
X181037000Y-90517667D01*
X181000454Y-90701395D01*
X180928766Y-90874466D01*
X180928765Y-90874467D01*
X180824690Y-91030227D01*
X180692227Y-91162690D01*
X180613818Y-91215081D01*
X180536466Y-91266766D01*
X180363395Y-91338454D01*
X180179667Y-91375000D01*
X179992333Y-91375000D01*
X179808605Y-91338454D01*
X179635534Y-91266766D01*
X179558182Y-91215081D01*
X179479773Y-91162690D01*
X179347310Y-91030227D01*
X179243235Y-90874467D01*
X179243234Y-90874466D01*
X179171546Y-90701395D01*
X179135000Y-90517667D01*
X179135000Y-90330333D01*
X179171546Y-90146605D01*
X179243234Y-89973534D01*
X179347309Y-89817775D01*
X179347310Y-89817773D01*
X179479773Y-89685310D01*
X179635533Y-89581235D01*
X179635534Y-89581234D01*
X179808605Y-89509546D01*
X179992333Y-89473000D01*
X180179667Y-89473000D01*
X180363395Y-89509546D01*
X180363395Y-89509546D01*
G37*
G36*
X161225000Y-88835000D02*
G01*
X159323000Y-88835000D01*
X159323000Y-86933000D01*
X161225000Y-86933000D01*
X161225000Y-88835000D01*
X161225000Y-88835000D01*
G37*
G36*
X83501000Y-88835000D02*
G01*
X81599000Y-88835000D01*
X81599000Y-86933000D01*
X83501000Y-86933000D01*
X83501000Y-88835000D01*
X83501000Y-88835000D01*
G37*
G36*
X90105000Y-88835000D02*
G01*
X88203000Y-88835000D01*
X88203000Y-86933000D01*
X90105000Y-86933000D01*
X90105000Y-88835000D01*
X90105000Y-88835000D01*
G37*
G36*
X96709000Y-88835000D02*
G01*
X94807000Y-88835000D01*
X94807000Y-86933000D01*
X96709000Y-86933000D01*
X96709000Y-88835000D01*
X96709000Y-88835000D01*
G37*
G36*
X103313000Y-88835000D02*
G01*
X101411000Y-88835000D01*
X101411000Y-86933000D01*
X103313000Y-86933000D01*
X103313000Y-88835000D01*
X103313000Y-88835000D01*
G37*
G36*
X109917000Y-88835000D02*
G01*
X108015000Y-88835000D01*
X108015000Y-86933000D01*
X109917000Y-86933000D01*
X109917000Y-88835000D01*
X109917000Y-88835000D01*
G37*
G36*
X116521000Y-88835000D02*
G01*
X114619000Y-88835000D01*
X114619000Y-86933000D01*
X116521000Y-86933000D01*
X116521000Y-88835000D01*
X116521000Y-88835000D01*
G37*
G36*
X123125000Y-88835000D02*
G01*
X121223000Y-88835000D01*
X121223000Y-86933000D01*
X123125000Y-86933000D01*
X123125000Y-88835000D01*
X123125000Y-88835000D01*
G37*
G36*
X129729000Y-88835000D02*
G01*
X127827000Y-88835000D01*
X127827000Y-86933000D01*
X129729000Y-86933000D01*
X129729000Y-88835000D01*
X129729000Y-88835000D01*
G37*
G36*
X141413000Y-88835000D02*
G01*
X139511000Y-88835000D01*
X139511000Y-86933000D01*
X141413000Y-86933000D01*
X141413000Y-88835000D01*
X141413000Y-88835000D01*
G37*
G36*
X148017000Y-88835000D02*
G01*
X146115000Y-88835000D01*
X146115000Y-86933000D01*
X148017000Y-86933000D01*
X148017000Y-88835000D01*
X148017000Y-88835000D01*
G37*
G36*
X154621000Y-88835000D02*
G01*
X152719000Y-88835000D01*
X152719000Y-86933000D01*
X154621000Y-86933000D01*
X154621000Y-88835000D01*
X154621000Y-88835000D01*
G37*
G36*
X181037000Y-88835000D02*
G01*
X179135000Y-88835000D01*
X179135000Y-86933000D01*
X181037000Y-86933000D01*
X181037000Y-88835000D01*
X181037000Y-88835000D01*
G37*
G36*
X167829000Y-88835000D02*
G01*
X165927000Y-88835000D01*
X165927000Y-86933000D01*
X167829000Y-86933000D01*
X167829000Y-88835000D01*
X167829000Y-88835000D01*
G37*
G36*
X187641000Y-88835000D02*
G01*
X185739000Y-88835000D01*
X185739000Y-86933000D01*
X187641000Y-86933000D01*
X187641000Y-88835000D01*
X187641000Y-88835000D01*
G37*
G36*
X174433000Y-88835000D02*
G01*
X172531000Y-88835000D01*
X172531000Y-86933000D01*
X174433000Y-86933000D01*
X174433000Y-88835000D01*
X174433000Y-88835000D01*
G37*
G36*
X167044823Y-82727313D02*
G01*
X167205242Y-82775976D01*
X167337906Y-82846886D01*
X167353078Y-82854996D01*
X167482659Y-82961341D01*
X167589004Y-83090922D01*
X167589005Y-83090924D01*
X167668024Y-83238758D01*
X167716687Y-83399177D01*
X167733117Y-83566000D01*
X167716687Y-83732823D01*
X167668024Y-83893242D01*
X167597114Y-84025906D01*
X167589004Y-84041078D01*
X167482659Y-84170659D01*
X167353078Y-84277004D01*
X167353076Y-84277005D01*
X167205242Y-84356024D01*
X167044823Y-84404687D01*
X166919804Y-84417000D01*
X166836196Y-84417000D01*
X166711177Y-84404687D01*
X166550758Y-84356024D01*
X166402924Y-84277005D01*
X166402922Y-84277004D01*
X166273341Y-84170659D01*
X166166996Y-84041078D01*
X166158886Y-84025906D01*
X166087976Y-83893242D01*
X166039313Y-83732823D01*
X166022883Y-83566000D01*
X166039313Y-83399177D01*
X166087976Y-83238758D01*
X166166995Y-83090924D01*
X166166996Y-83090922D01*
X166273341Y-82961341D01*
X166402922Y-82854996D01*
X166418094Y-82846886D01*
X166550758Y-82775976D01*
X166711177Y-82727313D01*
X166836196Y-82715000D01*
X166919804Y-82715000D01*
X167044823Y-82727313D01*
X167044823Y-82727313D01*
G37*
G36*
X180252823Y-82727313D02*
G01*
X180413242Y-82775976D01*
X180545906Y-82846886D01*
X180561078Y-82854996D01*
X180690659Y-82961341D01*
X180797004Y-83090922D01*
X180797005Y-83090924D01*
X180876024Y-83238758D01*
X180924687Y-83399177D01*
X180941117Y-83566000D01*
X180924687Y-83732823D01*
X180876024Y-83893242D01*
X180805114Y-84025906D01*
X180797004Y-84041078D01*
X180690659Y-84170659D01*
X180561078Y-84277004D01*
X180561076Y-84277005D01*
X180413242Y-84356024D01*
X180252823Y-84404687D01*
X180127804Y-84417000D01*
X180044196Y-84417000D01*
X179919177Y-84404687D01*
X179758758Y-84356024D01*
X179610924Y-84277005D01*
X179610922Y-84277004D01*
X179481341Y-84170659D01*
X179374996Y-84041078D01*
X179366886Y-84025906D01*
X179295976Y-83893242D01*
X179247313Y-83732823D01*
X179230883Y-83566000D01*
X179247313Y-83399177D01*
X179295976Y-83238758D01*
X179374995Y-83090924D01*
X179374996Y-83090922D01*
X179481341Y-82961341D01*
X179610922Y-82854996D01*
X179626094Y-82846886D01*
X179758758Y-82775976D01*
X179919177Y-82727313D01*
X180044196Y-82715000D01*
X180127804Y-82715000D01*
X180252823Y-82727313D01*
X180252823Y-82727313D01*
G37*
G36*
X173648823Y-82727313D02*
G01*
X173809242Y-82775976D01*
X173941906Y-82846886D01*
X173957078Y-82854996D01*
X174086659Y-82961341D01*
X174193004Y-83090922D01*
X174193005Y-83090924D01*
X174272024Y-83238758D01*
X174320687Y-83399177D01*
X174337117Y-83566000D01*
X174320687Y-83732823D01*
X174272024Y-83893242D01*
X174201114Y-84025906D01*
X174193004Y-84041078D01*
X174086659Y-84170659D01*
X173957078Y-84277004D01*
X173957076Y-84277005D01*
X173809242Y-84356024D01*
X173648823Y-84404687D01*
X173523804Y-84417000D01*
X173440196Y-84417000D01*
X173315177Y-84404687D01*
X173154758Y-84356024D01*
X173006924Y-84277005D01*
X173006922Y-84277004D01*
X172877341Y-84170659D01*
X172770996Y-84041078D01*
X172762886Y-84025906D01*
X172691976Y-83893242D01*
X172643313Y-83732823D01*
X172626883Y-83566000D01*
X172643313Y-83399177D01*
X172691976Y-83238758D01*
X172770995Y-83090924D01*
X172770996Y-83090922D01*
X172877341Y-82961341D01*
X173006922Y-82854996D01*
X173022094Y-82846886D01*
X173154758Y-82775976D01*
X173315177Y-82727313D01*
X173440196Y-82715000D01*
X173523804Y-82715000D01*
X173648823Y-82727313D01*
X173648823Y-82727313D01*
G37*
G36*
X160440823Y-82727313D02*
G01*
X160601242Y-82775976D01*
X160733906Y-82846886D01*
X160749078Y-82854996D01*
X160878659Y-82961341D01*
X160985004Y-83090922D01*
X160985005Y-83090924D01*
X161064024Y-83238758D01*
X161112687Y-83399177D01*
X161129117Y-83566000D01*
X161112687Y-83732823D01*
X161064024Y-83893242D01*
X160993114Y-84025906D01*
X160985004Y-84041078D01*
X160878659Y-84170659D01*
X160749078Y-84277004D01*
X160749076Y-84277005D01*
X160601242Y-84356024D01*
X160440823Y-84404687D01*
X160315804Y-84417000D01*
X160232196Y-84417000D01*
X160107177Y-84404687D01*
X159946758Y-84356024D01*
X159798924Y-84277005D01*
X159798922Y-84277004D01*
X159669341Y-84170659D01*
X159562996Y-84041078D01*
X159554886Y-84025906D01*
X159483976Y-83893242D01*
X159435313Y-83732823D01*
X159418883Y-83566000D01*
X159435313Y-83399177D01*
X159483976Y-83238758D01*
X159562995Y-83090924D01*
X159562996Y-83090922D01*
X159669341Y-82961341D01*
X159798922Y-82854996D01*
X159814094Y-82846886D01*
X159946758Y-82775976D01*
X160107177Y-82727313D01*
X160232196Y-82715000D01*
X160315804Y-82715000D01*
X160440823Y-82727313D01*
X160440823Y-82727313D01*
G37*
G36*
X153836823Y-82727313D02*
G01*
X153997242Y-82775976D01*
X154129906Y-82846886D01*
X154145078Y-82854996D01*
X154274659Y-82961341D01*
X154381004Y-83090922D01*
X154381005Y-83090924D01*
X154460024Y-83238758D01*
X154508687Y-83399177D01*
X154525117Y-83566000D01*
X154508687Y-83732823D01*
X154460024Y-83893242D01*
X154389114Y-84025906D01*
X154381004Y-84041078D01*
X154274659Y-84170659D01*
X154145078Y-84277004D01*
X154145076Y-84277005D01*
X153997242Y-84356024D01*
X153836823Y-84404687D01*
X153711804Y-84417000D01*
X153628196Y-84417000D01*
X153503177Y-84404687D01*
X153342758Y-84356024D01*
X153194924Y-84277005D01*
X153194922Y-84277004D01*
X153065341Y-84170659D01*
X152958996Y-84041078D01*
X152950886Y-84025906D01*
X152879976Y-83893242D01*
X152831313Y-83732823D01*
X152814883Y-83566000D01*
X152831313Y-83399177D01*
X152879976Y-83238758D01*
X152958995Y-83090924D01*
X152958996Y-83090922D01*
X153065341Y-82961341D01*
X153194922Y-82854996D01*
X153210094Y-82846886D01*
X153342758Y-82775976D01*
X153503177Y-82727313D01*
X153628196Y-82715000D01*
X153711804Y-82715000D01*
X153836823Y-82727313D01*
X153836823Y-82727313D01*
G37*
G36*
X147232823Y-82727313D02*
G01*
X147393242Y-82775976D01*
X147525906Y-82846886D01*
X147541078Y-82854996D01*
X147670659Y-82961341D01*
X147777004Y-83090922D01*
X147777005Y-83090924D01*
X147856024Y-83238758D01*
X147904687Y-83399177D01*
X147921117Y-83566000D01*
X147904687Y-83732823D01*
X147856024Y-83893242D01*
X147785114Y-84025906D01*
X147777004Y-84041078D01*
X147670659Y-84170659D01*
X147541078Y-84277004D01*
X147541076Y-84277005D01*
X147393242Y-84356024D01*
X147232823Y-84404687D01*
X147107804Y-84417000D01*
X147024196Y-84417000D01*
X146899177Y-84404687D01*
X146738758Y-84356024D01*
X146590924Y-84277005D01*
X146590922Y-84277004D01*
X146461341Y-84170659D01*
X146354996Y-84041078D01*
X146346886Y-84025906D01*
X146275976Y-83893242D01*
X146227313Y-83732823D01*
X146210883Y-83566000D01*
X146227313Y-83399177D01*
X146275976Y-83238758D01*
X146354995Y-83090924D01*
X146354996Y-83090922D01*
X146461341Y-82961341D01*
X146590922Y-82854996D01*
X146606094Y-82846886D01*
X146738758Y-82775976D01*
X146899177Y-82727313D01*
X147024196Y-82715000D01*
X147107804Y-82715000D01*
X147232823Y-82727313D01*
X147232823Y-82727313D01*
G37*
G36*
X140628823Y-82727313D02*
G01*
X140789242Y-82775976D01*
X140921906Y-82846886D01*
X140937078Y-82854996D01*
X141066659Y-82961341D01*
X141173004Y-83090922D01*
X141173005Y-83090924D01*
X141252024Y-83238758D01*
X141300687Y-83399177D01*
X141317117Y-83566000D01*
X141300687Y-83732823D01*
X141252024Y-83893242D01*
X141181114Y-84025906D01*
X141173004Y-84041078D01*
X141066659Y-84170659D01*
X140937078Y-84277004D01*
X140937076Y-84277005D01*
X140789242Y-84356024D01*
X140628823Y-84404687D01*
X140503804Y-84417000D01*
X140420196Y-84417000D01*
X140295177Y-84404687D01*
X140134758Y-84356024D01*
X139986924Y-84277005D01*
X139986922Y-84277004D01*
X139857341Y-84170659D01*
X139750996Y-84041078D01*
X139742886Y-84025906D01*
X139671976Y-83893242D01*
X139623313Y-83732823D01*
X139606883Y-83566000D01*
X139623313Y-83399177D01*
X139671976Y-83238758D01*
X139750995Y-83090924D01*
X139750996Y-83090922D01*
X139857341Y-82961341D01*
X139986922Y-82854996D01*
X140002094Y-82846886D01*
X140134758Y-82775976D01*
X140295177Y-82727313D01*
X140420196Y-82715000D01*
X140503804Y-82715000D01*
X140628823Y-82727313D01*
X140628823Y-82727313D01*
G37*
G36*
X128944823Y-82727313D02*
G01*
X129105242Y-82775976D01*
X129237906Y-82846886D01*
X129253078Y-82854996D01*
X129382659Y-82961341D01*
X129489004Y-83090922D01*
X129489005Y-83090924D01*
X129568024Y-83238758D01*
X129616687Y-83399177D01*
X129633117Y-83566000D01*
X129616687Y-83732823D01*
X129568024Y-83893242D01*
X129497114Y-84025906D01*
X129489004Y-84041078D01*
X129382659Y-84170659D01*
X129253078Y-84277004D01*
X129253076Y-84277005D01*
X129105242Y-84356024D01*
X128944823Y-84404687D01*
X128819804Y-84417000D01*
X128736196Y-84417000D01*
X128611177Y-84404687D01*
X128450758Y-84356024D01*
X128302924Y-84277005D01*
X128302922Y-84277004D01*
X128173341Y-84170659D01*
X128066996Y-84041078D01*
X128058886Y-84025906D01*
X127987976Y-83893242D01*
X127939313Y-83732823D01*
X127922883Y-83566000D01*
X127939313Y-83399177D01*
X127987976Y-83238758D01*
X128066995Y-83090924D01*
X128066996Y-83090922D01*
X128173341Y-82961341D01*
X128302922Y-82854996D01*
X128318094Y-82846886D01*
X128450758Y-82775976D01*
X128611177Y-82727313D01*
X128736196Y-82715000D01*
X128819804Y-82715000D01*
X128944823Y-82727313D01*
X128944823Y-82727313D01*
G37*
G36*
X115736823Y-82727313D02*
G01*
X115897242Y-82775976D01*
X116029906Y-82846886D01*
X116045078Y-82854996D01*
X116174659Y-82961341D01*
X116281004Y-83090922D01*
X116281005Y-83090924D01*
X116360024Y-83238758D01*
X116408687Y-83399177D01*
X116425117Y-83566000D01*
X116408687Y-83732823D01*
X116360024Y-83893242D01*
X116289114Y-84025906D01*
X116281004Y-84041078D01*
X116174659Y-84170659D01*
X116045078Y-84277004D01*
X116045076Y-84277005D01*
X115897242Y-84356024D01*
X115736823Y-84404687D01*
X115611804Y-84417000D01*
X115528196Y-84417000D01*
X115403177Y-84404687D01*
X115242758Y-84356024D01*
X115094924Y-84277005D01*
X115094922Y-84277004D01*
X114965341Y-84170659D01*
X114858996Y-84041078D01*
X114850886Y-84025906D01*
X114779976Y-83893242D01*
X114731313Y-83732823D01*
X114714883Y-83566000D01*
X114731313Y-83399177D01*
X114779976Y-83238758D01*
X114858995Y-83090924D01*
X114858996Y-83090922D01*
X114965341Y-82961341D01*
X115094922Y-82854996D01*
X115110094Y-82846886D01*
X115242758Y-82775976D01*
X115403177Y-82727313D01*
X115528196Y-82715000D01*
X115611804Y-82715000D01*
X115736823Y-82727313D01*
X115736823Y-82727313D01*
G37*
G36*
X109132823Y-82727313D02*
G01*
X109293242Y-82775976D01*
X109425906Y-82846886D01*
X109441078Y-82854996D01*
X109570659Y-82961341D01*
X109677004Y-83090922D01*
X109677005Y-83090924D01*
X109756024Y-83238758D01*
X109804687Y-83399177D01*
X109821117Y-83566000D01*
X109804687Y-83732823D01*
X109756024Y-83893242D01*
X109685114Y-84025906D01*
X109677004Y-84041078D01*
X109570659Y-84170659D01*
X109441078Y-84277004D01*
X109441076Y-84277005D01*
X109293242Y-84356024D01*
X109132823Y-84404687D01*
X109007804Y-84417000D01*
X108924196Y-84417000D01*
X108799177Y-84404687D01*
X108638758Y-84356024D01*
X108490924Y-84277005D01*
X108490922Y-84277004D01*
X108361341Y-84170659D01*
X108254996Y-84041078D01*
X108246886Y-84025906D01*
X108175976Y-83893242D01*
X108127313Y-83732823D01*
X108110883Y-83566000D01*
X108127313Y-83399177D01*
X108175976Y-83238758D01*
X108254995Y-83090924D01*
X108254996Y-83090922D01*
X108361341Y-82961341D01*
X108490922Y-82854996D01*
X108506094Y-82846886D01*
X108638758Y-82775976D01*
X108799177Y-82727313D01*
X108924196Y-82715000D01*
X109007804Y-82715000D01*
X109132823Y-82727313D01*
X109132823Y-82727313D01*
G37*
G36*
X102528823Y-82727313D02*
G01*
X102689242Y-82775976D01*
X102821906Y-82846886D01*
X102837078Y-82854996D01*
X102966659Y-82961341D01*
X103073004Y-83090922D01*
X103073005Y-83090924D01*
X103152024Y-83238758D01*
X103200687Y-83399177D01*
X103217117Y-83566000D01*
X103200687Y-83732823D01*
X103152024Y-83893242D01*
X103081114Y-84025906D01*
X103073004Y-84041078D01*
X102966659Y-84170659D01*
X102837078Y-84277004D01*
X102837076Y-84277005D01*
X102689242Y-84356024D01*
X102528823Y-84404687D01*
X102403804Y-84417000D01*
X102320196Y-84417000D01*
X102195177Y-84404687D01*
X102034758Y-84356024D01*
X101886924Y-84277005D01*
X101886922Y-84277004D01*
X101757341Y-84170659D01*
X101650996Y-84041078D01*
X101642886Y-84025906D01*
X101571976Y-83893242D01*
X101523313Y-83732823D01*
X101506883Y-83566000D01*
X101523313Y-83399177D01*
X101571976Y-83238758D01*
X101650995Y-83090924D01*
X101650996Y-83090922D01*
X101757341Y-82961341D01*
X101886922Y-82854996D01*
X101902094Y-82846886D01*
X102034758Y-82775976D01*
X102195177Y-82727313D01*
X102320196Y-82715000D01*
X102403804Y-82715000D01*
X102528823Y-82727313D01*
X102528823Y-82727313D01*
G37*
G36*
X95924823Y-82727313D02*
G01*
X96085242Y-82775976D01*
X96217906Y-82846886D01*
X96233078Y-82854996D01*
X96362659Y-82961341D01*
X96469004Y-83090922D01*
X96469005Y-83090924D01*
X96548024Y-83238758D01*
X96596687Y-83399177D01*
X96613117Y-83566000D01*
X96596687Y-83732823D01*
X96548024Y-83893242D01*
X96477114Y-84025906D01*
X96469004Y-84041078D01*
X96362659Y-84170659D01*
X96233078Y-84277004D01*
X96233076Y-84277005D01*
X96085242Y-84356024D01*
X95924823Y-84404687D01*
X95799804Y-84417000D01*
X95716196Y-84417000D01*
X95591177Y-84404687D01*
X95430758Y-84356024D01*
X95282924Y-84277005D01*
X95282922Y-84277004D01*
X95153341Y-84170659D01*
X95046996Y-84041078D01*
X95038886Y-84025906D01*
X94967976Y-83893242D01*
X94919313Y-83732823D01*
X94902883Y-83566000D01*
X94919313Y-83399177D01*
X94967976Y-83238758D01*
X95046995Y-83090924D01*
X95046996Y-83090922D01*
X95153341Y-82961341D01*
X95282922Y-82854996D01*
X95298094Y-82846886D01*
X95430758Y-82775976D01*
X95591177Y-82727313D01*
X95716196Y-82715000D01*
X95799804Y-82715000D01*
X95924823Y-82727313D01*
X95924823Y-82727313D01*
G37*
G36*
X82716823Y-82727313D02*
G01*
X82877242Y-82775976D01*
X83009906Y-82846886D01*
X83025078Y-82854996D01*
X83154659Y-82961341D01*
X83261004Y-83090922D01*
X83261005Y-83090924D01*
X83340024Y-83238758D01*
X83388687Y-83399177D01*
X83405117Y-83566000D01*
X83388687Y-83732823D01*
X83340024Y-83893242D01*
X83269114Y-84025906D01*
X83261004Y-84041078D01*
X83154659Y-84170659D01*
X83025078Y-84277004D01*
X83025076Y-84277005D01*
X82877242Y-84356024D01*
X82716823Y-84404687D01*
X82591804Y-84417000D01*
X82508196Y-84417000D01*
X82383177Y-84404687D01*
X82222758Y-84356024D01*
X82074924Y-84277005D01*
X82074922Y-84277004D01*
X81945341Y-84170659D01*
X81838996Y-84041078D01*
X81830886Y-84025906D01*
X81759976Y-83893242D01*
X81711313Y-83732823D01*
X81694883Y-83566000D01*
X81711313Y-83399177D01*
X81759976Y-83238758D01*
X81838995Y-83090924D01*
X81838996Y-83090922D01*
X81945341Y-82961341D01*
X82074922Y-82854996D01*
X82090094Y-82846886D01*
X82222758Y-82775976D01*
X82383177Y-82727313D01*
X82508196Y-82715000D01*
X82591804Y-82715000D01*
X82716823Y-82727313D01*
X82716823Y-82727313D01*
G37*
G36*
X89320823Y-82727313D02*
G01*
X89481242Y-82775976D01*
X89613906Y-82846886D01*
X89629078Y-82854996D01*
X89758659Y-82961341D01*
X89865004Y-83090922D01*
X89865005Y-83090924D01*
X89944024Y-83238758D01*
X89992687Y-83399177D01*
X90009117Y-83566000D01*
X89992687Y-83732823D01*
X89944024Y-83893242D01*
X89873114Y-84025906D01*
X89865004Y-84041078D01*
X89758659Y-84170659D01*
X89629078Y-84277004D01*
X89629076Y-84277005D01*
X89481242Y-84356024D01*
X89320823Y-84404687D01*
X89195804Y-84417000D01*
X89112196Y-84417000D01*
X88987177Y-84404687D01*
X88826758Y-84356024D01*
X88678924Y-84277005D01*
X88678922Y-84277004D01*
X88549341Y-84170659D01*
X88442996Y-84041078D01*
X88434886Y-84025906D01*
X88363976Y-83893242D01*
X88315313Y-83732823D01*
X88298883Y-83566000D01*
X88315313Y-83399177D01*
X88363976Y-83238758D01*
X88442995Y-83090924D01*
X88442996Y-83090922D01*
X88549341Y-82961341D01*
X88678922Y-82854996D01*
X88694094Y-82846886D01*
X88826758Y-82775976D01*
X88987177Y-82727313D01*
X89112196Y-82715000D01*
X89195804Y-82715000D01*
X89320823Y-82727313D01*
X89320823Y-82727313D01*
G37*
G36*
X186856823Y-82727313D02*
G01*
X187017242Y-82775976D01*
X187149906Y-82846886D01*
X187165078Y-82854996D01*
X187294659Y-82961341D01*
X187401004Y-83090922D01*
X187401005Y-83090924D01*
X187480024Y-83238758D01*
X187528687Y-83399177D01*
X187545117Y-83566000D01*
X187528687Y-83732823D01*
X187480024Y-83893242D01*
X187409114Y-84025906D01*
X187401004Y-84041078D01*
X187294659Y-84170659D01*
X187165078Y-84277004D01*
X187165076Y-84277005D01*
X187017242Y-84356024D01*
X186856823Y-84404687D01*
X186731804Y-84417000D01*
X186648196Y-84417000D01*
X186523177Y-84404687D01*
X186362758Y-84356024D01*
X186214924Y-84277005D01*
X186214922Y-84277004D01*
X186085341Y-84170659D01*
X185978996Y-84041078D01*
X185970886Y-84025906D01*
X185899976Y-83893242D01*
X185851313Y-83732823D01*
X185834883Y-83566000D01*
X185851313Y-83399177D01*
X185899976Y-83238758D01*
X185978995Y-83090924D01*
X185978996Y-83090922D01*
X186085341Y-82961341D01*
X186214922Y-82854996D01*
X186230094Y-82846886D01*
X186362758Y-82775976D01*
X186523177Y-82727313D01*
X186648196Y-82715000D01*
X186731804Y-82715000D01*
X186856823Y-82727313D01*
X186856823Y-82727313D01*
G37*
G36*
X122340823Y-82727313D02*
G01*
X122501242Y-82775976D01*
X122633906Y-82846886D01*
X122649078Y-82854996D01*
X122778659Y-82961341D01*
X122885004Y-83090922D01*
X122885005Y-83090924D01*
X122964024Y-83238758D01*
X123012687Y-83399177D01*
X123029117Y-83566000D01*
X123012687Y-83732823D01*
X122964024Y-83893242D01*
X122893114Y-84025906D01*
X122885004Y-84041078D01*
X122778659Y-84170659D01*
X122649078Y-84277004D01*
X122649076Y-84277005D01*
X122501242Y-84356024D01*
X122340823Y-84404687D01*
X122215804Y-84417000D01*
X122132196Y-84417000D01*
X122007177Y-84404687D01*
X121846758Y-84356024D01*
X121698924Y-84277005D01*
X121698922Y-84277004D01*
X121569341Y-84170659D01*
X121462996Y-84041078D01*
X121454886Y-84025906D01*
X121383976Y-83893242D01*
X121335313Y-83732823D01*
X121318883Y-83566000D01*
X121335313Y-83399177D01*
X121383976Y-83238758D01*
X121462995Y-83090924D01*
X121462996Y-83090922D01*
X121569341Y-82961341D01*
X121698922Y-82854996D01*
X121714094Y-82846886D01*
X121846758Y-82775976D01*
X122007177Y-82727313D01*
X122132196Y-82715000D01*
X122215804Y-82715000D01*
X122340823Y-82727313D01*
X122340823Y-82727313D01*
G37*
G36*
X153918228Y-75127703D02*
G01*
X154073100Y-75191853D01*
X154212481Y-75284985D01*
X154331015Y-75403519D01*
X154424147Y-75542900D01*
X154488297Y-75697772D01*
X154521000Y-75862184D01*
X154521000Y-76029816D01*
X154488297Y-76194228D01*
X154424147Y-76349100D01*
X154331015Y-76488481D01*
X154212481Y-76607015D01*
X154073100Y-76700147D01*
X153918228Y-76764297D01*
X153753816Y-76797000D01*
X153586184Y-76797000D01*
X153421772Y-76764297D01*
X153266900Y-76700147D01*
X153127519Y-76607015D01*
X153008985Y-76488481D01*
X152915853Y-76349100D01*
X152851703Y-76194228D01*
X152819000Y-76029816D01*
X152819000Y-75862184D01*
X152851703Y-75697772D01*
X152915853Y-75542900D01*
X153008985Y-75403519D01*
X153127519Y-75284985D01*
X153266900Y-75191853D01*
X153421772Y-75127703D01*
X153586184Y-75095000D01*
X153753816Y-75095000D01*
X153918228Y-75127703D01*
X153918228Y-75127703D01*
G37*
G36*
X82798228Y-75127703D02*
G01*
X82953100Y-75191853D01*
X83092481Y-75284985D01*
X83211015Y-75403519D01*
X83304147Y-75542900D01*
X83368297Y-75697772D01*
X83401000Y-75862184D01*
X83401000Y-76029816D01*
X83368297Y-76194228D01*
X83304147Y-76349100D01*
X83211015Y-76488481D01*
X83092481Y-76607015D01*
X82953100Y-76700147D01*
X82798228Y-76764297D01*
X82633816Y-76797000D01*
X82466184Y-76797000D01*
X82301772Y-76764297D01*
X82146900Y-76700147D01*
X82007519Y-76607015D01*
X81888985Y-76488481D01*
X81795853Y-76349100D01*
X81731703Y-76194228D01*
X81699000Y-76029816D01*
X81699000Y-75862184D01*
X81731703Y-75697772D01*
X81795853Y-75542900D01*
X81888985Y-75403519D01*
X82007519Y-75284985D01*
X82146900Y-75191853D01*
X82301772Y-75127703D01*
X82466184Y-75095000D01*
X82633816Y-75095000D01*
X82798228Y-75127703D01*
X82798228Y-75127703D01*
G37*
G36*
X89402228Y-75127703D02*
G01*
X89557100Y-75191853D01*
X89696481Y-75284985D01*
X89815015Y-75403519D01*
X89908147Y-75542900D01*
X89972297Y-75697772D01*
X90005000Y-75862184D01*
X90005000Y-76029816D01*
X89972297Y-76194228D01*
X89908147Y-76349100D01*
X89815015Y-76488481D01*
X89696481Y-76607015D01*
X89557100Y-76700147D01*
X89402228Y-76764297D01*
X89237816Y-76797000D01*
X89070184Y-76797000D01*
X88905772Y-76764297D01*
X88750900Y-76700147D01*
X88611519Y-76607015D01*
X88492985Y-76488481D01*
X88399853Y-76349100D01*
X88335703Y-76194228D01*
X88303000Y-76029816D01*
X88303000Y-75862184D01*
X88335703Y-75697772D01*
X88399853Y-75542900D01*
X88492985Y-75403519D01*
X88611519Y-75284985D01*
X88750900Y-75191853D01*
X88905772Y-75127703D01*
X89070184Y-75095000D01*
X89237816Y-75095000D01*
X89402228Y-75127703D01*
X89402228Y-75127703D01*
G37*
G36*
X96006228Y-75127703D02*
G01*
X96161100Y-75191853D01*
X96300481Y-75284985D01*
X96419015Y-75403519D01*
X96512147Y-75542900D01*
X96576297Y-75697772D01*
X96609000Y-75862184D01*
X96609000Y-76029816D01*
X96576297Y-76194228D01*
X96512147Y-76349100D01*
X96419015Y-76488481D01*
X96300481Y-76607015D01*
X96161100Y-76700147D01*
X96006228Y-76764297D01*
X95841816Y-76797000D01*
X95674184Y-76797000D01*
X95509772Y-76764297D01*
X95354900Y-76700147D01*
X95215519Y-76607015D01*
X95096985Y-76488481D01*
X95003853Y-76349100D01*
X94939703Y-76194228D01*
X94907000Y-76029816D01*
X94907000Y-75862184D01*
X94939703Y-75697772D01*
X95003853Y-75542900D01*
X95096985Y-75403519D01*
X95215519Y-75284985D01*
X95354900Y-75191853D01*
X95509772Y-75127703D01*
X95674184Y-75095000D01*
X95841816Y-75095000D01*
X96006228Y-75127703D01*
X96006228Y-75127703D01*
G37*
G36*
X102610228Y-75127703D02*
G01*
X102765100Y-75191853D01*
X102904481Y-75284985D01*
X103023015Y-75403519D01*
X103116147Y-75542900D01*
X103180297Y-75697772D01*
X103213000Y-75862184D01*
X103213000Y-76029816D01*
X103180297Y-76194228D01*
X103116147Y-76349100D01*
X103023015Y-76488481D01*
X102904481Y-76607015D01*
X102765100Y-76700147D01*
X102610228Y-76764297D01*
X102445816Y-76797000D01*
X102278184Y-76797000D01*
X102113772Y-76764297D01*
X101958900Y-76700147D01*
X101819519Y-76607015D01*
X101700985Y-76488481D01*
X101607853Y-76349100D01*
X101543703Y-76194228D01*
X101511000Y-76029816D01*
X101511000Y-75862184D01*
X101543703Y-75697772D01*
X101607853Y-75542900D01*
X101700985Y-75403519D01*
X101819519Y-75284985D01*
X101958900Y-75191853D01*
X102113772Y-75127703D01*
X102278184Y-75095000D01*
X102445816Y-75095000D01*
X102610228Y-75127703D01*
X102610228Y-75127703D01*
G37*
G36*
X109214228Y-75127703D02*
G01*
X109369100Y-75191853D01*
X109508481Y-75284985D01*
X109627015Y-75403519D01*
X109720147Y-75542900D01*
X109784297Y-75697772D01*
X109817000Y-75862184D01*
X109817000Y-76029816D01*
X109784297Y-76194228D01*
X109720147Y-76349100D01*
X109627015Y-76488481D01*
X109508481Y-76607015D01*
X109369100Y-76700147D01*
X109214228Y-76764297D01*
X109049816Y-76797000D01*
X108882184Y-76797000D01*
X108717772Y-76764297D01*
X108562900Y-76700147D01*
X108423519Y-76607015D01*
X108304985Y-76488481D01*
X108211853Y-76349100D01*
X108147703Y-76194228D01*
X108115000Y-76029816D01*
X108115000Y-75862184D01*
X108147703Y-75697772D01*
X108211853Y-75542900D01*
X108304985Y-75403519D01*
X108423519Y-75284985D01*
X108562900Y-75191853D01*
X108717772Y-75127703D01*
X108882184Y-75095000D01*
X109049816Y-75095000D01*
X109214228Y-75127703D01*
X109214228Y-75127703D01*
G37*
G36*
X115818228Y-75127703D02*
G01*
X115973100Y-75191853D01*
X116112481Y-75284985D01*
X116231015Y-75403519D01*
X116324147Y-75542900D01*
X116388297Y-75697772D01*
X116421000Y-75862184D01*
X116421000Y-76029816D01*
X116388297Y-76194228D01*
X116324147Y-76349100D01*
X116231015Y-76488481D01*
X116112481Y-76607015D01*
X115973100Y-76700147D01*
X115818228Y-76764297D01*
X115653816Y-76797000D01*
X115486184Y-76797000D01*
X115321772Y-76764297D01*
X115166900Y-76700147D01*
X115027519Y-76607015D01*
X114908985Y-76488481D01*
X114815853Y-76349100D01*
X114751703Y-76194228D01*
X114719000Y-76029816D01*
X114719000Y-75862184D01*
X114751703Y-75697772D01*
X114815853Y-75542900D01*
X114908985Y-75403519D01*
X115027519Y-75284985D01*
X115166900Y-75191853D01*
X115321772Y-75127703D01*
X115486184Y-75095000D01*
X115653816Y-75095000D01*
X115818228Y-75127703D01*
X115818228Y-75127703D01*
G37*
G36*
X122422228Y-75127703D02*
G01*
X122577100Y-75191853D01*
X122716481Y-75284985D01*
X122835015Y-75403519D01*
X122928147Y-75542900D01*
X122992297Y-75697772D01*
X123025000Y-75862184D01*
X123025000Y-76029816D01*
X122992297Y-76194228D01*
X122928147Y-76349100D01*
X122835015Y-76488481D01*
X122716481Y-76607015D01*
X122577100Y-76700147D01*
X122422228Y-76764297D01*
X122257816Y-76797000D01*
X122090184Y-76797000D01*
X121925772Y-76764297D01*
X121770900Y-76700147D01*
X121631519Y-76607015D01*
X121512985Y-76488481D01*
X121419853Y-76349100D01*
X121355703Y-76194228D01*
X121323000Y-76029816D01*
X121323000Y-75862184D01*
X121355703Y-75697772D01*
X121419853Y-75542900D01*
X121512985Y-75403519D01*
X121631519Y-75284985D01*
X121770900Y-75191853D01*
X121925772Y-75127703D01*
X122090184Y-75095000D01*
X122257816Y-75095000D01*
X122422228Y-75127703D01*
X122422228Y-75127703D01*
G37*
G36*
X140710228Y-75127703D02*
G01*
X140865100Y-75191853D01*
X141004481Y-75284985D01*
X141123015Y-75403519D01*
X141216147Y-75542900D01*
X141280297Y-75697772D01*
X141313000Y-75862184D01*
X141313000Y-76029816D01*
X141280297Y-76194228D01*
X141216147Y-76349100D01*
X141123015Y-76488481D01*
X141004481Y-76607015D01*
X140865100Y-76700147D01*
X140710228Y-76764297D01*
X140545816Y-76797000D01*
X140378184Y-76797000D01*
X140213772Y-76764297D01*
X140058900Y-76700147D01*
X139919519Y-76607015D01*
X139800985Y-76488481D01*
X139707853Y-76349100D01*
X139643703Y-76194228D01*
X139611000Y-76029816D01*
X139611000Y-75862184D01*
X139643703Y-75697772D01*
X139707853Y-75542900D01*
X139800985Y-75403519D01*
X139919519Y-75284985D01*
X140058900Y-75191853D01*
X140213772Y-75127703D01*
X140378184Y-75095000D01*
X140545816Y-75095000D01*
X140710228Y-75127703D01*
X140710228Y-75127703D01*
G37*
G36*
X147314228Y-75127703D02*
G01*
X147469100Y-75191853D01*
X147608481Y-75284985D01*
X147727015Y-75403519D01*
X147820147Y-75542900D01*
X147884297Y-75697772D01*
X147917000Y-75862184D01*
X147917000Y-76029816D01*
X147884297Y-76194228D01*
X147820147Y-76349100D01*
X147727015Y-76488481D01*
X147608481Y-76607015D01*
X147469100Y-76700147D01*
X147314228Y-76764297D01*
X147149816Y-76797000D01*
X146982184Y-76797000D01*
X146817772Y-76764297D01*
X146662900Y-76700147D01*
X146523519Y-76607015D01*
X146404985Y-76488481D01*
X146311853Y-76349100D01*
X146247703Y-76194228D01*
X146215000Y-76029816D01*
X146215000Y-75862184D01*
X146247703Y-75697772D01*
X146311853Y-75542900D01*
X146404985Y-75403519D01*
X146523519Y-75284985D01*
X146662900Y-75191853D01*
X146817772Y-75127703D01*
X146982184Y-75095000D01*
X147149816Y-75095000D01*
X147314228Y-75127703D01*
X147314228Y-75127703D01*
G37*
G36*
X186938228Y-75127703D02*
G01*
X187093100Y-75191853D01*
X187232481Y-75284985D01*
X187351015Y-75403519D01*
X187444147Y-75542900D01*
X187508297Y-75697772D01*
X187541000Y-75862184D01*
X187541000Y-76029816D01*
X187508297Y-76194228D01*
X187444147Y-76349100D01*
X187351015Y-76488481D01*
X187232481Y-76607015D01*
X187093100Y-76700147D01*
X186938228Y-76764297D01*
X186773816Y-76797000D01*
X186606184Y-76797000D01*
X186441772Y-76764297D01*
X186286900Y-76700147D01*
X186147519Y-76607015D01*
X186028985Y-76488481D01*
X185935853Y-76349100D01*
X185871703Y-76194228D01*
X185839000Y-76029816D01*
X185839000Y-75862184D01*
X185871703Y-75697772D01*
X185935853Y-75542900D01*
X186028985Y-75403519D01*
X186147519Y-75284985D01*
X186286900Y-75191853D01*
X186441772Y-75127703D01*
X186606184Y-75095000D01*
X186773816Y-75095000D01*
X186938228Y-75127703D01*
X186938228Y-75127703D01*
G37*
G36*
X160522228Y-75127703D02*
G01*
X160677100Y-75191853D01*
X160816481Y-75284985D01*
X160935015Y-75403519D01*
X161028147Y-75542900D01*
X161092297Y-75697772D01*
X161125000Y-75862184D01*
X161125000Y-76029816D01*
X161092297Y-76194228D01*
X161028147Y-76349100D01*
X160935015Y-76488481D01*
X160816481Y-76607015D01*
X160677100Y-76700147D01*
X160522228Y-76764297D01*
X160357816Y-76797000D01*
X160190184Y-76797000D01*
X160025772Y-76764297D01*
X159870900Y-76700147D01*
X159731519Y-76607015D01*
X159612985Y-76488481D01*
X159519853Y-76349100D01*
X159455703Y-76194228D01*
X159423000Y-76029816D01*
X159423000Y-75862184D01*
X159455703Y-75697772D01*
X159519853Y-75542900D01*
X159612985Y-75403519D01*
X159731519Y-75284985D01*
X159870900Y-75191853D01*
X160025772Y-75127703D01*
X160190184Y-75095000D01*
X160357816Y-75095000D01*
X160522228Y-75127703D01*
X160522228Y-75127703D01*
G37*
G36*
X180334228Y-75127703D02*
G01*
X180489100Y-75191853D01*
X180628481Y-75284985D01*
X180747015Y-75403519D01*
X180840147Y-75542900D01*
X180904297Y-75697772D01*
X180937000Y-75862184D01*
X180937000Y-76029816D01*
X180904297Y-76194228D01*
X180840147Y-76349100D01*
X180747015Y-76488481D01*
X180628481Y-76607015D01*
X180489100Y-76700147D01*
X180334228Y-76764297D01*
X180169816Y-76797000D01*
X180002184Y-76797000D01*
X179837772Y-76764297D01*
X179682900Y-76700147D01*
X179543519Y-76607015D01*
X179424985Y-76488481D01*
X179331853Y-76349100D01*
X179267703Y-76194228D01*
X179235000Y-76029816D01*
X179235000Y-75862184D01*
X179267703Y-75697772D01*
X179331853Y-75542900D01*
X179424985Y-75403519D01*
X179543519Y-75284985D01*
X179682900Y-75191853D01*
X179837772Y-75127703D01*
X180002184Y-75095000D01*
X180169816Y-75095000D01*
X180334228Y-75127703D01*
X180334228Y-75127703D01*
G37*
G36*
X167126228Y-75127703D02*
G01*
X167281100Y-75191853D01*
X167420481Y-75284985D01*
X167539015Y-75403519D01*
X167632147Y-75542900D01*
X167696297Y-75697772D01*
X167729000Y-75862184D01*
X167729000Y-76029816D01*
X167696297Y-76194228D01*
X167632147Y-76349100D01*
X167539015Y-76488481D01*
X167420481Y-76607015D01*
X167281100Y-76700147D01*
X167126228Y-76764297D01*
X166961816Y-76797000D01*
X166794184Y-76797000D01*
X166629772Y-76764297D01*
X166474900Y-76700147D01*
X166335519Y-76607015D01*
X166216985Y-76488481D01*
X166123853Y-76349100D01*
X166059703Y-76194228D01*
X166027000Y-76029816D01*
X166027000Y-75862184D01*
X166059703Y-75697772D01*
X166123853Y-75542900D01*
X166216985Y-75403519D01*
X166335519Y-75284985D01*
X166474900Y-75191853D01*
X166629772Y-75127703D01*
X166794184Y-75095000D01*
X166961816Y-75095000D01*
X167126228Y-75127703D01*
X167126228Y-75127703D01*
G37*
G36*
X173730228Y-75127703D02*
G01*
X173885100Y-75191853D01*
X174024481Y-75284985D01*
X174143015Y-75403519D01*
X174236147Y-75542900D01*
X174300297Y-75697772D01*
X174333000Y-75862184D01*
X174333000Y-76029816D01*
X174300297Y-76194228D01*
X174236147Y-76349100D01*
X174143015Y-76488481D01*
X174024481Y-76607015D01*
X173885100Y-76700147D01*
X173730228Y-76764297D01*
X173565816Y-76797000D01*
X173398184Y-76797000D01*
X173233772Y-76764297D01*
X173078900Y-76700147D01*
X172939519Y-76607015D01*
X172820985Y-76488481D01*
X172727853Y-76349100D01*
X172663703Y-76194228D01*
X172631000Y-76029816D01*
X172631000Y-75862184D01*
X172663703Y-75697772D01*
X172727853Y-75542900D01*
X172820985Y-75403519D01*
X172939519Y-75284985D01*
X173078900Y-75191853D01*
X173233772Y-75127703D01*
X173398184Y-75095000D01*
X173565816Y-75095000D01*
X173730228Y-75127703D01*
X173730228Y-75127703D01*
G37*
G36*
X129026228Y-75127703D02*
G01*
X129181100Y-75191853D01*
X129320481Y-75284985D01*
X129439015Y-75403519D01*
X129532147Y-75542900D01*
X129596297Y-75697772D01*
X129629000Y-75862184D01*
X129629000Y-76029816D01*
X129596297Y-76194228D01*
X129532147Y-76349100D01*
X129439015Y-76488481D01*
X129320481Y-76607015D01*
X129181100Y-76700147D01*
X129026228Y-76764297D01*
X128861816Y-76797000D01*
X128694184Y-76797000D01*
X128529772Y-76764297D01*
X128374900Y-76700147D01*
X128235519Y-76607015D01*
X128116985Y-76488481D01*
X128023853Y-76349100D01*
X127959703Y-76194228D01*
X127927000Y-76029816D01*
X127927000Y-75862184D01*
X127959703Y-75697772D01*
X128023853Y-75542900D01*
X128116985Y-75403519D01*
X128235519Y-75284985D01*
X128374900Y-75191853D01*
X128529772Y-75127703D01*
X128694184Y-75095000D01*
X128861816Y-75095000D01*
X129026228Y-75127703D01*
X129026228Y-75127703D01*
G37*
G36*
X184260442Y-70733518D02*
G01*
X184326627Y-70740037D01*
X184496466Y-70791557D01*
X184652991Y-70875222D01*
X184688729Y-70904552D01*
X184790186Y-70987814D01*
X184873448Y-71089271D01*
X184902778Y-71125009D01*
X184986443Y-71281534D01*
X185037963Y-71451373D01*
X185055359Y-71628000D01*
X185037963Y-71804627D01*
X184986443Y-71974466D01*
X184902778Y-72130991D01*
X184873448Y-72166729D01*
X184790186Y-72268186D01*
X184688729Y-72351448D01*
X184652991Y-72380778D01*
X184496466Y-72464443D01*
X184326627Y-72515963D01*
X184260442Y-72522482D01*
X184194260Y-72529000D01*
X184105740Y-72529000D01*
X184039558Y-72522482D01*
X183973373Y-72515963D01*
X183803534Y-72464443D01*
X183647009Y-72380778D01*
X183611271Y-72351448D01*
X183509814Y-72268186D01*
X183426552Y-72166729D01*
X183397222Y-72130991D01*
X183313557Y-71974466D01*
X183262037Y-71804627D01*
X183244641Y-71628000D01*
X183262037Y-71451373D01*
X183313557Y-71281534D01*
X183397222Y-71125009D01*
X183426552Y-71089271D01*
X183509814Y-70987814D01*
X183611271Y-70904552D01*
X183647009Y-70875222D01*
X183803534Y-70791557D01*
X183973373Y-70740037D01*
X184039558Y-70733518D01*
X184105740Y-70727000D01*
X184194260Y-70727000D01*
X184260442Y-70733518D01*
X184260442Y-70733518D01*
G37*
G36*
X171560442Y-70733518D02*
G01*
X171626627Y-70740037D01*
X171796466Y-70791557D01*
X171952991Y-70875222D01*
X171988729Y-70904552D01*
X172090186Y-70987814D01*
X172173448Y-71089271D01*
X172202778Y-71125009D01*
X172286443Y-71281534D01*
X172337963Y-71451373D01*
X172355359Y-71628000D01*
X172337963Y-71804627D01*
X172286443Y-71974466D01*
X172202778Y-72130991D01*
X172173448Y-72166729D01*
X172090186Y-72268186D01*
X171988729Y-72351448D01*
X171952991Y-72380778D01*
X171796466Y-72464443D01*
X171626627Y-72515963D01*
X171560442Y-72522482D01*
X171494260Y-72529000D01*
X171405740Y-72529000D01*
X171339558Y-72522482D01*
X171273373Y-72515963D01*
X171103534Y-72464443D01*
X170947009Y-72380778D01*
X170911271Y-72351448D01*
X170809814Y-72268186D01*
X170726552Y-72166729D01*
X170697222Y-72130991D01*
X170613557Y-71974466D01*
X170562037Y-71804627D01*
X170544641Y-71628000D01*
X170562037Y-71451373D01*
X170613557Y-71281534D01*
X170697222Y-71125009D01*
X170726552Y-71089271D01*
X170809814Y-70987814D01*
X170911271Y-70904552D01*
X170947009Y-70875222D01*
X171103534Y-70791557D01*
X171273373Y-70740037D01*
X171339558Y-70733518D01*
X171405740Y-70727000D01*
X171494260Y-70727000D01*
X171560442Y-70733518D01*
X171560442Y-70733518D01*
G37*
G36*
X169020442Y-70733518D02*
G01*
X169086627Y-70740037D01*
X169256466Y-70791557D01*
X169412991Y-70875222D01*
X169448729Y-70904552D01*
X169550186Y-70987814D01*
X169633448Y-71089271D01*
X169662778Y-71125009D01*
X169746443Y-71281534D01*
X169797963Y-71451373D01*
X169815359Y-71628000D01*
X169797963Y-71804627D01*
X169746443Y-71974466D01*
X169662778Y-72130991D01*
X169633448Y-72166729D01*
X169550186Y-72268186D01*
X169448729Y-72351448D01*
X169412991Y-72380778D01*
X169256466Y-72464443D01*
X169086627Y-72515963D01*
X169020442Y-72522482D01*
X168954260Y-72529000D01*
X168865740Y-72529000D01*
X168799558Y-72522482D01*
X168733373Y-72515963D01*
X168563534Y-72464443D01*
X168407009Y-72380778D01*
X168371271Y-72351448D01*
X168269814Y-72268186D01*
X168186552Y-72166729D01*
X168157222Y-72130991D01*
X168073557Y-71974466D01*
X168022037Y-71804627D01*
X168004641Y-71628000D01*
X168022037Y-71451373D01*
X168073557Y-71281534D01*
X168157222Y-71125009D01*
X168186552Y-71089271D01*
X168269814Y-70987814D01*
X168371271Y-70904552D01*
X168407009Y-70875222D01*
X168563534Y-70791557D01*
X168733373Y-70740037D01*
X168799558Y-70733518D01*
X168865740Y-70727000D01*
X168954260Y-70727000D01*
X169020442Y-70733518D01*
X169020442Y-70733518D01*
G37*
G36*
X167271000Y-72529000D02*
G01*
X165469000Y-72529000D01*
X165469000Y-70727000D01*
X167271000Y-70727000D01*
X167271000Y-72529000D01*
X167271000Y-72529000D01*
G37*
G36*
X176640442Y-70733518D02*
G01*
X176706627Y-70740037D01*
X176876466Y-70791557D01*
X177032991Y-70875222D01*
X177068729Y-70904552D01*
X177170186Y-70987814D01*
X177253448Y-71089271D01*
X177282778Y-71125009D01*
X177366443Y-71281534D01*
X177417963Y-71451373D01*
X177435359Y-71628000D01*
X177417963Y-71804627D01*
X177366443Y-71974466D01*
X177282778Y-72130991D01*
X177253448Y-72166729D01*
X177170186Y-72268186D01*
X177068729Y-72351448D01*
X177032991Y-72380778D01*
X176876466Y-72464443D01*
X176706627Y-72515963D01*
X176640442Y-72522482D01*
X176574260Y-72529000D01*
X176485740Y-72529000D01*
X176419558Y-72522482D01*
X176353373Y-72515963D01*
X176183534Y-72464443D01*
X176027009Y-72380778D01*
X175991271Y-72351448D01*
X175889814Y-72268186D01*
X175806552Y-72166729D01*
X175777222Y-72130991D01*
X175693557Y-71974466D01*
X175642037Y-71804627D01*
X175624641Y-71628000D01*
X175642037Y-71451373D01*
X175693557Y-71281534D01*
X175777222Y-71125009D01*
X175806552Y-71089271D01*
X175889814Y-70987814D01*
X175991271Y-70904552D01*
X176027009Y-70875222D01*
X176183534Y-70791557D01*
X176353373Y-70740037D01*
X176419558Y-70733518D01*
X176485740Y-70727000D01*
X176574260Y-70727000D01*
X176640442Y-70733518D01*
X176640442Y-70733518D01*
G37*
G36*
X179180442Y-70733518D02*
G01*
X179246627Y-70740037D01*
X179416466Y-70791557D01*
X179572991Y-70875222D01*
X179608729Y-70904552D01*
X179710186Y-70987814D01*
X179793448Y-71089271D01*
X179822778Y-71125009D01*
X179906443Y-71281534D01*
X179957963Y-71451373D01*
X179975359Y-71628000D01*
X179957963Y-71804627D01*
X179906443Y-71974466D01*
X179822778Y-72130991D01*
X179793448Y-72166729D01*
X179710186Y-72268186D01*
X179608729Y-72351448D01*
X179572991Y-72380778D01*
X179416466Y-72464443D01*
X179246627Y-72515963D01*
X179180442Y-72522482D01*
X179114260Y-72529000D01*
X179025740Y-72529000D01*
X178959558Y-72522482D01*
X178893373Y-72515963D01*
X178723534Y-72464443D01*
X178567009Y-72380778D01*
X178531271Y-72351448D01*
X178429814Y-72268186D01*
X178346552Y-72166729D01*
X178317222Y-72130991D01*
X178233557Y-71974466D01*
X178182037Y-71804627D01*
X178164641Y-71628000D01*
X178182037Y-71451373D01*
X178233557Y-71281534D01*
X178317222Y-71125009D01*
X178346552Y-71089271D01*
X178429814Y-70987814D01*
X178531271Y-70904552D01*
X178567009Y-70875222D01*
X178723534Y-70791557D01*
X178893373Y-70740037D01*
X178959558Y-70733518D01*
X179025740Y-70727000D01*
X179114260Y-70727000D01*
X179180442Y-70733518D01*
X179180442Y-70733518D01*
G37*
G36*
X181720442Y-70733518D02*
G01*
X181786627Y-70740037D01*
X181956466Y-70791557D01*
X182112991Y-70875222D01*
X182148729Y-70904552D01*
X182250186Y-70987814D01*
X182333448Y-71089271D01*
X182362778Y-71125009D01*
X182446443Y-71281534D01*
X182497963Y-71451373D01*
X182515359Y-71628000D01*
X182497963Y-71804627D01*
X182446443Y-71974466D01*
X182362778Y-72130991D01*
X182333448Y-72166729D01*
X182250186Y-72268186D01*
X182148729Y-72351448D01*
X182112991Y-72380778D01*
X181956466Y-72464443D01*
X181786627Y-72515963D01*
X181720442Y-72522482D01*
X181654260Y-72529000D01*
X181565740Y-72529000D01*
X181499558Y-72522482D01*
X181433373Y-72515963D01*
X181263534Y-72464443D01*
X181107009Y-72380778D01*
X181071271Y-72351448D01*
X180969814Y-72268186D01*
X180886552Y-72166729D01*
X180857222Y-72130991D01*
X180773557Y-71974466D01*
X180722037Y-71804627D01*
X180704641Y-71628000D01*
X180722037Y-71451373D01*
X180773557Y-71281534D01*
X180857222Y-71125009D01*
X180886552Y-71089271D01*
X180969814Y-70987814D01*
X181071271Y-70904552D01*
X181107009Y-70875222D01*
X181263534Y-70791557D01*
X181433373Y-70740037D01*
X181499558Y-70733518D01*
X181565740Y-70727000D01*
X181654260Y-70727000D01*
X181720442Y-70733518D01*
X181720442Y-70733518D01*
G37*
G36*
X174100442Y-70733518D02*
G01*
X174166627Y-70740037D01*
X174336466Y-70791557D01*
X174492991Y-70875222D01*
X174528729Y-70904552D01*
X174630186Y-70987814D01*
X174713448Y-71089271D01*
X174742778Y-71125009D01*
X174826443Y-71281534D01*
X174877963Y-71451373D01*
X174895359Y-71628000D01*
X174877963Y-71804627D01*
X174826443Y-71974466D01*
X174742778Y-72130991D01*
X174713448Y-72166729D01*
X174630186Y-72268186D01*
X174528729Y-72351448D01*
X174492991Y-72380778D01*
X174336466Y-72464443D01*
X174166627Y-72515963D01*
X174100442Y-72522482D01*
X174034260Y-72529000D01*
X173945740Y-72529000D01*
X173879558Y-72522482D01*
X173813373Y-72515963D01*
X173643534Y-72464443D01*
X173487009Y-72380778D01*
X173451271Y-72351448D01*
X173349814Y-72268186D01*
X173266552Y-72166729D01*
X173237222Y-72130991D01*
X173153557Y-71974466D01*
X173102037Y-71804627D01*
X173084641Y-71628000D01*
X173102037Y-71451373D01*
X173153557Y-71281534D01*
X173237222Y-71125009D01*
X173266552Y-71089271D01*
X173349814Y-70987814D01*
X173451271Y-70904552D01*
X173487009Y-70875222D01*
X173643534Y-70791557D01*
X173813373Y-70740037D01*
X173879558Y-70733518D01*
X173945740Y-70727000D01*
X174034260Y-70727000D01*
X174100442Y-70733518D01*
X174100442Y-70733518D01*
G37*
G36*
X87740442Y-70225518D02*
G01*
X87806627Y-70232037D01*
X87976466Y-70283557D01*
X88132991Y-70367222D01*
X88163768Y-70392480D01*
X88270186Y-70479814D01*
X88353448Y-70581271D01*
X88382778Y-70617009D01*
X88466443Y-70773534D01*
X88517963Y-70943373D01*
X88535359Y-71120000D01*
X88517963Y-71296627D01*
X88466443Y-71466466D01*
X88382778Y-71622991D01*
X88378667Y-71628000D01*
X88270186Y-71760186D01*
X88168729Y-71843448D01*
X88132991Y-71872778D01*
X87976466Y-71956443D01*
X87806627Y-72007963D01*
X87740443Y-72014481D01*
X87674260Y-72021000D01*
X87585740Y-72021000D01*
X87519557Y-72014481D01*
X87453373Y-72007963D01*
X87283534Y-71956443D01*
X87127009Y-71872778D01*
X87091271Y-71843448D01*
X86989814Y-71760186D01*
X86881333Y-71628000D01*
X86877222Y-71622991D01*
X86793557Y-71466466D01*
X86742037Y-71296627D01*
X86724641Y-71120000D01*
X86742037Y-70943373D01*
X86793557Y-70773534D01*
X86877222Y-70617009D01*
X86906552Y-70581271D01*
X86989814Y-70479814D01*
X87096232Y-70392480D01*
X87127009Y-70367222D01*
X87283534Y-70283557D01*
X87453373Y-70232037D01*
X87519558Y-70225518D01*
X87585740Y-70219000D01*
X87674260Y-70219000D01*
X87740442Y-70225518D01*
X87740442Y-70225518D01*
G37*
G36*
X130695000Y-72021000D02*
G01*
X128893000Y-72021000D01*
X128893000Y-70219000D01*
X130695000Y-70219000D01*
X130695000Y-72021000D01*
X130695000Y-72021000D01*
G37*
G36*
X132444442Y-70225518D02*
G01*
X132510627Y-70232037D01*
X132680466Y-70283557D01*
X132836991Y-70367222D01*
X132867768Y-70392480D01*
X132974186Y-70479814D01*
X133057448Y-70581271D01*
X133086778Y-70617009D01*
X133170443Y-70773534D01*
X133221963Y-70943373D01*
X133239359Y-71120000D01*
X133221963Y-71296627D01*
X133170443Y-71466466D01*
X133086778Y-71622991D01*
X133082667Y-71628000D01*
X132974186Y-71760186D01*
X132872729Y-71843448D01*
X132836991Y-71872778D01*
X132680466Y-71956443D01*
X132510627Y-72007963D01*
X132444443Y-72014481D01*
X132378260Y-72021000D01*
X132289740Y-72021000D01*
X132223557Y-72014481D01*
X132157373Y-72007963D01*
X131987534Y-71956443D01*
X131831009Y-71872778D01*
X131795271Y-71843448D01*
X131693814Y-71760186D01*
X131585333Y-71628000D01*
X131581222Y-71622991D01*
X131497557Y-71466466D01*
X131446037Y-71296627D01*
X131428641Y-71120000D01*
X131446037Y-70943373D01*
X131497557Y-70773534D01*
X131581222Y-70617009D01*
X131610552Y-70581271D01*
X131693814Y-70479814D01*
X131800232Y-70392480D01*
X131831009Y-70367222D01*
X131987534Y-70283557D01*
X132157373Y-70232037D01*
X132223558Y-70225518D01*
X132289740Y-70219000D01*
X132378260Y-70219000D01*
X132444442Y-70225518D01*
X132444442Y-70225518D01*
G37*
G36*
X85991000Y-72021000D02*
G01*
X84189000Y-72021000D01*
X84189000Y-70219000D01*
X85991000Y-70219000D01*
X85991000Y-72021000D01*
X85991000Y-72021000D01*
G37*
G36*
X90280442Y-70225518D02*
G01*
X90346627Y-70232037D01*
X90516466Y-70283557D01*
X90672991Y-70367222D01*
X90703768Y-70392480D01*
X90810186Y-70479814D01*
X90893448Y-70581271D01*
X90922778Y-70617009D01*
X91006443Y-70773534D01*
X91057963Y-70943373D01*
X91075359Y-71120000D01*
X91057963Y-71296627D01*
X91006443Y-71466466D01*
X90922778Y-71622991D01*
X90918667Y-71628000D01*
X90810186Y-71760186D01*
X90708729Y-71843448D01*
X90672991Y-71872778D01*
X90516466Y-71956443D01*
X90346627Y-72007963D01*
X90280443Y-72014481D01*
X90214260Y-72021000D01*
X90125740Y-72021000D01*
X90059557Y-72014481D01*
X89993373Y-72007963D01*
X89823534Y-71956443D01*
X89667009Y-71872778D01*
X89631271Y-71843448D01*
X89529814Y-71760186D01*
X89421333Y-71628000D01*
X89417222Y-71622991D01*
X89333557Y-71466466D01*
X89282037Y-71296627D01*
X89264641Y-71120000D01*
X89282037Y-70943373D01*
X89333557Y-70773534D01*
X89417222Y-70617009D01*
X89446552Y-70581271D01*
X89529814Y-70479814D01*
X89636232Y-70392480D01*
X89667009Y-70367222D01*
X89823534Y-70283557D01*
X89993373Y-70232037D01*
X90059558Y-70225518D01*
X90125740Y-70219000D01*
X90214260Y-70219000D01*
X90280442Y-70225518D01*
X90280442Y-70225518D01*
G37*
G36*
X92820442Y-70225518D02*
G01*
X92886627Y-70232037D01*
X93056466Y-70283557D01*
X93212991Y-70367222D01*
X93243768Y-70392480D01*
X93350186Y-70479814D01*
X93433448Y-70581271D01*
X93462778Y-70617009D01*
X93546443Y-70773534D01*
X93597963Y-70943373D01*
X93615359Y-71120000D01*
X93597963Y-71296627D01*
X93546443Y-71466466D01*
X93462778Y-71622991D01*
X93458667Y-71628000D01*
X93350186Y-71760186D01*
X93248729Y-71843448D01*
X93212991Y-71872778D01*
X93056466Y-71956443D01*
X92886627Y-72007963D01*
X92820443Y-72014481D01*
X92754260Y-72021000D01*
X92665740Y-72021000D01*
X92599557Y-72014481D01*
X92533373Y-72007963D01*
X92363534Y-71956443D01*
X92207009Y-71872778D01*
X92171271Y-71843448D01*
X92069814Y-71760186D01*
X91961333Y-71628000D01*
X91957222Y-71622991D01*
X91873557Y-71466466D01*
X91822037Y-71296627D01*
X91804641Y-71120000D01*
X91822037Y-70943373D01*
X91873557Y-70773534D01*
X91957222Y-70617009D01*
X91986552Y-70581271D01*
X92069814Y-70479814D01*
X92176232Y-70392480D01*
X92207009Y-70367222D01*
X92363534Y-70283557D01*
X92533373Y-70232037D01*
X92599558Y-70225518D01*
X92665740Y-70219000D01*
X92754260Y-70219000D01*
X92820442Y-70225518D01*
X92820442Y-70225518D01*
G37*
G36*
X95360442Y-70225518D02*
G01*
X95426627Y-70232037D01*
X95596466Y-70283557D01*
X95752991Y-70367222D01*
X95783768Y-70392480D01*
X95890186Y-70479814D01*
X95973448Y-70581271D01*
X96002778Y-70617009D01*
X96086443Y-70773534D01*
X96137963Y-70943373D01*
X96155359Y-71120000D01*
X96137963Y-71296627D01*
X96086443Y-71466466D01*
X96002778Y-71622991D01*
X95998667Y-71628000D01*
X95890186Y-71760186D01*
X95788729Y-71843448D01*
X95752991Y-71872778D01*
X95596466Y-71956443D01*
X95426627Y-72007963D01*
X95360443Y-72014481D01*
X95294260Y-72021000D01*
X95205740Y-72021000D01*
X95139557Y-72014481D01*
X95073373Y-72007963D01*
X94903534Y-71956443D01*
X94747009Y-71872778D01*
X94711271Y-71843448D01*
X94609814Y-71760186D01*
X94501333Y-71628000D01*
X94497222Y-71622991D01*
X94413557Y-71466466D01*
X94362037Y-71296627D01*
X94344641Y-71120000D01*
X94362037Y-70943373D01*
X94413557Y-70773534D01*
X94497222Y-70617009D01*
X94526552Y-70581271D01*
X94609814Y-70479814D01*
X94716232Y-70392480D01*
X94747009Y-70367222D01*
X94903534Y-70283557D01*
X95073373Y-70232037D01*
X95139558Y-70225518D01*
X95205740Y-70219000D01*
X95294260Y-70219000D01*
X95360442Y-70225518D01*
X95360442Y-70225518D01*
G37*
G36*
X97900442Y-70225518D02*
G01*
X97966627Y-70232037D01*
X98136466Y-70283557D01*
X98292991Y-70367222D01*
X98323768Y-70392480D01*
X98430186Y-70479814D01*
X98513448Y-70581271D01*
X98542778Y-70617009D01*
X98626443Y-70773534D01*
X98677963Y-70943373D01*
X98695359Y-71120000D01*
X98677963Y-71296627D01*
X98626443Y-71466466D01*
X98542778Y-71622991D01*
X98538667Y-71628000D01*
X98430186Y-71760186D01*
X98328729Y-71843448D01*
X98292991Y-71872778D01*
X98136466Y-71956443D01*
X97966627Y-72007963D01*
X97900443Y-72014481D01*
X97834260Y-72021000D01*
X97745740Y-72021000D01*
X97679557Y-72014481D01*
X97613373Y-72007963D01*
X97443534Y-71956443D01*
X97287009Y-71872778D01*
X97251271Y-71843448D01*
X97149814Y-71760186D01*
X97041333Y-71628000D01*
X97037222Y-71622991D01*
X96953557Y-71466466D01*
X96902037Y-71296627D01*
X96884641Y-71120000D01*
X96902037Y-70943373D01*
X96953557Y-70773534D01*
X97037222Y-70617009D01*
X97066552Y-70581271D01*
X97149814Y-70479814D01*
X97256232Y-70392480D01*
X97287009Y-70367222D01*
X97443534Y-70283557D01*
X97613373Y-70232037D01*
X97679558Y-70225518D01*
X97745740Y-70219000D01*
X97834260Y-70219000D01*
X97900442Y-70225518D01*
X97900442Y-70225518D01*
G37*
G36*
X100440442Y-70225518D02*
G01*
X100506627Y-70232037D01*
X100676466Y-70283557D01*
X100832991Y-70367222D01*
X100863768Y-70392480D01*
X100970186Y-70479814D01*
X101053448Y-70581271D01*
X101082778Y-70617009D01*
X101166443Y-70773534D01*
X101217963Y-70943373D01*
X101235359Y-71120000D01*
X101217963Y-71296627D01*
X101166443Y-71466466D01*
X101082778Y-71622991D01*
X101078667Y-71628000D01*
X100970186Y-71760186D01*
X100868729Y-71843448D01*
X100832991Y-71872778D01*
X100676466Y-71956443D01*
X100506627Y-72007963D01*
X100440443Y-72014481D01*
X100374260Y-72021000D01*
X100285740Y-72021000D01*
X100219557Y-72014481D01*
X100153373Y-72007963D01*
X99983534Y-71956443D01*
X99827009Y-71872778D01*
X99791271Y-71843448D01*
X99689814Y-71760186D01*
X99581333Y-71628000D01*
X99577222Y-71622991D01*
X99493557Y-71466466D01*
X99442037Y-71296627D01*
X99424641Y-71120000D01*
X99442037Y-70943373D01*
X99493557Y-70773534D01*
X99577222Y-70617009D01*
X99606552Y-70581271D01*
X99689814Y-70479814D01*
X99796232Y-70392480D01*
X99827009Y-70367222D01*
X99983534Y-70283557D01*
X100153373Y-70232037D01*
X100219558Y-70225518D01*
X100285740Y-70219000D01*
X100374260Y-70219000D01*
X100440442Y-70225518D01*
X100440442Y-70225518D01*
G37*
G36*
X102980442Y-70225518D02*
G01*
X103046627Y-70232037D01*
X103216466Y-70283557D01*
X103372991Y-70367222D01*
X103403768Y-70392480D01*
X103510186Y-70479814D01*
X103593448Y-70581271D01*
X103622778Y-70617009D01*
X103706443Y-70773534D01*
X103757963Y-70943373D01*
X103775359Y-71120000D01*
X103757963Y-71296627D01*
X103706443Y-71466466D01*
X103622778Y-71622991D01*
X103618667Y-71628000D01*
X103510186Y-71760186D01*
X103408729Y-71843448D01*
X103372991Y-71872778D01*
X103216466Y-71956443D01*
X103046627Y-72007963D01*
X102980443Y-72014481D01*
X102914260Y-72021000D01*
X102825740Y-72021000D01*
X102759557Y-72014481D01*
X102693373Y-72007963D01*
X102523534Y-71956443D01*
X102367009Y-71872778D01*
X102331271Y-71843448D01*
X102229814Y-71760186D01*
X102121333Y-71628000D01*
X102117222Y-71622991D01*
X102033557Y-71466466D01*
X101982037Y-71296627D01*
X101964641Y-71120000D01*
X101982037Y-70943373D01*
X102033557Y-70773534D01*
X102117222Y-70617009D01*
X102146552Y-70581271D01*
X102229814Y-70479814D01*
X102336232Y-70392480D01*
X102367009Y-70367222D01*
X102523534Y-70283557D01*
X102693373Y-70232037D01*
X102759558Y-70225518D01*
X102825740Y-70219000D01*
X102914260Y-70219000D01*
X102980442Y-70225518D01*
X102980442Y-70225518D01*
G37*
G36*
X142887000Y-72021000D02*
G01*
X141085000Y-72021000D01*
X141085000Y-70219000D01*
X142887000Y-70219000D01*
X142887000Y-72021000D01*
X142887000Y-72021000D01*
G37*
G36*
X108960228Y-69031703D02*
G01*
X109115100Y-69095853D01*
X109254481Y-69188985D01*
X109373015Y-69307519D01*
X109466147Y-69446900D01*
X109530297Y-69601772D01*
X109563000Y-69766184D01*
X109563000Y-69933816D01*
X109530297Y-70098228D01*
X109466147Y-70253100D01*
X109373015Y-70392481D01*
X109254481Y-70511015D01*
X109115100Y-70604147D01*
X108960228Y-70668297D01*
X108795816Y-70701000D01*
X108628184Y-70701000D01*
X108463772Y-70668297D01*
X108308900Y-70604147D01*
X108169519Y-70511015D01*
X108050985Y-70392481D01*
X107957853Y-70253100D01*
X107893703Y-70098228D01*
X107861000Y-69933816D01*
X107861000Y-69766184D01*
X107893703Y-69601772D01*
X107957853Y-69446900D01*
X108050985Y-69307519D01*
X108169519Y-69188985D01*
X108308900Y-69095853D01*
X108463772Y-69031703D01*
X108628184Y-68999000D01*
X108795816Y-68999000D01*
X108960228Y-69031703D01*
X108960228Y-69031703D01*
G37*
G36*
X113960228Y-69031703D02*
G01*
X114115100Y-69095853D01*
X114254481Y-69188985D01*
X114373015Y-69307519D01*
X114466147Y-69446900D01*
X114530297Y-69601772D01*
X114563000Y-69766184D01*
X114563000Y-69933816D01*
X114530297Y-70098228D01*
X114466147Y-70253100D01*
X114373015Y-70392481D01*
X114254481Y-70511015D01*
X114115100Y-70604147D01*
X113960228Y-70668297D01*
X113795816Y-70701000D01*
X113628184Y-70701000D01*
X113463772Y-70668297D01*
X113308900Y-70604147D01*
X113169519Y-70511015D01*
X113050985Y-70392481D01*
X112957853Y-70253100D01*
X112893703Y-70098228D01*
X112861000Y-69933816D01*
X112861000Y-69766184D01*
X112893703Y-69601772D01*
X112957853Y-69446900D01*
X113050985Y-69307519D01*
X113169519Y-69188985D01*
X113308900Y-69095853D01*
X113463772Y-69031703D01*
X113628184Y-68999000D01*
X113795816Y-68999000D01*
X113960228Y-69031703D01*
X113960228Y-69031703D01*
G37*
G36*
X117596228Y-69031703D02*
G01*
X117751100Y-69095853D01*
X117890481Y-69188985D01*
X118009015Y-69307519D01*
X118102147Y-69446900D01*
X118166297Y-69601772D01*
X118199000Y-69766184D01*
X118199000Y-69933816D01*
X118166297Y-70098228D01*
X118102147Y-70253100D01*
X118009015Y-70392481D01*
X117890481Y-70511015D01*
X117751100Y-70604147D01*
X117596228Y-70668297D01*
X117431816Y-70701000D01*
X117264184Y-70701000D01*
X117099772Y-70668297D01*
X116944900Y-70604147D01*
X116805519Y-70511015D01*
X116686985Y-70392481D01*
X116593853Y-70253100D01*
X116529703Y-70098228D01*
X116497000Y-69933816D01*
X116497000Y-69766184D01*
X116529703Y-69601772D01*
X116593853Y-69446900D01*
X116686985Y-69307519D01*
X116805519Y-69188985D01*
X116944900Y-69095853D01*
X117099772Y-69031703D01*
X117264184Y-68999000D01*
X117431816Y-68999000D01*
X117596228Y-69031703D01*
X117596228Y-69031703D01*
G37*
G36*
X122596228Y-69031703D02*
G01*
X122751100Y-69095853D01*
X122890481Y-69188985D01*
X123009015Y-69307519D01*
X123102147Y-69446900D01*
X123166297Y-69601772D01*
X123199000Y-69766184D01*
X123199000Y-69933816D01*
X123166297Y-70098228D01*
X123102147Y-70253100D01*
X123009015Y-70392481D01*
X122890481Y-70511015D01*
X122751100Y-70604147D01*
X122596228Y-70668297D01*
X122431816Y-70701000D01*
X122264184Y-70701000D01*
X122099772Y-70668297D01*
X121944900Y-70604147D01*
X121805519Y-70511015D01*
X121686985Y-70392481D01*
X121593853Y-70253100D01*
X121529703Y-70098228D01*
X121497000Y-69933816D01*
X121497000Y-69766184D01*
X121529703Y-69601772D01*
X121593853Y-69446900D01*
X121686985Y-69307519D01*
X121805519Y-69188985D01*
X121944900Y-69095853D01*
X122099772Y-69031703D01*
X122264184Y-68999000D01*
X122431816Y-68999000D01*
X122596228Y-69031703D01*
X122596228Y-69031703D01*
G37*
G36*
X184260443Y-68193519D02*
G01*
X184326627Y-68200037D01*
X184496466Y-68251557D01*
X184652991Y-68335222D01*
X184688729Y-68364552D01*
X184790186Y-68447814D01*
X184873448Y-68549271D01*
X184902778Y-68585009D01*
X184986443Y-68741534D01*
X185037963Y-68911373D01*
X185055359Y-69088000D01*
X185037963Y-69264627D01*
X184986443Y-69434466D01*
X184902778Y-69590991D01*
X184893931Y-69601771D01*
X184790186Y-69728186D01*
X184688729Y-69811448D01*
X184652991Y-69840778D01*
X184496466Y-69924443D01*
X184326627Y-69975963D01*
X184260443Y-69982481D01*
X184194260Y-69989000D01*
X184105740Y-69989000D01*
X184039557Y-69982481D01*
X183973373Y-69975963D01*
X183803534Y-69924443D01*
X183647009Y-69840778D01*
X183611271Y-69811448D01*
X183509814Y-69728186D01*
X183406069Y-69601771D01*
X183397222Y-69590991D01*
X183313557Y-69434466D01*
X183262037Y-69264627D01*
X183244641Y-69088000D01*
X183262037Y-68911373D01*
X183313557Y-68741534D01*
X183397222Y-68585009D01*
X183426552Y-68549271D01*
X183509814Y-68447814D01*
X183611271Y-68364552D01*
X183647009Y-68335222D01*
X183803534Y-68251557D01*
X183973373Y-68200037D01*
X184039557Y-68193519D01*
X184105740Y-68187000D01*
X184194260Y-68187000D01*
X184260443Y-68193519D01*
X184260443Y-68193519D01*
G37*
G36*
X181720443Y-68193519D02*
G01*
X181786627Y-68200037D01*
X181956466Y-68251557D01*
X182112991Y-68335222D01*
X182148729Y-68364552D01*
X182250186Y-68447814D01*
X182333448Y-68549271D01*
X182362778Y-68585009D01*
X182446443Y-68741534D01*
X182497963Y-68911373D01*
X182515359Y-69088000D01*
X182497963Y-69264627D01*
X182446443Y-69434466D01*
X182362778Y-69590991D01*
X182353931Y-69601771D01*
X182250186Y-69728186D01*
X182148729Y-69811448D01*
X182112991Y-69840778D01*
X181956466Y-69924443D01*
X181786627Y-69975963D01*
X181720443Y-69982481D01*
X181654260Y-69989000D01*
X181565740Y-69989000D01*
X181499557Y-69982481D01*
X181433373Y-69975963D01*
X181263534Y-69924443D01*
X181107009Y-69840778D01*
X181071271Y-69811448D01*
X180969814Y-69728186D01*
X180866069Y-69601771D01*
X180857222Y-69590991D01*
X180773557Y-69434466D01*
X180722037Y-69264627D01*
X180704641Y-69088000D01*
X180722037Y-68911373D01*
X180773557Y-68741534D01*
X180857222Y-68585009D01*
X180886552Y-68549271D01*
X180969814Y-68447814D01*
X181071271Y-68364552D01*
X181107009Y-68335222D01*
X181263534Y-68251557D01*
X181433373Y-68200037D01*
X181499557Y-68193519D01*
X181565740Y-68187000D01*
X181654260Y-68187000D01*
X181720443Y-68193519D01*
X181720443Y-68193519D01*
G37*
G36*
X169020443Y-68193519D02*
G01*
X169086627Y-68200037D01*
X169256466Y-68251557D01*
X169412991Y-68335222D01*
X169448729Y-68364552D01*
X169550186Y-68447814D01*
X169633448Y-68549271D01*
X169662778Y-68585009D01*
X169746443Y-68741534D01*
X169797963Y-68911373D01*
X169815359Y-69088000D01*
X169797963Y-69264627D01*
X169746443Y-69434466D01*
X169662778Y-69590991D01*
X169653931Y-69601771D01*
X169550186Y-69728186D01*
X169448729Y-69811448D01*
X169412991Y-69840778D01*
X169256466Y-69924443D01*
X169086627Y-69975963D01*
X169020443Y-69982481D01*
X168954260Y-69989000D01*
X168865740Y-69989000D01*
X168799557Y-69982481D01*
X168733373Y-69975963D01*
X168563534Y-69924443D01*
X168407009Y-69840778D01*
X168371271Y-69811448D01*
X168269814Y-69728186D01*
X168166069Y-69601771D01*
X168157222Y-69590991D01*
X168073557Y-69434466D01*
X168022037Y-69264627D01*
X168004641Y-69088000D01*
X168022037Y-68911373D01*
X168073557Y-68741534D01*
X168157222Y-68585009D01*
X168186552Y-68549271D01*
X168269814Y-68447814D01*
X168371271Y-68364552D01*
X168407009Y-68335222D01*
X168563534Y-68251557D01*
X168733373Y-68200037D01*
X168799557Y-68193519D01*
X168865740Y-68187000D01*
X168954260Y-68187000D01*
X169020443Y-68193519D01*
X169020443Y-68193519D01*
G37*
G36*
X174100443Y-68193519D02*
G01*
X174166627Y-68200037D01*
X174336466Y-68251557D01*
X174492991Y-68335222D01*
X174528729Y-68364552D01*
X174630186Y-68447814D01*
X174713448Y-68549271D01*
X174742778Y-68585009D01*
X174826443Y-68741534D01*
X174877963Y-68911373D01*
X174895359Y-69088000D01*
X174877963Y-69264627D01*
X174826443Y-69434466D01*
X174742778Y-69590991D01*
X174733931Y-69601771D01*
X174630186Y-69728186D01*
X174528729Y-69811448D01*
X174492991Y-69840778D01*
X174336466Y-69924443D01*
X174166627Y-69975963D01*
X174100443Y-69982481D01*
X174034260Y-69989000D01*
X173945740Y-69989000D01*
X173879557Y-69982481D01*
X173813373Y-69975963D01*
X173643534Y-69924443D01*
X173487009Y-69840778D01*
X173451271Y-69811448D01*
X173349814Y-69728186D01*
X173246069Y-69601771D01*
X173237222Y-69590991D01*
X173153557Y-69434466D01*
X173102037Y-69264627D01*
X173084641Y-69088000D01*
X173102037Y-68911373D01*
X173153557Y-68741534D01*
X173237222Y-68585009D01*
X173266552Y-68549271D01*
X173349814Y-68447814D01*
X173451271Y-68364552D01*
X173487009Y-68335222D01*
X173643534Y-68251557D01*
X173813373Y-68200037D01*
X173879557Y-68193519D01*
X173945740Y-68187000D01*
X174034260Y-68187000D01*
X174100443Y-68193519D01*
X174100443Y-68193519D01*
G37*
G36*
X166480443Y-68193519D02*
G01*
X166546627Y-68200037D01*
X166716466Y-68251557D01*
X166872991Y-68335222D01*
X166908729Y-68364552D01*
X167010186Y-68447814D01*
X167093448Y-68549271D01*
X167122778Y-68585009D01*
X167206443Y-68741534D01*
X167257963Y-68911373D01*
X167275359Y-69088000D01*
X167257963Y-69264627D01*
X167206443Y-69434466D01*
X167122778Y-69590991D01*
X167113931Y-69601771D01*
X167010186Y-69728186D01*
X166908729Y-69811448D01*
X166872991Y-69840778D01*
X166716466Y-69924443D01*
X166546627Y-69975963D01*
X166480443Y-69982481D01*
X166414260Y-69989000D01*
X166325740Y-69989000D01*
X166259557Y-69982481D01*
X166193373Y-69975963D01*
X166023534Y-69924443D01*
X165867009Y-69840778D01*
X165831271Y-69811448D01*
X165729814Y-69728186D01*
X165626069Y-69601771D01*
X165617222Y-69590991D01*
X165533557Y-69434466D01*
X165482037Y-69264627D01*
X165464641Y-69088000D01*
X165482037Y-68911373D01*
X165533557Y-68741534D01*
X165617222Y-68585009D01*
X165646552Y-68549271D01*
X165729814Y-68447814D01*
X165831271Y-68364552D01*
X165867009Y-68335222D01*
X166023534Y-68251557D01*
X166193373Y-68200037D01*
X166259557Y-68193519D01*
X166325740Y-68187000D01*
X166414260Y-68187000D01*
X166480443Y-68193519D01*
X166480443Y-68193519D01*
G37*
G36*
X179180443Y-68193519D02*
G01*
X179246627Y-68200037D01*
X179416466Y-68251557D01*
X179572991Y-68335222D01*
X179608729Y-68364552D01*
X179710186Y-68447814D01*
X179793448Y-68549271D01*
X179822778Y-68585009D01*
X179906443Y-68741534D01*
X179957963Y-68911373D01*
X179975359Y-69088000D01*
X179957963Y-69264627D01*
X179906443Y-69434466D01*
X179822778Y-69590991D01*
X179813931Y-69601771D01*
X179710186Y-69728186D01*
X179608729Y-69811448D01*
X179572991Y-69840778D01*
X179416466Y-69924443D01*
X179246627Y-69975963D01*
X179180443Y-69982481D01*
X179114260Y-69989000D01*
X179025740Y-69989000D01*
X178959557Y-69982481D01*
X178893373Y-69975963D01*
X178723534Y-69924443D01*
X178567009Y-69840778D01*
X178531271Y-69811448D01*
X178429814Y-69728186D01*
X178326069Y-69601771D01*
X178317222Y-69590991D01*
X178233557Y-69434466D01*
X178182037Y-69264627D01*
X178164641Y-69088000D01*
X178182037Y-68911373D01*
X178233557Y-68741534D01*
X178317222Y-68585009D01*
X178346552Y-68549271D01*
X178429814Y-68447814D01*
X178531271Y-68364552D01*
X178567009Y-68335222D01*
X178723534Y-68251557D01*
X178893373Y-68200037D01*
X178959557Y-68193519D01*
X179025740Y-68187000D01*
X179114260Y-68187000D01*
X179180443Y-68193519D01*
X179180443Y-68193519D01*
G37*
G36*
X171560443Y-68193519D02*
G01*
X171626627Y-68200037D01*
X171796466Y-68251557D01*
X171952991Y-68335222D01*
X171988729Y-68364552D01*
X172090186Y-68447814D01*
X172173448Y-68549271D01*
X172202778Y-68585009D01*
X172286443Y-68741534D01*
X172337963Y-68911373D01*
X172355359Y-69088000D01*
X172337963Y-69264627D01*
X172286443Y-69434466D01*
X172202778Y-69590991D01*
X172193931Y-69601771D01*
X172090186Y-69728186D01*
X171988729Y-69811448D01*
X171952991Y-69840778D01*
X171796466Y-69924443D01*
X171626627Y-69975963D01*
X171560443Y-69982481D01*
X171494260Y-69989000D01*
X171405740Y-69989000D01*
X171339557Y-69982481D01*
X171273373Y-69975963D01*
X171103534Y-69924443D01*
X170947009Y-69840778D01*
X170911271Y-69811448D01*
X170809814Y-69728186D01*
X170706069Y-69601771D01*
X170697222Y-69590991D01*
X170613557Y-69434466D01*
X170562037Y-69264627D01*
X170544641Y-69088000D01*
X170562037Y-68911373D01*
X170613557Y-68741534D01*
X170697222Y-68585009D01*
X170726552Y-68549271D01*
X170809814Y-68447814D01*
X170911271Y-68364552D01*
X170947009Y-68335222D01*
X171103534Y-68251557D01*
X171273373Y-68200037D01*
X171339557Y-68193519D01*
X171405740Y-68187000D01*
X171494260Y-68187000D01*
X171560443Y-68193519D01*
X171560443Y-68193519D01*
G37*
G36*
X176640443Y-68193519D02*
G01*
X176706627Y-68200037D01*
X176876466Y-68251557D01*
X177032991Y-68335222D01*
X177068729Y-68364552D01*
X177170186Y-68447814D01*
X177253448Y-68549271D01*
X177282778Y-68585009D01*
X177366443Y-68741534D01*
X177417963Y-68911373D01*
X177435359Y-69088000D01*
X177417963Y-69264627D01*
X177366443Y-69434466D01*
X177282778Y-69590991D01*
X177273931Y-69601771D01*
X177170186Y-69728186D01*
X177068729Y-69811448D01*
X177032991Y-69840778D01*
X176876466Y-69924443D01*
X176706627Y-69975963D01*
X176640443Y-69982481D01*
X176574260Y-69989000D01*
X176485740Y-69989000D01*
X176419557Y-69982481D01*
X176353373Y-69975963D01*
X176183534Y-69924443D01*
X176027009Y-69840778D01*
X175991271Y-69811448D01*
X175889814Y-69728186D01*
X175786069Y-69601771D01*
X175777222Y-69590991D01*
X175693557Y-69434466D01*
X175642037Y-69264627D01*
X175624641Y-69088000D01*
X175642037Y-68911373D01*
X175693557Y-68741534D01*
X175777222Y-68585009D01*
X175806552Y-68549271D01*
X175889814Y-68447814D01*
X175991271Y-68364552D01*
X176027009Y-68335222D01*
X176183534Y-68251557D01*
X176353373Y-68200037D01*
X176419557Y-68193519D01*
X176485740Y-68187000D01*
X176574260Y-68187000D01*
X176640443Y-68193519D01*
X176640443Y-68193519D01*
G37*
G36*
X102980443Y-67685519D02*
G01*
X103046627Y-67692037D01*
X103216466Y-67743557D01*
X103372991Y-67827222D01*
X103408729Y-67856552D01*
X103510186Y-67939814D01*
X103593448Y-68041271D01*
X103622778Y-68077009D01*
X103706443Y-68233534D01*
X103757963Y-68403373D01*
X103775359Y-68580000D01*
X103757963Y-68756627D01*
X103706443Y-68926466D01*
X103622778Y-69082991D01*
X103618667Y-69088000D01*
X103510186Y-69220186D01*
X103408729Y-69303448D01*
X103372991Y-69332778D01*
X103216466Y-69416443D01*
X103046627Y-69467963D01*
X102980442Y-69474482D01*
X102914260Y-69481000D01*
X102825740Y-69481000D01*
X102759558Y-69474482D01*
X102693373Y-69467963D01*
X102523534Y-69416443D01*
X102367009Y-69332778D01*
X102331271Y-69303448D01*
X102229814Y-69220186D01*
X102121333Y-69088000D01*
X102117222Y-69082991D01*
X102033557Y-68926466D01*
X101982037Y-68756627D01*
X101964641Y-68580000D01*
X101982037Y-68403373D01*
X102033557Y-68233534D01*
X102117222Y-68077009D01*
X102146552Y-68041271D01*
X102229814Y-67939814D01*
X102331271Y-67856552D01*
X102367009Y-67827222D01*
X102523534Y-67743557D01*
X102693373Y-67692037D01*
X102759557Y-67685519D01*
X102825740Y-67679000D01*
X102914260Y-67679000D01*
X102980443Y-67685519D01*
X102980443Y-67685519D01*
G37*
G36*
X97900443Y-67685519D02*
G01*
X97966627Y-67692037D01*
X98136466Y-67743557D01*
X98292991Y-67827222D01*
X98328729Y-67856552D01*
X98430186Y-67939814D01*
X98513448Y-68041271D01*
X98542778Y-68077009D01*
X98626443Y-68233534D01*
X98677963Y-68403373D01*
X98695359Y-68580000D01*
X98677963Y-68756627D01*
X98626443Y-68926466D01*
X98542778Y-69082991D01*
X98538667Y-69088000D01*
X98430186Y-69220186D01*
X98328729Y-69303448D01*
X98292991Y-69332778D01*
X98136466Y-69416443D01*
X97966627Y-69467963D01*
X97900442Y-69474482D01*
X97834260Y-69481000D01*
X97745740Y-69481000D01*
X97679558Y-69474482D01*
X97613373Y-69467963D01*
X97443534Y-69416443D01*
X97287009Y-69332778D01*
X97251271Y-69303448D01*
X97149814Y-69220186D01*
X97041333Y-69088000D01*
X97037222Y-69082991D01*
X96953557Y-68926466D01*
X96902037Y-68756627D01*
X96884641Y-68580000D01*
X96902037Y-68403373D01*
X96953557Y-68233534D01*
X97037222Y-68077009D01*
X97066552Y-68041271D01*
X97149814Y-67939814D01*
X97251271Y-67856552D01*
X97287009Y-67827222D01*
X97443534Y-67743557D01*
X97613373Y-67692037D01*
X97679557Y-67685519D01*
X97745740Y-67679000D01*
X97834260Y-67679000D01*
X97900443Y-67685519D01*
X97900443Y-67685519D01*
G37*
G36*
X100440443Y-67685519D02*
G01*
X100506627Y-67692037D01*
X100676466Y-67743557D01*
X100832991Y-67827222D01*
X100868729Y-67856552D01*
X100970186Y-67939814D01*
X101053448Y-68041271D01*
X101082778Y-68077009D01*
X101166443Y-68233534D01*
X101217963Y-68403373D01*
X101235359Y-68580000D01*
X101217963Y-68756627D01*
X101166443Y-68926466D01*
X101082778Y-69082991D01*
X101078667Y-69088000D01*
X100970186Y-69220186D01*
X100868729Y-69303448D01*
X100832991Y-69332778D01*
X100676466Y-69416443D01*
X100506627Y-69467963D01*
X100440442Y-69474482D01*
X100374260Y-69481000D01*
X100285740Y-69481000D01*
X100219558Y-69474482D01*
X100153373Y-69467963D01*
X99983534Y-69416443D01*
X99827009Y-69332778D01*
X99791271Y-69303448D01*
X99689814Y-69220186D01*
X99581333Y-69088000D01*
X99577222Y-69082991D01*
X99493557Y-68926466D01*
X99442037Y-68756627D01*
X99424641Y-68580000D01*
X99442037Y-68403373D01*
X99493557Y-68233534D01*
X99577222Y-68077009D01*
X99606552Y-68041271D01*
X99689814Y-67939814D01*
X99791271Y-67856552D01*
X99827009Y-67827222D01*
X99983534Y-67743557D01*
X100153373Y-67692037D01*
X100219557Y-67685519D01*
X100285740Y-67679000D01*
X100374260Y-67679000D01*
X100440443Y-67685519D01*
X100440443Y-67685519D01*
G37*
G36*
X95360443Y-67685519D02*
G01*
X95426627Y-67692037D01*
X95596466Y-67743557D01*
X95752991Y-67827222D01*
X95788729Y-67856552D01*
X95890186Y-67939814D01*
X95973448Y-68041271D01*
X96002778Y-68077009D01*
X96086443Y-68233534D01*
X96137963Y-68403373D01*
X96155359Y-68580000D01*
X96137963Y-68756627D01*
X96086443Y-68926466D01*
X96002778Y-69082991D01*
X95998667Y-69088000D01*
X95890186Y-69220186D01*
X95788729Y-69303448D01*
X95752991Y-69332778D01*
X95596466Y-69416443D01*
X95426627Y-69467963D01*
X95360442Y-69474482D01*
X95294260Y-69481000D01*
X95205740Y-69481000D01*
X95139558Y-69474482D01*
X95073373Y-69467963D01*
X94903534Y-69416443D01*
X94747009Y-69332778D01*
X94711271Y-69303448D01*
X94609814Y-69220186D01*
X94501333Y-69088000D01*
X94497222Y-69082991D01*
X94413557Y-68926466D01*
X94362037Y-68756627D01*
X94344641Y-68580000D01*
X94362037Y-68403373D01*
X94413557Y-68233534D01*
X94497222Y-68077009D01*
X94526552Y-68041271D01*
X94609814Y-67939814D01*
X94711271Y-67856552D01*
X94747009Y-67827222D01*
X94903534Y-67743557D01*
X95073373Y-67692037D01*
X95139557Y-67685519D01*
X95205740Y-67679000D01*
X95294260Y-67679000D01*
X95360443Y-67685519D01*
X95360443Y-67685519D01*
G37*
G36*
X90280443Y-67685519D02*
G01*
X90346627Y-67692037D01*
X90516466Y-67743557D01*
X90672991Y-67827222D01*
X90708729Y-67856552D01*
X90810186Y-67939814D01*
X90893448Y-68041271D01*
X90922778Y-68077009D01*
X91006443Y-68233534D01*
X91057963Y-68403373D01*
X91075359Y-68580000D01*
X91057963Y-68756627D01*
X91006443Y-68926466D01*
X90922778Y-69082991D01*
X90918667Y-69088000D01*
X90810186Y-69220186D01*
X90708729Y-69303448D01*
X90672991Y-69332778D01*
X90516466Y-69416443D01*
X90346627Y-69467963D01*
X90280442Y-69474482D01*
X90214260Y-69481000D01*
X90125740Y-69481000D01*
X90059558Y-69474482D01*
X89993373Y-69467963D01*
X89823534Y-69416443D01*
X89667009Y-69332778D01*
X89631271Y-69303448D01*
X89529814Y-69220186D01*
X89421333Y-69088000D01*
X89417222Y-69082991D01*
X89333557Y-68926466D01*
X89282037Y-68756627D01*
X89264641Y-68580000D01*
X89282037Y-68403373D01*
X89333557Y-68233534D01*
X89417222Y-68077009D01*
X89446552Y-68041271D01*
X89529814Y-67939814D01*
X89631271Y-67856552D01*
X89667009Y-67827222D01*
X89823534Y-67743557D01*
X89993373Y-67692037D01*
X90059557Y-67685519D01*
X90125740Y-67679000D01*
X90214260Y-67679000D01*
X90280443Y-67685519D01*
X90280443Y-67685519D01*
G37*
G36*
X87740443Y-67685519D02*
G01*
X87806627Y-67692037D01*
X87976466Y-67743557D01*
X88132991Y-67827222D01*
X88168729Y-67856552D01*
X88270186Y-67939814D01*
X88353448Y-68041271D01*
X88382778Y-68077009D01*
X88466443Y-68233534D01*
X88517963Y-68403373D01*
X88535359Y-68580000D01*
X88517963Y-68756627D01*
X88466443Y-68926466D01*
X88382778Y-69082991D01*
X88378667Y-69088000D01*
X88270186Y-69220186D01*
X88168729Y-69303448D01*
X88132991Y-69332778D01*
X87976466Y-69416443D01*
X87806627Y-69467963D01*
X87740442Y-69474482D01*
X87674260Y-69481000D01*
X87585740Y-69481000D01*
X87519558Y-69474482D01*
X87453373Y-69467963D01*
X87283534Y-69416443D01*
X87127009Y-69332778D01*
X87091271Y-69303448D01*
X86989814Y-69220186D01*
X86881333Y-69088000D01*
X86877222Y-69082991D01*
X86793557Y-68926466D01*
X86742037Y-68756627D01*
X86724641Y-68580000D01*
X86742037Y-68403373D01*
X86793557Y-68233534D01*
X86877222Y-68077009D01*
X86906552Y-68041271D01*
X86989814Y-67939814D01*
X87091271Y-67856552D01*
X87127009Y-67827222D01*
X87283534Y-67743557D01*
X87453373Y-67692037D01*
X87519557Y-67685519D01*
X87585740Y-67679000D01*
X87674260Y-67679000D01*
X87740443Y-67685519D01*
X87740443Y-67685519D01*
G37*
G36*
X142096443Y-67685519D02*
G01*
X142162627Y-67692037D01*
X142332466Y-67743557D01*
X142488991Y-67827222D01*
X142524729Y-67856552D01*
X142626186Y-67939814D01*
X142709448Y-68041271D01*
X142738778Y-68077009D01*
X142822443Y-68233534D01*
X142873963Y-68403373D01*
X142891359Y-68580000D01*
X142873963Y-68756627D01*
X142822443Y-68926466D01*
X142738778Y-69082991D01*
X142734667Y-69088000D01*
X142626186Y-69220186D01*
X142524729Y-69303448D01*
X142488991Y-69332778D01*
X142332466Y-69416443D01*
X142162627Y-69467963D01*
X142096442Y-69474482D01*
X142030260Y-69481000D01*
X141941740Y-69481000D01*
X141875558Y-69474482D01*
X141809373Y-69467963D01*
X141639534Y-69416443D01*
X141483009Y-69332778D01*
X141447271Y-69303448D01*
X141345814Y-69220186D01*
X141237333Y-69088000D01*
X141233222Y-69082991D01*
X141149557Y-68926466D01*
X141098037Y-68756627D01*
X141080641Y-68580000D01*
X141098037Y-68403373D01*
X141149557Y-68233534D01*
X141233222Y-68077009D01*
X141262552Y-68041271D01*
X141345814Y-67939814D01*
X141447271Y-67856552D01*
X141483009Y-67827222D01*
X141639534Y-67743557D01*
X141809373Y-67692037D01*
X141875557Y-67685519D01*
X141941740Y-67679000D01*
X142030260Y-67679000D01*
X142096443Y-67685519D01*
X142096443Y-67685519D01*
G37*
G36*
X85200443Y-67685519D02*
G01*
X85266627Y-67692037D01*
X85436466Y-67743557D01*
X85592991Y-67827222D01*
X85628729Y-67856552D01*
X85730186Y-67939814D01*
X85813448Y-68041271D01*
X85842778Y-68077009D01*
X85926443Y-68233534D01*
X85977963Y-68403373D01*
X85995359Y-68580000D01*
X85977963Y-68756627D01*
X85926443Y-68926466D01*
X85842778Y-69082991D01*
X85838667Y-69088000D01*
X85730186Y-69220186D01*
X85628729Y-69303448D01*
X85592991Y-69332778D01*
X85436466Y-69416443D01*
X85266627Y-69467963D01*
X85200442Y-69474482D01*
X85134260Y-69481000D01*
X85045740Y-69481000D01*
X84979558Y-69474482D01*
X84913373Y-69467963D01*
X84743534Y-69416443D01*
X84587009Y-69332778D01*
X84551271Y-69303448D01*
X84449814Y-69220186D01*
X84341333Y-69088000D01*
X84337222Y-69082991D01*
X84253557Y-68926466D01*
X84202037Y-68756627D01*
X84184641Y-68580000D01*
X84202037Y-68403373D01*
X84253557Y-68233534D01*
X84337222Y-68077009D01*
X84366552Y-68041271D01*
X84449814Y-67939814D01*
X84551271Y-67856552D01*
X84587009Y-67827222D01*
X84743534Y-67743557D01*
X84913373Y-67692037D01*
X84979557Y-67685519D01*
X85045740Y-67679000D01*
X85134260Y-67679000D01*
X85200443Y-67685519D01*
X85200443Y-67685519D01*
G37*
G36*
X132444443Y-67685519D02*
G01*
X132510627Y-67692037D01*
X132680466Y-67743557D01*
X132836991Y-67827222D01*
X132872729Y-67856552D01*
X132974186Y-67939814D01*
X133057448Y-68041271D01*
X133086778Y-68077009D01*
X133170443Y-68233534D01*
X133221963Y-68403373D01*
X133239359Y-68580000D01*
X133221963Y-68756627D01*
X133170443Y-68926466D01*
X133086778Y-69082991D01*
X133082667Y-69088000D01*
X132974186Y-69220186D01*
X132872729Y-69303448D01*
X132836991Y-69332778D01*
X132680466Y-69416443D01*
X132510627Y-69467963D01*
X132444442Y-69474482D01*
X132378260Y-69481000D01*
X132289740Y-69481000D01*
X132223558Y-69474482D01*
X132157373Y-69467963D01*
X131987534Y-69416443D01*
X131831009Y-69332778D01*
X131795271Y-69303448D01*
X131693814Y-69220186D01*
X131585333Y-69088000D01*
X131581222Y-69082991D01*
X131497557Y-68926466D01*
X131446037Y-68756627D01*
X131428641Y-68580000D01*
X131446037Y-68403373D01*
X131497557Y-68233534D01*
X131581222Y-68077009D01*
X131610552Y-68041271D01*
X131693814Y-67939814D01*
X131795271Y-67856552D01*
X131831009Y-67827222D01*
X131987534Y-67743557D01*
X132157373Y-67692037D01*
X132223557Y-67685519D01*
X132289740Y-67679000D01*
X132378260Y-67679000D01*
X132444443Y-67685519D01*
X132444443Y-67685519D01*
G37*
G36*
X92820443Y-67685519D02*
G01*
X92886627Y-67692037D01*
X93056466Y-67743557D01*
X93212991Y-67827222D01*
X93248729Y-67856552D01*
X93350186Y-67939814D01*
X93433448Y-68041271D01*
X93462778Y-68077009D01*
X93546443Y-68233534D01*
X93597963Y-68403373D01*
X93615359Y-68580000D01*
X93597963Y-68756627D01*
X93546443Y-68926466D01*
X93462778Y-69082991D01*
X93458667Y-69088000D01*
X93350186Y-69220186D01*
X93248729Y-69303448D01*
X93212991Y-69332778D01*
X93056466Y-69416443D01*
X92886627Y-69467963D01*
X92820442Y-69474482D01*
X92754260Y-69481000D01*
X92665740Y-69481000D01*
X92599558Y-69474482D01*
X92533373Y-69467963D01*
X92363534Y-69416443D01*
X92207009Y-69332778D01*
X92171271Y-69303448D01*
X92069814Y-69220186D01*
X91961333Y-69088000D01*
X91957222Y-69082991D01*
X91873557Y-68926466D01*
X91822037Y-68756627D01*
X91804641Y-68580000D01*
X91822037Y-68403373D01*
X91873557Y-68233534D01*
X91957222Y-68077009D01*
X91986552Y-68041271D01*
X92069814Y-67939814D01*
X92171271Y-67856552D01*
X92207009Y-67827222D01*
X92363534Y-67743557D01*
X92533373Y-67692037D01*
X92599557Y-67685519D01*
X92665740Y-67679000D01*
X92754260Y-67679000D01*
X92820443Y-67685519D01*
X92820443Y-67685519D01*
G37*
G36*
X129904443Y-67685519D02*
G01*
X129970627Y-67692037D01*
X130140466Y-67743557D01*
X130296991Y-67827222D01*
X130332729Y-67856552D01*
X130434186Y-67939814D01*
X130517448Y-68041271D01*
X130546778Y-68077009D01*
X130630443Y-68233534D01*
X130681963Y-68403373D01*
X130699359Y-68580000D01*
X130681963Y-68756627D01*
X130630443Y-68926466D01*
X130546778Y-69082991D01*
X130542667Y-69088000D01*
X130434186Y-69220186D01*
X130332729Y-69303448D01*
X130296991Y-69332778D01*
X130140466Y-69416443D01*
X129970627Y-69467963D01*
X129904442Y-69474482D01*
X129838260Y-69481000D01*
X129749740Y-69481000D01*
X129683558Y-69474482D01*
X129617373Y-69467963D01*
X129447534Y-69416443D01*
X129291009Y-69332778D01*
X129255271Y-69303448D01*
X129153814Y-69220186D01*
X129045333Y-69088000D01*
X129041222Y-69082991D01*
X128957557Y-68926466D01*
X128906037Y-68756627D01*
X128888641Y-68580000D01*
X128906037Y-68403373D01*
X128957557Y-68233534D01*
X129041222Y-68077009D01*
X129070552Y-68041271D01*
X129153814Y-67939814D01*
X129255271Y-67856552D01*
X129291009Y-67827222D01*
X129447534Y-67743557D01*
X129617373Y-67692037D01*
X129683557Y-67685519D01*
X129749740Y-67679000D01*
X129838260Y-67679000D01*
X129904443Y-67685519D01*
X129904443Y-67685519D01*
G37*
G36*
X159932822Y-62261313D02*
G01*
X160093241Y-62309976D01*
X160241077Y-62388995D01*
X160370659Y-62495341D01*
X160477004Y-62624922D01*
X160477005Y-62624924D01*
X160556024Y-62772758D01*
X160604687Y-62933177D01*
X160617000Y-63058196D01*
X160617000Y-63941803D01*
X160604687Y-64066822D01*
X160556024Y-64227242D01*
X160485114Y-64359906D01*
X160477004Y-64375078D01*
X160370659Y-64504659D01*
X160241078Y-64611004D01*
X160241076Y-64611005D01*
X160093242Y-64690024D01*
X159932823Y-64738687D01*
X159766000Y-64755117D01*
X159599178Y-64738687D01*
X159438759Y-64690024D01*
X159290925Y-64611005D01*
X159290923Y-64611004D01*
X159161342Y-64504659D01*
X159054997Y-64375078D01*
X159046887Y-64359906D01*
X158975977Y-64227242D01*
X158927314Y-64066823D01*
X158915000Y-63941803D01*
X158915000Y-63058197D01*
X158927313Y-62933178D01*
X158975976Y-62772759D01*
X159054995Y-62624923D01*
X159161341Y-62495341D01*
X159290922Y-62388996D01*
X159306094Y-62380886D01*
X159438758Y-62309976D01*
X159599177Y-62261313D01*
X159766000Y-62244883D01*
X159932822Y-62261313D01*
X159932822Y-62261313D01*
G37*
G36*
X92876822Y-62261313D02*
G01*
X93037241Y-62309976D01*
X93185077Y-62388995D01*
X93314659Y-62495341D01*
X93421004Y-62624922D01*
X93421005Y-62624924D01*
X93500024Y-62772758D01*
X93548687Y-62933177D01*
X93561000Y-63058196D01*
X93561000Y-63941803D01*
X93548687Y-64066822D01*
X93500024Y-64227242D01*
X93429114Y-64359906D01*
X93421004Y-64375078D01*
X93314659Y-64504659D01*
X93185078Y-64611004D01*
X93185076Y-64611005D01*
X93037242Y-64690024D01*
X92876823Y-64738687D01*
X92710000Y-64755117D01*
X92543178Y-64738687D01*
X92382759Y-64690024D01*
X92234925Y-64611005D01*
X92234923Y-64611004D01*
X92105342Y-64504659D01*
X91998997Y-64375078D01*
X91990887Y-64359906D01*
X91919977Y-64227242D01*
X91871314Y-64066823D01*
X91859000Y-63941803D01*
X91859000Y-63058197D01*
X91871313Y-62933178D01*
X91919976Y-62772759D01*
X91998995Y-62624923D01*
X92105341Y-62495341D01*
X92234922Y-62388996D01*
X92250094Y-62380886D01*
X92382758Y-62309976D01*
X92543177Y-62261313D01*
X92710000Y-62244883D01*
X92876822Y-62261313D01*
X92876822Y-62261313D01*
G37*
G36*
X142152822Y-62261313D02*
G01*
X142313241Y-62309976D01*
X142461077Y-62388995D01*
X142590659Y-62495341D01*
X142697004Y-62624922D01*
X142697005Y-62624924D01*
X142776024Y-62772758D01*
X142824687Y-62933177D01*
X142837000Y-63058196D01*
X142837000Y-63941803D01*
X142824687Y-64066822D01*
X142776024Y-64227242D01*
X142705114Y-64359906D01*
X142697004Y-64375078D01*
X142590659Y-64504659D01*
X142461078Y-64611004D01*
X142461076Y-64611005D01*
X142313242Y-64690024D01*
X142152823Y-64738687D01*
X141986000Y-64755117D01*
X141819178Y-64738687D01*
X141658759Y-64690024D01*
X141510925Y-64611005D01*
X141510923Y-64611004D01*
X141381342Y-64504659D01*
X141274997Y-64375078D01*
X141266887Y-64359906D01*
X141195977Y-64227242D01*
X141147314Y-64066823D01*
X141135000Y-63941803D01*
X141135000Y-63058197D01*
X141147313Y-62933178D01*
X141195976Y-62772759D01*
X141274995Y-62624923D01*
X141381341Y-62495341D01*
X141510922Y-62388996D01*
X141526094Y-62380886D01*
X141658758Y-62309976D01*
X141819177Y-62261313D01*
X141986000Y-62244883D01*
X142152822Y-62261313D01*
X142152822Y-62261313D01*
G37*
G36*
X144692822Y-62261313D02*
G01*
X144853241Y-62309976D01*
X145001077Y-62388995D01*
X145130659Y-62495341D01*
X145237004Y-62624922D01*
X145237005Y-62624924D01*
X145316024Y-62772758D01*
X145364687Y-62933177D01*
X145377000Y-63058196D01*
X145377000Y-63941803D01*
X145364687Y-64066822D01*
X145316024Y-64227242D01*
X145245114Y-64359906D01*
X145237004Y-64375078D01*
X145130659Y-64504659D01*
X145001078Y-64611004D01*
X145001076Y-64611005D01*
X144853242Y-64690024D01*
X144692823Y-64738687D01*
X144526000Y-64755117D01*
X144359178Y-64738687D01*
X144198759Y-64690024D01*
X144050925Y-64611005D01*
X144050923Y-64611004D01*
X143921342Y-64504659D01*
X143814997Y-64375078D01*
X143806887Y-64359906D01*
X143735977Y-64227242D01*
X143687314Y-64066823D01*
X143675000Y-63941803D01*
X143675000Y-63058197D01*
X143687313Y-62933178D01*
X143735976Y-62772759D01*
X143814995Y-62624923D01*
X143921341Y-62495341D01*
X144050922Y-62388996D01*
X144066094Y-62380886D01*
X144198758Y-62309976D01*
X144359177Y-62261313D01*
X144526000Y-62244883D01*
X144692822Y-62261313D01*
X144692822Y-62261313D01*
G37*
G36*
X147232822Y-62261313D02*
G01*
X147393241Y-62309976D01*
X147541077Y-62388995D01*
X147670659Y-62495341D01*
X147777004Y-62624922D01*
X147777005Y-62624924D01*
X147856024Y-62772758D01*
X147904687Y-62933177D01*
X147917000Y-63058196D01*
X147917000Y-63941803D01*
X147904687Y-64066822D01*
X147856024Y-64227242D01*
X147785114Y-64359906D01*
X147777004Y-64375078D01*
X147670659Y-64504659D01*
X147541078Y-64611004D01*
X147541076Y-64611005D01*
X147393242Y-64690024D01*
X147232823Y-64738687D01*
X147066000Y-64755117D01*
X146899178Y-64738687D01*
X146738759Y-64690024D01*
X146590925Y-64611005D01*
X146590923Y-64611004D01*
X146461342Y-64504659D01*
X146354997Y-64375078D01*
X146346887Y-64359906D01*
X146275977Y-64227242D01*
X146227314Y-64066823D01*
X146215000Y-63941803D01*
X146215000Y-63058197D01*
X146227313Y-62933178D01*
X146275976Y-62772759D01*
X146354995Y-62624923D01*
X146461341Y-62495341D01*
X146590922Y-62388996D01*
X146606094Y-62380886D01*
X146738758Y-62309976D01*
X146899177Y-62261313D01*
X147066000Y-62244883D01*
X147232822Y-62261313D01*
X147232822Y-62261313D01*
G37*
G36*
X149772822Y-62261313D02*
G01*
X149933241Y-62309976D01*
X150081077Y-62388995D01*
X150210659Y-62495341D01*
X150317004Y-62624922D01*
X150317005Y-62624924D01*
X150396024Y-62772758D01*
X150444687Y-62933177D01*
X150457000Y-63058196D01*
X150457000Y-63941803D01*
X150444687Y-64066822D01*
X150396024Y-64227242D01*
X150325114Y-64359906D01*
X150317004Y-64375078D01*
X150210659Y-64504659D01*
X150081078Y-64611004D01*
X150081076Y-64611005D01*
X149933242Y-64690024D01*
X149772823Y-64738687D01*
X149606000Y-64755117D01*
X149439178Y-64738687D01*
X149278759Y-64690024D01*
X149130925Y-64611005D01*
X149130923Y-64611004D01*
X149001342Y-64504659D01*
X148894997Y-64375078D01*
X148886887Y-64359906D01*
X148815977Y-64227242D01*
X148767314Y-64066823D01*
X148755000Y-63941803D01*
X148755000Y-63058197D01*
X148767313Y-62933178D01*
X148815976Y-62772759D01*
X148894995Y-62624923D01*
X149001341Y-62495341D01*
X149130922Y-62388996D01*
X149146094Y-62380886D01*
X149278758Y-62309976D01*
X149439177Y-62261313D01*
X149606000Y-62244883D01*
X149772822Y-62261313D01*
X149772822Y-62261313D01*
G37*
G36*
X152312822Y-62261313D02*
G01*
X152473241Y-62309976D01*
X152621077Y-62388995D01*
X152750659Y-62495341D01*
X152857004Y-62624922D01*
X152857005Y-62624924D01*
X152936024Y-62772758D01*
X152984687Y-62933177D01*
X152997000Y-63058196D01*
X152997000Y-63941803D01*
X152984687Y-64066822D01*
X152936024Y-64227242D01*
X152865114Y-64359906D01*
X152857004Y-64375078D01*
X152750659Y-64504659D01*
X152621078Y-64611004D01*
X152621076Y-64611005D01*
X152473242Y-64690024D01*
X152312823Y-64738687D01*
X152146000Y-64755117D01*
X151979178Y-64738687D01*
X151818759Y-64690024D01*
X151670925Y-64611005D01*
X151670923Y-64611004D01*
X151541342Y-64504659D01*
X151434997Y-64375078D01*
X151426887Y-64359906D01*
X151355977Y-64227242D01*
X151307314Y-64066823D01*
X151295000Y-63941803D01*
X151295000Y-63058197D01*
X151307313Y-62933178D01*
X151355976Y-62772759D01*
X151434995Y-62624923D01*
X151541341Y-62495341D01*
X151670922Y-62388996D01*
X151686094Y-62380886D01*
X151818758Y-62309976D01*
X151979177Y-62261313D01*
X152146000Y-62244883D01*
X152312822Y-62261313D01*
X152312822Y-62261313D01*
G37*
G36*
X154852822Y-62261313D02*
G01*
X155013241Y-62309976D01*
X155161077Y-62388995D01*
X155290659Y-62495341D01*
X155397004Y-62624922D01*
X155397005Y-62624924D01*
X155476024Y-62772758D01*
X155524687Y-62933177D01*
X155537000Y-63058196D01*
X155537000Y-63941803D01*
X155524687Y-64066822D01*
X155476024Y-64227242D01*
X155405114Y-64359906D01*
X155397004Y-64375078D01*
X155290659Y-64504659D01*
X155161078Y-64611004D01*
X155161076Y-64611005D01*
X155013242Y-64690024D01*
X154852823Y-64738687D01*
X154686000Y-64755117D01*
X154519178Y-64738687D01*
X154358759Y-64690024D01*
X154210925Y-64611005D01*
X154210923Y-64611004D01*
X154081342Y-64504659D01*
X153974997Y-64375078D01*
X153966887Y-64359906D01*
X153895977Y-64227242D01*
X153847314Y-64066823D01*
X153835000Y-63941803D01*
X153835000Y-63058197D01*
X153847313Y-62933178D01*
X153895976Y-62772759D01*
X153974995Y-62624923D01*
X154081341Y-62495341D01*
X154210922Y-62388996D01*
X154226094Y-62380886D01*
X154358758Y-62309976D01*
X154519177Y-62261313D01*
X154686000Y-62244883D01*
X154852822Y-62261313D01*
X154852822Y-62261313D01*
G37*
G36*
X157392822Y-62261313D02*
G01*
X157553241Y-62309976D01*
X157701077Y-62388995D01*
X157830659Y-62495341D01*
X157937004Y-62624922D01*
X157937005Y-62624924D01*
X158016024Y-62772758D01*
X158064687Y-62933177D01*
X158077000Y-63058196D01*
X158077000Y-63941803D01*
X158064687Y-64066822D01*
X158016024Y-64227242D01*
X157945114Y-64359906D01*
X157937004Y-64375078D01*
X157830659Y-64504659D01*
X157701078Y-64611004D01*
X157701076Y-64611005D01*
X157553242Y-64690024D01*
X157392823Y-64738687D01*
X157226000Y-64755117D01*
X157059178Y-64738687D01*
X156898759Y-64690024D01*
X156750925Y-64611005D01*
X156750923Y-64611004D01*
X156621342Y-64504659D01*
X156514997Y-64375078D01*
X156506887Y-64359906D01*
X156435977Y-64227242D01*
X156387314Y-64066823D01*
X156375000Y-63941803D01*
X156375000Y-63058197D01*
X156387313Y-62933178D01*
X156435976Y-62772759D01*
X156514995Y-62624923D01*
X156621341Y-62495341D01*
X156750922Y-62388996D01*
X156766094Y-62380886D01*
X156898758Y-62309976D01*
X157059177Y-62261313D01*
X157226000Y-62244883D01*
X157392822Y-62261313D01*
X157392822Y-62261313D01*
G37*
G36*
X85256822Y-62261313D02*
G01*
X85417241Y-62309976D01*
X85565077Y-62388995D01*
X85694659Y-62495341D01*
X85801004Y-62624922D01*
X85801005Y-62624924D01*
X85880024Y-62772758D01*
X85928687Y-62933177D01*
X85941000Y-63058196D01*
X85941000Y-63941803D01*
X85928687Y-64066822D01*
X85880024Y-64227242D01*
X85809114Y-64359906D01*
X85801004Y-64375078D01*
X85694659Y-64504659D01*
X85565078Y-64611004D01*
X85565076Y-64611005D01*
X85417242Y-64690024D01*
X85256823Y-64738687D01*
X85090000Y-64755117D01*
X84923178Y-64738687D01*
X84762759Y-64690024D01*
X84614925Y-64611005D01*
X84614923Y-64611004D01*
X84485342Y-64504659D01*
X84378997Y-64375078D01*
X84370887Y-64359906D01*
X84299977Y-64227242D01*
X84251314Y-64066823D01*
X84239000Y-63941803D01*
X84239000Y-63058197D01*
X84251313Y-62933178D01*
X84299976Y-62772759D01*
X84378995Y-62624923D01*
X84485341Y-62495341D01*
X84614922Y-62388996D01*
X84630094Y-62380886D01*
X84762758Y-62309976D01*
X84923177Y-62261313D01*
X85090000Y-62244883D01*
X85256822Y-62261313D01*
X85256822Y-62261313D01*
G37*
G36*
X105576822Y-62261313D02*
G01*
X105737241Y-62309976D01*
X105885077Y-62388995D01*
X106014659Y-62495341D01*
X106121004Y-62624922D01*
X106121005Y-62624924D01*
X106200024Y-62772758D01*
X106248687Y-62933177D01*
X106261000Y-63058196D01*
X106261000Y-63941803D01*
X106248687Y-64066822D01*
X106200024Y-64227242D01*
X106129114Y-64359906D01*
X106121004Y-64375078D01*
X106014659Y-64504659D01*
X105885078Y-64611004D01*
X105885076Y-64611005D01*
X105737242Y-64690024D01*
X105576823Y-64738687D01*
X105410000Y-64755117D01*
X105243178Y-64738687D01*
X105082759Y-64690024D01*
X104934925Y-64611005D01*
X104934923Y-64611004D01*
X104805342Y-64504659D01*
X104698997Y-64375078D01*
X104690887Y-64359906D01*
X104619977Y-64227242D01*
X104571314Y-64066823D01*
X104559000Y-63941803D01*
X104559000Y-63058197D01*
X104571313Y-62933178D01*
X104619976Y-62772759D01*
X104698995Y-62624923D01*
X104805341Y-62495341D01*
X104934922Y-62388996D01*
X104950094Y-62380886D01*
X105082758Y-62309976D01*
X105243177Y-62261313D01*
X105410000Y-62244883D01*
X105576822Y-62261313D01*
X105576822Y-62261313D01*
G37*
G36*
X103036822Y-62261313D02*
G01*
X103197241Y-62309976D01*
X103345077Y-62388995D01*
X103474659Y-62495341D01*
X103581004Y-62624922D01*
X103581005Y-62624924D01*
X103660024Y-62772758D01*
X103708687Y-62933177D01*
X103721000Y-63058196D01*
X103721000Y-63941803D01*
X103708687Y-64066822D01*
X103660024Y-64227242D01*
X103589114Y-64359906D01*
X103581004Y-64375078D01*
X103474659Y-64504659D01*
X103345078Y-64611004D01*
X103345076Y-64611005D01*
X103197242Y-64690024D01*
X103036823Y-64738687D01*
X102870000Y-64755117D01*
X102703178Y-64738687D01*
X102542759Y-64690024D01*
X102394925Y-64611005D01*
X102394923Y-64611004D01*
X102265342Y-64504659D01*
X102158997Y-64375078D01*
X102150887Y-64359906D01*
X102079977Y-64227242D01*
X102031314Y-64066823D01*
X102019000Y-63941803D01*
X102019000Y-63058197D01*
X102031313Y-62933178D01*
X102079976Y-62772759D01*
X102158995Y-62624923D01*
X102265341Y-62495341D01*
X102394922Y-62388996D01*
X102410094Y-62380886D01*
X102542758Y-62309976D01*
X102703177Y-62261313D01*
X102870000Y-62244883D01*
X103036822Y-62261313D01*
X103036822Y-62261313D01*
G37*
G36*
X100496822Y-62261313D02*
G01*
X100657241Y-62309976D01*
X100805077Y-62388995D01*
X100934659Y-62495341D01*
X101041004Y-62624922D01*
X101041005Y-62624924D01*
X101120024Y-62772758D01*
X101168687Y-62933177D01*
X101181000Y-63058196D01*
X101181000Y-63941803D01*
X101168687Y-64066822D01*
X101120024Y-64227242D01*
X101049114Y-64359906D01*
X101041004Y-64375078D01*
X100934659Y-64504659D01*
X100805078Y-64611004D01*
X100805076Y-64611005D01*
X100657242Y-64690024D01*
X100496823Y-64738687D01*
X100330000Y-64755117D01*
X100163178Y-64738687D01*
X100002759Y-64690024D01*
X99854925Y-64611005D01*
X99854923Y-64611004D01*
X99725342Y-64504659D01*
X99618997Y-64375078D01*
X99610887Y-64359906D01*
X99539977Y-64227242D01*
X99491314Y-64066823D01*
X99479000Y-63941803D01*
X99479000Y-63058197D01*
X99491313Y-62933178D01*
X99539976Y-62772759D01*
X99618995Y-62624923D01*
X99725341Y-62495341D01*
X99854922Y-62388996D01*
X99870094Y-62380886D01*
X100002758Y-62309976D01*
X100163177Y-62261313D01*
X100330000Y-62244883D01*
X100496822Y-62261313D01*
X100496822Y-62261313D01*
G37*
G36*
X97956822Y-62261313D02*
G01*
X98117241Y-62309976D01*
X98265077Y-62388995D01*
X98394659Y-62495341D01*
X98501004Y-62624922D01*
X98501005Y-62624924D01*
X98580024Y-62772758D01*
X98628687Y-62933177D01*
X98641000Y-63058196D01*
X98641000Y-63941803D01*
X98628687Y-64066822D01*
X98580024Y-64227242D01*
X98509114Y-64359906D01*
X98501004Y-64375078D01*
X98394659Y-64504659D01*
X98265078Y-64611004D01*
X98265076Y-64611005D01*
X98117242Y-64690024D01*
X97956823Y-64738687D01*
X97790000Y-64755117D01*
X97623178Y-64738687D01*
X97462759Y-64690024D01*
X97314925Y-64611005D01*
X97314923Y-64611004D01*
X97185342Y-64504659D01*
X97078997Y-64375078D01*
X97070887Y-64359906D01*
X96999977Y-64227242D01*
X96951314Y-64066823D01*
X96939000Y-63941803D01*
X96939000Y-63058197D01*
X96951313Y-62933178D01*
X96999976Y-62772759D01*
X97078995Y-62624923D01*
X97185341Y-62495341D01*
X97314922Y-62388996D01*
X97330094Y-62380886D01*
X97462758Y-62309976D01*
X97623177Y-62261313D01*
X97790000Y-62244883D01*
X97956822Y-62261313D01*
X97956822Y-62261313D01*
G37*
G36*
X95416822Y-62261313D02*
G01*
X95577241Y-62309976D01*
X95725077Y-62388995D01*
X95854659Y-62495341D01*
X95961004Y-62624922D01*
X95961005Y-62624924D01*
X96040024Y-62772758D01*
X96088687Y-62933177D01*
X96101000Y-63058196D01*
X96101000Y-63941803D01*
X96088687Y-64066822D01*
X96040024Y-64227242D01*
X95969114Y-64359906D01*
X95961004Y-64375078D01*
X95854659Y-64504659D01*
X95725078Y-64611004D01*
X95725076Y-64611005D01*
X95577242Y-64690024D01*
X95416823Y-64738687D01*
X95250000Y-64755117D01*
X95083178Y-64738687D01*
X94922759Y-64690024D01*
X94774925Y-64611005D01*
X94774923Y-64611004D01*
X94645342Y-64504659D01*
X94538997Y-64375078D01*
X94530887Y-64359906D01*
X94459977Y-64227242D01*
X94411314Y-64066823D01*
X94399000Y-63941803D01*
X94399000Y-63058197D01*
X94411313Y-62933178D01*
X94459976Y-62772759D01*
X94538995Y-62624923D01*
X94645341Y-62495341D01*
X94774922Y-62388996D01*
X94790094Y-62380886D01*
X94922758Y-62309976D01*
X95083177Y-62261313D01*
X95250000Y-62244883D01*
X95416822Y-62261313D01*
X95416822Y-62261313D01*
G37*
G36*
X90336822Y-62261313D02*
G01*
X90497241Y-62309976D01*
X90645077Y-62388995D01*
X90774659Y-62495341D01*
X90881004Y-62624922D01*
X90881005Y-62624924D01*
X90960024Y-62772758D01*
X91008687Y-62933177D01*
X91021000Y-63058196D01*
X91021000Y-63941803D01*
X91008687Y-64066822D01*
X90960024Y-64227242D01*
X90889114Y-64359906D01*
X90881004Y-64375078D01*
X90774659Y-64504659D01*
X90645078Y-64611004D01*
X90645076Y-64611005D01*
X90497242Y-64690024D01*
X90336823Y-64738687D01*
X90170000Y-64755117D01*
X90003178Y-64738687D01*
X89842759Y-64690024D01*
X89694925Y-64611005D01*
X89694923Y-64611004D01*
X89565342Y-64504659D01*
X89458997Y-64375078D01*
X89450887Y-64359906D01*
X89379977Y-64227242D01*
X89331314Y-64066823D01*
X89319000Y-63941803D01*
X89319000Y-63058197D01*
X89331313Y-62933178D01*
X89379976Y-62772759D01*
X89458995Y-62624923D01*
X89565341Y-62495341D01*
X89694922Y-62388996D01*
X89710094Y-62380886D01*
X89842758Y-62309976D01*
X90003177Y-62261313D01*
X90170000Y-62244883D01*
X90336822Y-62261313D01*
X90336822Y-62261313D01*
G37*
G36*
X87796822Y-62261313D02*
G01*
X87957241Y-62309976D01*
X88105077Y-62388995D01*
X88234659Y-62495341D01*
X88341004Y-62624922D01*
X88341005Y-62624924D01*
X88420024Y-62772758D01*
X88468687Y-62933177D01*
X88481000Y-63058196D01*
X88481000Y-63941803D01*
X88468687Y-64066822D01*
X88420024Y-64227242D01*
X88349114Y-64359906D01*
X88341004Y-64375078D01*
X88234659Y-64504659D01*
X88105078Y-64611004D01*
X88105076Y-64611005D01*
X87957242Y-64690024D01*
X87796823Y-64738687D01*
X87630000Y-64755117D01*
X87463178Y-64738687D01*
X87302759Y-64690024D01*
X87154925Y-64611005D01*
X87154923Y-64611004D01*
X87025342Y-64504659D01*
X86918997Y-64375078D01*
X86910887Y-64359906D01*
X86839977Y-64227242D01*
X86791314Y-64066823D01*
X86779000Y-63941803D01*
X86779000Y-63058197D01*
X86791313Y-62933178D01*
X86839976Y-62772759D01*
X86918995Y-62624923D01*
X87025341Y-62495341D01*
X87154922Y-62388996D01*
X87170094Y-62380886D01*
X87302758Y-62309976D01*
X87463177Y-62261313D01*
X87630000Y-62244883D01*
X87796822Y-62261313D01*
X87796822Y-62261313D01*
G37*
G36*
X139612822Y-62261313D02*
G01*
X139773241Y-62309976D01*
X139921077Y-62388995D01*
X140050659Y-62495341D01*
X140157004Y-62624922D01*
X140157005Y-62624924D01*
X140236024Y-62772758D01*
X140284687Y-62933177D01*
X140297000Y-63058196D01*
X140297000Y-63941803D01*
X140284687Y-64066822D01*
X140236024Y-64227242D01*
X140165114Y-64359906D01*
X140157004Y-64375078D01*
X140050659Y-64504659D01*
X139921078Y-64611004D01*
X139921076Y-64611005D01*
X139773242Y-64690024D01*
X139612823Y-64738687D01*
X139446000Y-64755117D01*
X139279178Y-64738687D01*
X139118759Y-64690024D01*
X138970925Y-64611005D01*
X138970923Y-64611004D01*
X138841342Y-64504659D01*
X138734997Y-64375078D01*
X138726887Y-64359906D01*
X138655977Y-64227242D01*
X138607314Y-64066823D01*
X138595000Y-63941803D01*
X138595000Y-63058197D01*
X138607313Y-62933178D01*
X138655976Y-62772759D01*
X138734995Y-62624923D01*
X138841341Y-62495341D01*
X138970922Y-62388996D01*
X138986094Y-62380886D01*
X139118758Y-62309976D01*
X139279177Y-62261313D01*
X139446000Y-62244883D01*
X139612822Y-62261313D01*
X139612822Y-62261313D01*
G37*
G36*
X117260822Y-62261313D02*
G01*
X117421241Y-62309976D01*
X117569077Y-62388995D01*
X117698659Y-62495341D01*
X117805004Y-62624922D01*
X117805005Y-62624924D01*
X117884024Y-62772758D01*
X117932687Y-62933177D01*
X117945000Y-63058196D01*
X117945000Y-63941803D01*
X117932687Y-64066822D01*
X117884024Y-64227242D01*
X117813114Y-64359906D01*
X117805004Y-64375078D01*
X117698659Y-64504659D01*
X117569078Y-64611004D01*
X117569076Y-64611005D01*
X117421242Y-64690024D01*
X117260823Y-64738687D01*
X117094000Y-64755117D01*
X116927178Y-64738687D01*
X116766759Y-64690024D01*
X116618925Y-64611005D01*
X116618923Y-64611004D01*
X116489342Y-64504659D01*
X116382997Y-64375078D01*
X116374887Y-64359906D01*
X116303977Y-64227242D01*
X116255314Y-64066823D01*
X116243000Y-63941803D01*
X116243000Y-63058197D01*
X116255313Y-62933178D01*
X116303976Y-62772759D01*
X116382995Y-62624923D01*
X116489341Y-62495341D01*
X116618922Y-62388996D01*
X116634094Y-62380886D01*
X116766758Y-62309976D01*
X116927177Y-62261313D01*
X117094000Y-62244883D01*
X117260822Y-62261313D01*
X117260822Y-62261313D01*
G37*
G36*
X114720822Y-62261313D02*
G01*
X114881241Y-62309976D01*
X115029077Y-62388995D01*
X115158659Y-62495341D01*
X115265004Y-62624922D01*
X115265005Y-62624924D01*
X115344024Y-62772758D01*
X115392687Y-62933177D01*
X115405000Y-63058196D01*
X115405000Y-63941803D01*
X115392687Y-64066822D01*
X115344024Y-64227242D01*
X115273114Y-64359906D01*
X115265004Y-64375078D01*
X115158659Y-64504659D01*
X115029078Y-64611004D01*
X115029076Y-64611005D01*
X114881242Y-64690024D01*
X114720823Y-64738687D01*
X114554000Y-64755117D01*
X114387178Y-64738687D01*
X114226759Y-64690024D01*
X114078925Y-64611005D01*
X114078923Y-64611004D01*
X113949342Y-64504659D01*
X113842997Y-64375078D01*
X113834887Y-64359906D01*
X113763977Y-64227242D01*
X113715314Y-64066823D01*
X113703000Y-63941803D01*
X113703000Y-63058197D01*
X113715313Y-62933178D01*
X113763976Y-62772759D01*
X113842995Y-62624923D01*
X113949341Y-62495341D01*
X114078922Y-62388996D01*
X114094094Y-62380886D01*
X114226758Y-62309976D01*
X114387177Y-62261313D01*
X114554000Y-62244883D01*
X114720822Y-62261313D01*
X114720822Y-62261313D01*
G37*
G36*
X112180822Y-62261313D02*
G01*
X112341241Y-62309976D01*
X112489077Y-62388995D01*
X112618659Y-62495341D01*
X112725004Y-62624922D01*
X112725005Y-62624924D01*
X112804024Y-62772758D01*
X112852687Y-62933177D01*
X112865000Y-63058196D01*
X112865000Y-63941803D01*
X112852687Y-64066822D01*
X112804024Y-64227242D01*
X112733114Y-64359906D01*
X112725004Y-64375078D01*
X112618659Y-64504659D01*
X112489078Y-64611004D01*
X112489076Y-64611005D01*
X112341242Y-64690024D01*
X112180823Y-64738687D01*
X112014000Y-64755117D01*
X111847178Y-64738687D01*
X111686759Y-64690024D01*
X111538925Y-64611005D01*
X111538923Y-64611004D01*
X111409342Y-64504659D01*
X111302997Y-64375078D01*
X111294887Y-64359906D01*
X111223977Y-64227242D01*
X111175314Y-64066823D01*
X111163000Y-63941803D01*
X111163000Y-63058197D01*
X111175313Y-62933178D01*
X111223976Y-62772759D01*
X111302995Y-62624923D01*
X111409341Y-62495341D01*
X111538922Y-62388996D01*
X111554094Y-62380886D01*
X111686758Y-62309976D01*
X111847177Y-62261313D01*
X112014000Y-62244883D01*
X112180822Y-62261313D01*
X112180822Y-62261313D01*
G37*
G36*
X184316822Y-62261313D02*
G01*
X184477241Y-62309976D01*
X184625077Y-62388995D01*
X184754659Y-62495341D01*
X184861004Y-62624922D01*
X184861005Y-62624924D01*
X184940024Y-62772758D01*
X184988687Y-62933177D01*
X185001000Y-63058196D01*
X185001000Y-63941803D01*
X184988687Y-64066822D01*
X184940024Y-64227242D01*
X184869114Y-64359906D01*
X184861004Y-64375078D01*
X184754659Y-64504659D01*
X184625078Y-64611004D01*
X184625076Y-64611005D01*
X184477242Y-64690024D01*
X184316823Y-64738687D01*
X184150000Y-64755117D01*
X183983178Y-64738687D01*
X183822759Y-64690024D01*
X183674925Y-64611005D01*
X183674923Y-64611004D01*
X183545342Y-64504659D01*
X183438997Y-64375078D01*
X183430887Y-64359906D01*
X183359977Y-64227242D01*
X183311314Y-64066823D01*
X183299000Y-63941803D01*
X183299000Y-63058197D01*
X183311313Y-62933178D01*
X183359976Y-62772759D01*
X183438995Y-62624923D01*
X183545341Y-62495341D01*
X183674922Y-62388996D01*
X183690094Y-62380886D01*
X183822758Y-62309976D01*
X183983177Y-62261313D01*
X184150000Y-62244883D01*
X184316822Y-62261313D01*
X184316822Y-62261313D01*
G37*
G36*
X181776822Y-62261313D02*
G01*
X181937241Y-62309976D01*
X182085077Y-62388995D01*
X182214659Y-62495341D01*
X182321004Y-62624922D01*
X182321005Y-62624924D01*
X182400024Y-62772758D01*
X182448687Y-62933177D01*
X182461000Y-63058196D01*
X182461000Y-63941803D01*
X182448687Y-64066822D01*
X182400024Y-64227242D01*
X182329114Y-64359906D01*
X182321004Y-64375078D01*
X182214659Y-64504659D01*
X182085078Y-64611004D01*
X182085076Y-64611005D01*
X181937242Y-64690024D01*
X181776823Y-64738687D01*
X181610000Y-64755117D01*
X181443178Y-64738687D01*
X181282759Y-64690024D01*
X181134925Y-64611005D01*
X181134923Y-64611004D01*
X181005342Y-64504659D01*
X180898997Y-64375078D01*
X180890887Y-64359906D01*
X180819977Y-64227242D01*
X180771314Y-64066823D01*
X180759000Y-63941803D01*
X180759000Y-63058197D01*
X180771313Y-62933178D01*
X180819976Y-62772759D01*
X180898995Y-62624923D01*
X181005341Y-62495341D01*
X181134922Y-62388996D01*
X181150094Y-62380886D01*
X181282758Y-62309976D01*
X181443177Y-62261313D01*
X181610000Y-62244883D01*
X181776822Y-62261313D01*
X181776822Y-62261313D01*
G37*
G36*
X186856822Y-62261313D02*
G01*
X187017241Y-62309976D01*
X187165077Y-62388995D01*
X187294659Y-62495341D01*
X187401004Y-62624922D01*
X187401005Y-62624924D01*
X187480024Y-62772758D01*
X187528687Y-62933177D01*
X187541000Y-63058196D01*
X187541000Y-63941803D01*
X187528687Y-64066822D01*
X187480024Y-64227242D01*
X187409114Y-64359906D01*
X187401004Y-64375078D01*
X187294659Y-64504659D01*
X187165078Y-64611004D01*
X187165076Y-64611005D01*
X187017242Y-64690024D01*
X186856823Y-64738687D01*
X186690000Y-64755117D01*
X186523178Y-64738687D01*
X186362759Y-64690024D01*
X186214925Y-64611005D01*
X186214923Y-64611004D01*
X186085342Y-64504659D01*
X185978997Y-64375078D01*
X185970887Y-64359906D01*
X185899977Y-64227242D01*
X185851314Y-64066823D01*
X185839000Y-63941803D01*
X185839000Y-63058197D01*
X185851313Y-62933178D01*
X185899976Y-62772759D01*
X185978995Y-62624923D01*
X186085341Y-62495341D01*
X186214922Y-62388996D01*
X186230094Y-62380886D01*
X186362758Y-62309976D01*
X186523177Y-62261313D01*
X186690000Y-62244883D01*
X186856822Y-62261313D01*
X186856822Y-62261313D01*
G37*
G36*
X179236822Y-62261313D02*
G01*
X179397241Y-62309976D01*
X179545077Y-62388995D01*
X179674659Y-62495341D01*
X179781004Y-62624922D01*
X179781005Y-62624924D01*
X179860024Y-62772758D01*
X179908687Y-62933177D01*
X179921000Y-63058196D01*
X179921000Y-63941803D01*
X179908687Y-64066822D01*
X179860024Y-64227242D01*
X179789114Y-64359906D01*
X179781004Y-64375078D01*
X179674659Y-64504659D01*
X179545078Y-64611004D01*
X179545076Y-64611005D01*
X179397242Y-64690024D01*
X179236823Y-64738687D01*
X179070000Y-64755117D01*
X178903178Y-64738687D01*
X178742759Y-64690024D01*
X178594925Y-64611005D01*
X178594923Y-64611004D01*
X178465342Y-64504659D01*
X178358997Y-64375078D01*
X178350887Y-64359906D01*
X178279977Y-64227242D01*
X178231314Y-64066823D01*
X178219000Y-63941803D01*
X178219000Y-63058197D01*
X178231313Y-62933178D01*
X178279976Y-62772759D01*
X178358995Y-62624923D01*
X178465341Y-62495341D01*
X178594922Y-62388996D01*
X178610094Y-62380886D01*
X178742758Y-62309976D01*
X178903177Y-62261313D01*
X179070000Y-62244883D01*
X179236822Y-62261313D01*
X179236822Y-62261313D01*
G37*
G36*
X176696822Y-62261313D02*
G01*
X176857241Y-62309976D01*
X177005077Y-62388995D01*
X177134659Y-62495341D01*
X177241004Y-62624922D01*
X177241005Y-62624924D01*
X177320024Y-62772758D01*
X177368687Y-62933177D01*
X177381000Y-63058196D01*
X177381000Y-63941803D01*
X177368687Y-64066822D01*
X177320024Y-64227242D01*
X177249114Y-64359906D01*
X177241004Y-64375078D01*
X177134659Y-64504659D01*
X177005078Y-64611004D01*
X177005076Y-64611005D01*
X176857242Y-64690024D01*
X176696823Y-64738687D01*
X176530000Y-64755117D01*
X176363178Y-64738687D01*
X176202759Y-64690024D01*
X176054925Y-64611005D01*
X176054923Y-64611004D01*
X175925342Y-64504659D01*
X175818997Y-64375078D01*
X175810887Y-64359906D01*
X175739977Y-64227242D01*
X175691314Y-64066823D01*
X175679000Y-63941803D01*
X175679000Y-63058197D01*
X175691313Y-62933178D01*
X175739976Y-62772759D01*
X175818995Y-62624923D01*
X175925341Y-62495341D01*
X176054922Y-62388996D01*
X176070094Y-62380886D01*
X176202758Y-62309976D01*
X176363177Y-62261313D01*
X176530000Y-62244883D01*
X176696822Y-62261313D01*
X176696822Y-62261313D01*
G37*
G36*
X174156822Y-62261313D02*
G01*
X174317241Y-62309976D01*
X174465077Y-62388995D01*
X174594659Y-62495341D01*
X174701004Y-62624922D01*
X174701005Y-62624924D01*
X174780024Y-62772758D01*
X174828687Y-62933177D01*
X174841000Y-63058196D01*
X174841000Y-63941803D01*
X174828687Y-64066822D01*
X174780024Y-64227242D01*
X174709114Y-64359906D01*
X174701004Y-64375078D01*
X174594659Y-64504659D01*
X174465078Y-64611004D01*
X174465076Y-64611005D01*
X174317242Y-64690024D01*
X174156823Y-64738687D01*
X173990000Y-64755117D01*
X173823178Y-64738687D01*
X173662759Y-64690024D01*
X173514925Y-64611005D01*
X173514923Y-64611004D01*
X173385342Y-64504659D01*
X173278997Y-64375078D01*
X173270887Y-64359906D01*
X173199977Y-64227242D01*
X173151314Y-64066823D01*
X173139000Y-63941803D01*
X173139000Y-63058197D01*
X173151313Y-62933178D01*
X173199976Y-62772759D01*
X173278995Y-62624923D01*
X173385341Y-62495341D01*
X173514922Y-62388996D01*
X173530094Y-62380886D01*
X173662758Y-62309976D01*
X173823177Y-62261313D01*
X173990000Y-62244883D01*
X174156822Y-62261313D01*
X174156822Y-62261313D01*
G37*
G36*
X171616822Y-62261313D02*
G01*
X171777241Y-62309976D01*
X171925077Y-62388995D01*
X172054659Y-62495341D01*
X172161004Y-62624922D01*
X172161005Y-62624924D01*
X172240024Y-62772758D01*
X172288687Y-62933177D01*
X172301000Y-63058196D01*
X172301000Y-63941803D01*
X172288687Y-64066822D01*
X172240024Y-64227242D01*
X172169114Y-64359906D01*
X172161004Y-64375078D01*
X172054659Y-64504659D01*
X171925078Y-64611004D01*
X171925076Y-64611005D01*
X171777242Y-64690024D01*
X171616823Y-64738687D01*
X171450000Y-64755117D01*
X171283178Y-64738687D01*
X171122759Y-64690024D01*
X170974925Y-64611005D01*
X170974923Y-64611004D01*
X170845342Y-64504659D01*
X170738997Y-64375078D01*
X170730887Y-64359906D01*
X170659977Y-64227242D01*
X170611314Y-64066823D01*
X170599000Y-63941803D01*
X170599000Y-63058197D01*
X170611313Y-62933178D01*
X170659976Y-62772759D01*
X170738995Y-62624923D01*
X170845341Y-62495341D01*
X170974922Y-62388996D01*
X170990094Y-62380886D01*
X171122758Y-62309976D01*
X171283177Y-62261313D01*
X171450000Y-62244883D01*
X171616822Y-62261313D01*
X171616822Y-62261313D01*
G37*
G36*
X169076822Y-62261313D02*
G01*
X169237241Y-62309976D01*
X169385077Y-62388995D01*
X169514659Y-62495341D01*
X169621004Y-62624922D01*
X169621005Y-62624924D01*
X169700024Y-62772758D01*
X169748687Y-62933177D01*
X169761000Y-63058196D01*
X169761000Y-63941803D01*
X169748687Y-64066822D01*
X169700024Y-64227242D01*
X169629114Y-64359906D01*
X169621004Y-64375078D01*
X169514659Y-64504659D01*
X169385078Y-64611004D01*
X169385076Y-64611005D01*
X169237242Y-64690024D01*
X169076823Y-64738687D01*
X168910000Y-64755117D01*
X168743178Y-64738687D01*
X168582759Y-64690024D01*
X168434925Y-64611005D01*
X168434923Y-64611004D01*
X168305342Y-64504659D01*
X168198997Y-64375078D01*
X168190887Y-64359906D01*
X168119977Y-64227242D01*
X168071314Y-64066823D01*
X168059000Y-63941803D01*
X168059000Y-63058197D01*
X168071313Y-62933178D01*
X168119976Y-62772759D01*
X168198995Y-62624923D01*
X168305341Y-62495341D01*
X168434922Y-62388996D01*
X168450094Y-62380886D01*
X168582758Y-62309976D01*
X168743177Y-62261313D01*
X168910000Y-62244883D01*
X169076822Y-62261313D01*
X169076822Y-62261313D01*
G37*
G36*
X166536822Y-62261313D02*
G01*
X166697241Y-62309976D01*
X166845077Y-62388995D01*
X166974659Y-62495341D01*
X167081004Y-62624922D01*
X167081005Y-62624924D01*
X167160024Y-62772758D01*
X167208687Y-62933177D01*
X167221000Y-63058196D01*
X167221000Y-63941803D01*
X167208687Y-64066822D01*
X167160024Y-64227242D01*
X167089114Y-64359906D01*
X167081004Y-64375078D01*
X166974659Y-64504659D01*
X166845078Y-64611004D01*
X166845076Y-64611005D01*
X166697242Y-64690024D01*
X166536823Y-64738687D01*
X166370000Y-64755117D01*
X166203178Y-64738687D01*
X166042759Y-64690024D01*
X165894925Y-64611005D01*
X165894923Y-64611004D01*
X165765342Y-64504659D01*
X165658997Y-64375078D01*
X165650887Y-64359906D01*
X165579977Y-64227242D01*
X165531314Y-64066823D01*
X165519000Y-63941803D01*
X165519000Y-63058197D01*
X165531313Y-62933178D01*
X165579976Y-62772759D01*
X165658995Y-62624923D01*
X165765341Y-62495341D01*
X165894922Y-62388996D01*
X165910094Y-62380886D01*
X166042758Y-62309976D01*
X166203177Y-62261313D01*
X166370000Y-62244883D01*
X166536822Y-62261313D01*
X166536822Y-62261313D01*
G37*
G36*
X132500822Y-62261313D02*
G01*
X132661241Y-62309976D01*
X132809077Y-62388995D01*
X132938659Y-62495341D01*
X133045004Y-62624922D01*
X133045005Y-62624924D01*
X133124024Y-62772758D01*
X133172687Y-62933177D01*
X133185000Y-63058196D01*
X133185000Y-63941803D01*
X133172687Y-64066822D01*
X133124024Y-64227242D01*
X133053114Y-64359906D01*
X133045004Y-64375078D01*
X132938659Y-64504659D01*
X132809078Y-64611004D01*
X132809076Y-64611005D01*
X132661242Y-64690024D01*
X132500823Y-64738687D01*
X132334000Y-64755117D01*
X132167178Y-64738687D01*
X132006759Y-64690024D01*
X131858925Y-64611005D01*
X131858923Y-64611004D01*
X131729342Y-64504659D01*
X131622997Y-64375078D01*
X131614887Y-64359906D01*
X131543977Y-64227242D01*
X131495314Y-64066823D01*
X131483000Y-63941803D01*
X131483000Y-63058197D01*
X131495313Y-62933178D01*
X131543976Y-62772759D01*
X131622995Y-62624923D01*
X131729341Y-62495341D01*
X131858922Y-62388996D01*
X131874094Y-62380886D01*
X132006758Y-62309976D01*
X132167177Y-62261313D01*
X132334000Y-62244883D01*
X132500822Y-62261313D01*
X132500822Y-62261313D01*
G37*
G36*
X129960822Y-62261313D02*
G01*
X130121241Y-62309976D01*
X130269077Y-62388995D01*
X130398659Y-62495341D01*
X130505004Y-62624922D01*
X130505005Y-62624924D01*
X130584024Y-62772758D01*
X130632687Y-62933177D01*
X130645000Y-63058196D01*
X130645000Y-63941803D01*
X130632687Y-64066822D01*
X130584024Y-64227242D01*
X130513114Y-64359906D01*
X130505004Y-64375078D01*
X130398659Y-64504659D01*
X130269078Y-64611004D01*
X130269076Y-64611005D01*
X130121242Y-64690024D01*
X129960823Y-64738687D01*
X129794000Y-64755117D01*
X129627178Y-64738687D01*
X129466759Y-64690024D01*
X129318925Y-64611005D01*
X129318923Y-64611004D01*
X129189342Y-64504659D01*
X129082997Y-64375078D01*
X129074887Y-64359906D01*
X129003977Y-64227242D01*
X128955314Y-64066823D01*
X128943000Y-63941803D01*
X128943000Y-63058197D01*
X128955313Y-62933178D01*
X129003976Y-62772759D01*
X129082995Y-62624923D01*
X129189341Y-62495341D01*
X129318922Y-62388996D01*
X129334094Y-62380886D01*
X129466758Y-62309976D01*
X129627177Y-62261313D01*
X129794000Y-62244883D01*
X129960822Y-62261313D01*
X129960822Y-62261313D01*
G37*
G36*
X127420822Y-62261313D02*
G01*
X127581241Y-62309976D01*
X127729077Y-62388995D01*
X127858659Y-62495341D01*
X127965004Y-62624922D01*
X127965005Y-62624924D01*
X128044024Y-62772758D01*
X128092687Y-62933177D01*
X128105000Y-63058196D01*
X128105000Y-63941803D01*
X128092687Y-64066822D01*
X128044024Y-64227242D01*
X127973114Y-64359906D01*
X127965004Y-64375078D01*
X127858659Y-64504659D01*
X127729078Y-64611004D01*
X127729076Y-64611005D01*
X127581242Y-64690024D01*
X127420823Y-64738687D01*
X127254000Y-64755117D01*
X127087178Y-64738687D01*
X126926759Y-64690024D01*
X126778925Y-64611005D01*
X126778923Y-64611004D01*
X126649342Y-64504659D01*
X126542997Y-64375078D01*
X126534887Y-64359906D01*
X126463977Y-64227242D01*
X126415314Y-64066823D01*
X126403000Y-63941803D01*
X126403000Y-63058197D01*
X126415313Y-62933178D01*
X126463976Y-62772759D01*
X126542995Y-62624923D01*
X126649341Y-62495341D01*
X126778922Y-62388996D01*
X126794094Y-62380886D01*
X126926758Y-62309976D01*
X127087177Y-62261313D01*
X127254000Y-62244883D01*
X127420822Y-62261313D01*
X127420822Y-62261313D01*
G37*
G36*
X124880822Y-62261313D02*
G01*
X125041241Y-62309976D01*
X125189077Y-62388995D01*
X125318659Y-62495341D01*
X125425004Y-62624922D01*
X125425005Y-62624924D01*
X125504024Y-62772758D01*
X125552687Y-62933177D01*
X125565000Y-63058196D01*
X125565000Y-63941803D01*
X125552687Y-64066822D01*
X125504024Y-64227242D01*
X125433114Y-64359906D01*
X125425004Y-64375078D01*
X125318659Y-64504659D01*
X125189078Y-64611004D01*
X125189076Y-64611005D01*
X125041242Y-64690024D01*
X124880823Y-64738687D01*
X124714000Y-64755117D01*
X124547178Y-64738687D01*
X124386759Y-64690024D01*
X124238925Y-64611005D01*
X124238923Y-64611004D01*
X124109342Y-64504659D01*
X124002997Y-64375078D01*
X123994887Y-64359906D01*
X123923977Y-64227242D01*
X123875314Y-64066823D01*
X123863000Y-63941803D01*
X123863000Y-63058197D01*
X123875313Y-62933178D01*
X123923976Y-62772759D01*
X124002995Y-62624923D01*
X124109341Y-62495341D01*
X124238922Y-62388996D01*
X124254094Y-62380886D01*
X124386758Y-62309976D01*
X124547177Y-62261313D01*
X124714000Y-62244883D01*
X124880822Y-62261313D01*
X124880822Y-62261313D01*
G37*
G36*
X122340822Y-62261313D02*
G01*
X122501241Y-62309976D01*
X122649077Y-62388995D01*
X122778659Y-62495341D01*
X122885004Y-62624922D01*
X122885005Y-62624924D01*
X122964024Y-62772758D01*
X123012687Y-62933177D01*
X123025000Y-63058196D01*
X123025000Y-63941803D01*
X123012687Y-64066822D01*
X122964024Y-64227242D01*
X122893114Y-64359906D01*
X122885004Y-64375078D01*
X122778659Y-64504659D01*
X122649078Y-64611004D01*
X122649076Y-64611005D01*
X122501242Y-64690024D01*
X122340823Y-64738687D01*
X122174000Y-64755117D01*
X122007178Y-64738687D01*
X121846759Y-64690024D01*
X121698925Y-64611005D01*
X121698923Y-64611004D01*
X121569342Y-64504659D01*
X121462997Y-64375078D01*
X121454887Y-64359906D01*
X121383977Y-64227242D01*
X121335314Y-64066823D01*
X121323000Y-63941803D01*
X121323000Y-63058197D01*
X121335313Y-62933178D01*
X121383976Y-62772759D01*
X121462995Y-62624923D01*
X121569341Y-62495341D01*
X121698922Y-62388996D01*
X121714094Y-62380886D01*
X121846758Y-62309976D01*
X122007177Y-62261313D01*
X122174000Y-62244883D01*
X122340822Y-62261313D01*
X122340822Y-62261313D01*
G37*
G36*
X119800822Y-62261313D02*
G01*
X119961241Y-62309976D01*
X120109077Y-62388995D01*
X120238659Y-62495341D01*
X120345004Y-62624922D01*
X120345005Y-62624924D01*
X120424024Y-62772758D01*
X120472687Y-62933177D01*
X120485000Y-63058196D01*
X120485000Y-63941803D01*
X120472687Y-64066822D01*
X120424024Y-64227242D01*
X120353114Y-64359906D01*
X120345004Y-64375078D01*
X120238659Y-64504659D01*
X120109078Y-64611004D01*
X120109076Y-64611005D01*
X119961242Y-64690024D01*
X119800823Y-64738687D01*
X119634000Y-64755117D01*
X119467178Y-64738687D01*
X119306759Y-64690024D01*
X119158925Y-64611005D01*
X119158923Y-64611004D01*
X119029342Y-64504659D01*
X118922997Y-64375078D01*
X118914887Y-64359906D01*
X118843977Y-64227242D01*
X118795314Y-64066823D01*
X118783000Y-63941803D01*
X118783000Y-63058197D01*
X118795313Y-62933178D01*
X118843976Y-62772759D01*
X118922995Y-62624923D01*
X119029341Y-62495341D01*
X119158922Y-62388996D01*
X119174094Y-62380886D01*
X119306758Y-62309976D01*
X119467177Y-62261313D01*
X119634000Y-62244883D01*
X119800822Y-62261313D01*
X119800822Y-62261313D01*
G37*
G36*
X83401000Y-64751000D02*
G01*
X81699000Y-64751000D01*
X81699000Y-62249000D01*
X83401000Y-62249000D01*
X83401000Y-64751000D01*
X83401000Y-64751000D01*
G37*
G36*
X137757000Y-64751000D02*
G01*
X136055000Y-64751000D01*
X136055000Y-62249000D01*
X137757000Y-62249000D01*
X137757000Y-64751000D01*
X137757000Y-64751000D01*
G37*
G36*
X164681000Y-64751000D02*
G01*
X162979000Y-64751000D01*
X162979000Y-62249000D01*
X164681000Y-62249000D01*
X164681000Y-64751000D01*
X164681000Y-64751000D01*
G37*
G36*
X110325000Y-64751000D02*
G01*
X108623000Y-64751000D01*
X108623000Y-62249000D01*
X110325000Y-62249000D01*
X110325000Y-64751000D01*
X110325000Y-64751000D01*
G37*
G36*
X90336822Y-54641313D02*
G01*
X90497241Y-54689976D01*
X90645077Y-54768995D01*
X90774659Y-54875341D01*
X90881004Y-55004922D01*
X90881005Y-55004924D01*
X90960024Y-55152758D01*
X91008687Y-55313177D01*
X91021000Y-55438196D01*
X91021000Y-56321803D01*
X91008687Y-56446822D01*
X90960024Y-56607242D01*
X90889114Y-56739906D01*
X90881004Y-56755078D01*
X90774659Y-56884659D01*
X90645078Y-56991004D01*
X90645076Y-56991005D01*
X90497242Y-57070024D01*
X90336823Y-57118687D01*
X90170000Y-57135117D01*
X90003178Y-57118687D01*
X89842759Y-57070024D01*
X89694925Y-56991005D01*
X89694923Y-56991004D01*
X89565342Y-56884659D01*
X89458997Y-56755078D01*
X89450887Y-56739906D01*
X89379977Y-56607242D01*
X89331314Y-56446823D01*
X89319000Y-56321803D01*
X89319000Y-55438197D01*
X89331313Y-55313178D01*
X89379976Y-55152759D01*
X89458995Y-55004923D01*
X89565341Y-54875341D01*
X89694922Y-54768996D01*
X89710094Y-54760886D01*
X89842758Y-54689976D01*
X90003177Y-54641313D01*
X90170000Y-54624883D01*
X90336822Y-54641313D01*
X90336822Y-54641313D01*
G37*
G36*
X124880822Y-54641313D02*
G01*
X125041241Y-54689976D01*
X125189077Y-54768995D01*
X125318659Y-54875341D01*
X125425004Y-55004922D01*
X125425005Y-55004924D01*
X125504024Y-55152758D01*
X125552687Y-55313177D01*
X125565000Y-55438196D01*
X125565000Y-56321803D01*
X125552687Y-56446822D01*
X125504024Y-56607242D01*
X125433114Y-56739906D01*
X125425004Y-56755078D01*
X125318659Y-56884659D01*
X125189078Y-56991004D01*
X125189076Y-56991005D01*
X125041242Y-57070024D01*
X124880823Y-57118687D01*
X124714000Y-57135117D01*
X124547178Y-57118687D01*
X124386759Y-57070024D01*
X124238925Y-56991005D01*
X124238923Y-56991004D01*
X124109342Y-56884659D01*
X124002997Y-56755078D01*
X123994887Y-56739906D01*
X123923977Y-56607242D01*
X123875314Y-56446823D01*
X123863000Y-56321803D01*
X123863000Y-55438197D01*
X123875313Y-55313178D01*
X123923976Y-55152759D01*
X124002995Y-55004923D01*
X124109341Y-54875341D01*
X124238922Y-54768996D01*
X124254094Y-54760886D01*
X124386758Y-54689976D01*
X124547177Y-54641313D01*
X124714000Y-54624883D01*
X124880822Y-54641313D01*
X124880822Y-54641313D01*
G37*
G36*
X122340822Y-54641313D02*
G01*
X122501241Y-54689976D01*
X122649077Y-54768995D01*
X122778659Y-54875341D01*
X122885004Y-55004922D01*
X122885005Y-55004924D01*
X122964024Y-55152758D01*
X123012687Y-55313177D01*
X123025000Y-55438196D01*
X123025000Y-56321803D01*
X123012687Y-56446822D01*
X122964024Y-56607242D01*
X122893114Y-56739906D01*
X122885004Y-56755078D01*
X122778659Y-56884659D01*
X122649078Y-56991004D01*
X122649076Y-56991005D01*
X122501242Y-57070024D01*
X122340823Y-57118687D01*
X122174000Y-57135117D01*
X122007178Y-57118687D01*
X121846759Y-57070024D01*
X121698925Y-56991005D01*
X121698923Y-56991004D01*
X121569342Y-56884659D01*
X121462997Y-56755078D01*
X121454887Y-56739906D01*
X121383977Y-56607242D01*
X121335314Y-56446823D01*
X121323000Y-56321803D01*
X121323000Y-55438197D01*
X121335313Y-55313178D01*
X121383976Y-55152759D01*
X121462995Y-55004923D01*
X121569341Y-54875341D01*
X121698922Y-54768996D01*
X121714094Y-54760886D01*
X121846758Y-54689976D01*
X122007177Y-54641313D01*
X122174000Y-54624883D01*
X122340822Y-54641313D01*
X122340822Y-54641313D01*
G37*
G36*
X119800822Y-54641313D02*
G01*
X119961241Y-54689976D01*
X120109077Y-54768995D01*
X120238659Y-54875341D01*
X120345004Y-55004922D01*
X120345005Y-55004924D01*
X120424024Y-55152758D01*
X120472687Y-55313177D01*
X120485000Y-55438196D01*
X120485000Y-56321803D01*
X120472687Y-56446822D01*
X120424024Y-56607242D01*
X120353114Y-56739906D01*
X120345004Y-56755078D01*
X120238659Y-56884659D01*
X120109078Y-56991004D01*
X120109076Y-56991005D01*
X119961242Y-57070024D01*
X119800823Y-57118687D01*
X119634000Y-57135117D01*
X119467178Y-57118687D01*
X119306759Y-57070024D01*
X119158925Y-56991005D01*
X119158923Y-56991004D01*
X119029342Y-56884659D01*
X118922997Y-56755078D01*
X118914887Y-56739906D01*
X118843977Y-56607242D01*
X118795314Y-56446823D01*
X118783000Y-56321803D01*
X118783000Y-55438197D01*
X118795313Y-55313178D01*
X118843976Y-55152759D01*
X118922995Y-55004923D01*
X119029341Y-54875341D01*
X119158922Y-54768996D01*
X119174094Y-54760886D01*
X119306758Y-54689976D01*
X119467177Y-54641313D01*
X119634000Y-54624883D01*
X119800822Y-54641313D01*
X119800822Y-54641313D01*
G37*
G36*
X179236822Y-54641313D02*
G01*
X179397241Y-54689976D01*
X179545077Y-54768995D01*
X179674659Y-54875341D01*
X179781004Y-55004922D01*
X179781005Y-55004924D01*
X179860024Y-55152758D01*
X179908687Y-55313177D01*
X179921000Y-55438196D01*
X179921000Y-56321803D01*
X179908687Y-56446822D01*
X179860024Y-56607242D01*
X179789114Y-56739906D01*
X179781004Y-56755078D01*
X179674659Y-56884659D01*
X179545078Y-56991004D01*
X179545076Y-56991005D01*
X179397242Y-57070024D01*
X179236823Y-57118687D01*
X179070000Y-57135117D01*
X178903178Y-57118687D01*
X178742759Y-57070024D01*
X178594925Y-56991005D01*
X178594923Y-56991004D01*
X178465342Y-56884659D01*
X178358997Y-56755078D01*
X178350887Y-56739906D01*
X178279977Y-56607242D01*
X178231314Y-56446823D01*
X178219000Y-56321803D01*
X178219000Y-55438197D01*
X178231313Y-55313178D01*
X178279976Y-55152759D01*
X178358995Y-55004923D01*
X178465341Y-54875341D01*
X178594922Y-54768996D01*
X178610094Y-54760886D01*
X178742758Y-54689976D01*
X178903177Y-54641313D01*
X179070000Y-54624883D01*
X179236822Y-54641313D01*
X179236822Y-54641313D01*
G37*
G36*
X114720822Y-54641313D02*
G01*
X114881241Y-54689976D01*
X115029077Y-54768995D01*
X115158659Y-54875341D01*
X115265004Y-55004922D01*
X115265005Y-55004924D01*
X115344024Y-55152758D01*
X115392687Y-55313177D01*
X115405000Y-55438196D01*
X115405000Y-56321803D01*
X115392687Y-56446822D01*
X115344024Y-56607242D01*
X115273114Y-56739906D01*
X115265004Y-56755078D01*
X115158659Y-56884659D01*
X115029078Y-56991004D01*
X115029076Y-56991005D01*
X114881242Y-57070024D01*
X114720823Y-57118687D01*
X114554000Y-57135117D01*
X114387178Y-57118687D01*
X114226759Y-57070024D01*
X114078925Y-56991005D01*
X114078923Y-56991004D01*
X113949342Y-56884659D01*
X113842997Y-56755078D01*
X113834887Y-56739906D01*
X113763977Y-56607242D01*
X113715314Y-56446823D01*
X113703000Y-56321803D01*
X113703000Y-55438197D01*
X113715313Y-55313178D01*
X113763976Y-55152759D01*
X113842995Y-55004923D01*
X113949341Y-54875341D01*
X114078922Y-54768996D01*
X114094094Y-54760886D01*
X114226758Y-54689976D01*
X114387177Y-54641313D01*
X114554000Y-54624883D01*
X114720822Y-54641313D01*
X114720822Y-54641313D01*
G37*
G36*
X112180822Y-54641313D02*
G01*
X112341241Y-54689976D01*
X112489077Y-54768995D01*
X112618659Y-54875341D01*
X112725004Y-55004922D01*
X112725005Y-55004924D01*
X112804024Y-55152758D01*
X112852687Y-55313177D01*
X112865000Y-55438196D01*
X112865000Y-56321803D01*
X112852687Y-56446822D01*
X112804024Y-56607242D01*
X112733114Y-56739906D01*
X112725004Y-56755078D01*
X112618659Y-56884659D01*
X112489078Y-56991004D01*
X112489076Y-56991005D01*
X112341242Y-57070024D01*
X112180823Y-57118687D01*
X112014000Y-57135117D01*
X111847178Y-57118687D01*
X111686759Y-57070024D01*
X111538925Y-56991005D01*
X111538923Y-56991004D01*
X111409342Y-56884659D01*
X111302997Y-56755078D01*
X111294887Y-56739906D01*
X111223977Y-56607242D01*
X111175314Y-56446823D01*
X111163000Y-56321803D01*
X111163000Y-55438197D01*
X111175313Y-55313178D01*
X111223976Y-55152759D01*
X111302995Y-55004923D01*
X111409341Y-54875341D01*
X111538922Y-54768996D01*
X111554094Y-54760886D01*
X111686758Y-54689976D01*
X111847177Y-54641313D01*
X112014000Y-54624883D01*
X112180822Y-54641313D01*
X112180822Y-54641313D01*
G37*
G36*
X109640822Y-54641313D02*
G01*
X109801241Y-54689976D01*
X109949077Y-54768995D01*
X110078659Y-54875341D01*
X110185004Y-55004922D01*
X110185005Y-55004924D01*
X110264024Y-55152758D01*
X110312687Y-55313177D01*
X110325000Y-55438196D01*
X110325000Y-56321803D01*
X110312687Y-56446822D01*
X110264024Y-56607242D01*
X110193114Y-56739906D01*
X110185004Y-56755078D01*
X110078659Y-56884659D01*
X109949078Y-56991004D01*
X109949076Y-56991005D01*
X109801242Y-57070024D01*
X109640823Y-57118687D01*
X109474000Y-57135117D01*
X109307178Y-57118687D01*
X109146759Y-57070024D01*
X108998925Y-56991005D01*
X108998923Y-56991004D01*
X108869342Y-56884659D01*
X108762997Y-56755078D01*
X108754887Y-56739906D01*
X108683977Y-56607242D01*
X108635314Y-56446823D01*
X108623000Y-56321803D01*
X108623000Y-55438197D01*
X108635313Y-55313178D01*
X108683976Y-55152759D01*
X108762995Y-55004923D01*
X108869341Y-54875341D01*
X108998922Y-54768996D01*
X109014094Y-54760886D01*
X109146758Y-54689976D01*
X109307177Y-54641313D01*
X109474000Y-54624883D01*
X109640822Y-54641313D01*
X109640822Y-54641313D01*
G37*
G36*
X186856822Y-54641313D02*
G01*
X187017241Y-54689976D01*
X187165077Y-54768995D01*
X187294659Y-54875341D01*
X187401004Y-55004922D01*
X187401005Y-55004924D01*
X187480024Y-55152758D01*
X187528687Y-55313177D01*
X187541000Y-55438196D01*
X187541000Y-56321803D01*
X187528687Y-56446822D01*
X187480024Y-56607242D01*
X187409114Y-56739906D01*
X187401004Y-56755078D01*
X187294659Y-56884659D01*
X187165078Y-56991004D01*
X187165076Y-56991005D01*
X187017242Y-57070024D01*
X186856823Y-57118687D01*
X186690000Y-57135117D01*
X186523178Y-57118687D01*
X186362759Y-57070024D01*
X186214925Y-56991005D01*
X186214923Y-56991004D01*
X186085342Y-56884659D01*
X185978997Y-56755078D01*
X185970887Y-56739906D01*
X185899977Y-56607242D01*
X185851314Y-56446823D01*
X185839000Y-56321803D01*
X185839000Y-55438197D01*
X185851313Y-55313178D01*
X185899976Y-55152759D01*
X185978995Y-55004923D01*
X186085341Y-54875341D01*
X186214922Y-54768996D01*
X186230094Y-54760886D01*
X186362758Y-54689976D01*
X186523177Y-54641313D01*
X186690000Y-54624883D01*
X186856822Y-54641313D01*
X186856822Y-54641313D01*
G37*
G36*
X184316822Y-54641313D02*
G01*
X184477241Y-54689976D01*
X184625077Y-54768995D01*
X184754659Y-54875341D01*
X184861004Y-55004922D01*
X184861005Y-55004924D01*
X184940024Y-55152758D01*
X184988687Y-55313177D01*
X185001000Y-55438196D01*
X185001000Y-56321803D01*
X184988687Y-56446822D01*
X184940024Y-56607242D01*
X184869114Y-56739906D01*
X184861004Y-56755078D01*
X184754659Y-56884659D01*
X184625078Y-56991004D01*
X184625076Y-56991005D01*
X184477242Y-57070024D01*
X184316823Y-57118687D01*
X184150000Y-57135117D01*
X183983178Y-57118687D01*
X183822759Y-57070024D01*
X183674925Y-56991005D01*
X183674923Y-56991004D01*
X183545342Y-56884659D01*
X183438997Y-56755078D01*
X183430887Y-56739906D01*
X183359977Y-56607242D01*
X183311314Y-56446823D01*
X183299000Y-56321803D01*
X183299000Y-55438197D01*
X183311313Y-55313178D01*
X183359976Y-55152759D01*
X183438995Y-55004923D01*
X183545341Y-54875341D01*
X183674922Y-54768996D01*
X183690094Y-54760886D01*
X183822758Y-54689976D01*
X183983177Y-54641313D01*
X184150000Y-54624883D01*
X184316822Y-54641313D01*
X184316822Y-54641313D01*
G37*
G36*
X181776822Y-54641313D02*
G01*
X181937241Y-54689976D01*
X182085077Y-54768995D01*
X182214659Y-54875341D01*
X182321004Y-55004922D01*
X182321005Y-55004924D01*
X182400024Y-55152758D01*
X182448687Y-55313177D01*
X182461000Y-55438196D01*
X182461000Y-56321803D01*
X182448687Y-56446822D01*
X182400024Y-56607242D01*
X182329114Y-56739906D01*
X182321004Y-56755078D01*
X182214659Y-56884659D01*
X182085078Y-56991004D01*
X182085076Y-56991005D01*
X181937242Y-57070024D01*
X181776823Y-57118687D01*
X181610000Y-57135117D01*
X181443178Y-57118687D01*
X181282759Y-57070024D01*
X181134925Y-56991005D01*
X181134923Y-56991004D01*
X181005342Y-56884659D01*
X180898997Y-56755078D01*
X180890887Y-56739906D01*
X180819977Y-56607242D01*
X180771314Y-56446823D01*
X180759000Y-56321803D01*
X180759000Y-55438197D01*
X180771313Y-55313178D01*
X180819976Y-55152759D01*
X180898995Y-55004923D01*
X181005341Y-54875341D01*
X181134922Y-54768996D01*
X181150094Y-54760886D01*
X181282758Y-54689976D01*
X181443177Y-54641313D01*
X181610000Y-54624883D01*
X181776822Y-54641313D01*
X181776822Y-54641313D01*
G37*
G36*
X82716822Y-54641313D02*
G01*
X82877241Y-54689976D01*
X83025077Y-54768995D01*
X83154659Y-54875341D01*
X83261004Y-55004922D01*
X83261005Y-55004924D01*
X83340024Y-55152758D01*
X83388687Y-55313177D01*
X83401000Y-55438196D01*
X83401000Y-56321803D01*
X83388687Y-56446822D01*
X83340024Y-56607242D01*
X83269114Y-56739906D01*
X83261004Y-56755078D01*
X83154659Y-56884659D01*
X83025078Y-56991004D01*
X83025076Y-56991005D01*
X82877242Y-57070024D01*
X82716823Y-57118687D01*
X82550000Y-57135117D01*
X82383178Y-57118687D01*
X82222759Y-57070024D01*
X82074925Y-56991005D01*
X82074923Y-56991004D01*
X81945342Y-56884659D01*
X81838997Y-56755078D01*
X81830887Y-56739906D01*
X81759977Y-56607242D01*
X81711314Y-56446823D01*
X81699000Y-56321803D01*
X81699000Y-55438197D01*
X81711313Y-55313178D01*
X81759976Y-55152759D01*
X81838995Y-55004923D01*
X81945341Y-54875341D01*
X82074922Y-54768996D01*
X82090094Y-54760886D01*
X82222758Y-54689976D01*
X82383177Y-54641313D01*
X82550000Y-54624883D01*
X82716822Y-54641313D01*
X82716822Y-54641313D01*
G37*
G36*
X85256822Y-54641313D02*
G01*
X85417241Y-54689976D01*
X85565077Y-54768995D01*
X85694659Y-54875341D01*
X85801004Y-55004922D01*
X85801005Y-55004924D01*
X85880024Y-55152758D01*
X85928687Y-55313177D01*
X85941000Y-55438196D01*
X85941000Y-56321803D01*
X85928687Y-56446822D01*
X85880024Y-56607242D01*
X85809114Y-56739906D01*
X85801004Y-56755078D01*
X85694659Y-56884659D01*
X85565078Y-56991004D01*
X85565076Y-56991005D01*
X85417242Y-57070024D01*
X85256823Y-57118687D01*
X85090000Y-57135117D01*
X84923178Y-57118687D01*
X84762759Y-57070024D01*
X84614925Y-56991005D01*
X84614923Y-56991004D01*
X84485342Y-56884659D01*
X84378997Y-56755078D01*
X84370887Y-56739906D01*
X84299977Y-56607242D01*
X84251314Y-56446823D01*
X84239000Y-56321803D01*
X84239000Y-55438197D01*
X84251313Y-55313178D01*
X84299976Y-55152759D01*
X84378995Y-55004923D01*
X84485341Y-54875341D01*
X84614922Y-54768996D01*
X84630094Y-54760886D01*
X84762758Y-54689976D01*
X84923177Y-54641313D01*
X85090000Y-54624883D01*
X85256822Y-54641313D01*
X85256822Y-54641313D01*
G37*
G36*
X87796822Y-54641313D02*
G01*
X87957241Y-54689976D01*
X88105077Y-54768995D01*
X88234659Y-54875341D01*
X88341004Y-55004922D01*
X88341005Y-55004924D01*
X88420024Y-55152758D01*
X88468687Y-55313177D01*
X88481000Y-55438196D01*
X88481000Y-56321803D01*
X88468687Y-56446822D01*
X88420024Y-56607242D01*
X88349114Y-56739906D01*
X88341004Y-56755078D01*
X88234659Y-56884659D01*
X88105078Y-56991004D01*
X88105076Y-56991005D01*
X87957242Y-57070024D01*
X87796823Y-57118687D01*
X87630000Y-57135117D01*
X87463178Y-57118687D01*
X87302759Y-57070024D01*
X87154925Y-56991005D01*
X87154923Y-56991004D01*
X87025342Y-56884659D01*
X86918997Y-56755078D01*
X86910887Y-56739906D01*
X86839977Y-56607242D01*
X86791314Y-56446823D01*
X86779000Y-56321803D01*
X86779000Y-55438197D01*
X86791313Y-55313178D01*
X86839976Y-55152759D01*
X86918995Y-55004923D01*
X87025341Y-54875341D01*
X87154922Y-54768996D01*
X87170094Y-54760886D01*
X87302758Y-54689976D01*
X87463177Y-54641313D01*
X87630000Y-54624883D01*
X87796822Y-54641313D01*
X87796822Y-54641313D01*
G37*
G36*
X92876822Y-54641313D02*
G01*
X93037241Y-54689976D01*
X93185077Y-54768995D01*
X93314659Y-54875341D01*
X93421004Y-55004922D01*
X93421005Y-55004924D01*
X93500024Y-55152758D01*
X93548687Y-55313177D01*
X93561000Y-55438196D01*
X93561000Y-56321803D01*
X93548687Y-56446822D01*
X93500024Y-56607242D01*
X93429114Y-56739906D01*
X93421004Y-56755078D01*
X93314659Y-56884659D01*
X93185078Y-56991004D01*
X93185076Y-56991005D01*
X93037242Y-57070024D01*
X92876823Y-57118687D01*
X92710000Y-57135117D01*
X92543178Y-57118687D01*
X92382759Y-57070024D01*
X92234925Y-56991005D01*
X92234923Y-56991004D01*
X92105342Y-56884659D01*
X91998997Y-56755078D01*
X91990887Y-56739906D01*
X91919977Y-56607242D01*
X91871314Y-56446823D01*
X91859000Y-56321803D01*
X91859000Y-55438197D01*
X91871313Y-55313178D01*
X91919976Y-55152759D01*
X91998995Y-55004923D01*
X92105341Y-54875341D01*
X92234922Y-54768996D01*
X92250094Y-54760886D01*
X92382758Y-54689976D01*
X92543177Y-54641313D01*
X92710000Y-54624883D01*
X92876822Y-54641313D01*
X92876822Y-54641313D01*
G37*
G36*
X95416822Y-54641313D02*
G01*
X95577241Y-54689976D01*
X95725077Y-54768995D01*
X95854659Y-54875341D01*
X95961004Y-55004922D01*
X95961005Y-55004924D01*
X96040024Y-55152758D01*
X96088687Y-55313177D01*
X96101000Y-55438196D01*
X96101000Y-56321803D01*
X96088687Y-56446822D01*
X96040024Y-56607242D01*
X95969114Y-56739906D01*
X95961004Y-56755078D01*
X95854659Y-56884659D01*
X95725078Y-56991004D01*
X95725076Y-56991005D01*
X95577242Y-57070024D01*
X95416823Y-57118687D01*
X95250000Y-57135117D01*
X95083178Y-57118687D01*
X94922759Y-57070024D01*
X94774925Y-56991005D01*
X94774923Y-56991004D01*
X94645342Y-56884659D01*
X94538997Y-56755078D01*
X94530887Y-56739906D01*
X94459977Y-56607242D01*
X94411314Y-56446823D01*
X94399000Y-56321803D01*
X94399000Y-55438197D01*
X94411313Y-55313178D01*
X94459976Y-55152759D01*
X94538995Y-55004923D01*
X94645341Y-54875341D01*
X94774922Y-54768996D01*
X94790094Y-54760886D01*
X94922758Y-54689976D01*
X95083177Y-54641313D01*
X95250000Y-54624883D01*
X95416822Y-54641313D01*
X95416822Y-54641313D01*
G37*
G36*
X97956822Y-54641313D02*
G01*
X98117241Y-54689976D01*
X98265077Y-54768995D01*
X98394659Y-54875341D01*
X98501004Y-55004922D01*
X98501005Y-55004924D01*
X98580024Y-55152758D01*
X98628687Y-55313177D01*
X98641000Y-55438196D01*
X98641000Y-56321803D01*
X98628687Y-56446822D01*
X98580024Y-56607242D01*
X98509114Y-56739906D01*
X98501004Y-56755078D01*
X98394659Y-56884659D01*
X98265078Y-56991004D01*
X98265076Y-56991005D01*
X98117242Y-57070024D01*
X97956823Y-57118687D01*
X97790000Y-57135117D01*
X97623178Y-57118687D01*
X97462759Y-57070024D01*
X97314925Y-56991005D01*
X97314923Y-56991004D01*
X97185342Y-56884659D01*
X97078997Y-56755078D01*
X97070887Y-56739906D01*
X96999977Y-56607242D01*
X96951314Y-56446823D01*
X96939000Y-56321803D01*
X96939000Y-55438197D01*
X96951313Y-55313178D01*
X96999976Y-55152759D01*
X97078995Y-55004923D01*
X97185341Y-54875341D01*
X97314922Y-54768996D01*
X97330094Y-54760886D01*
X97462758Y-54689976D01*
X97623177Y-54641313D01*
X97790000Y-54624883D01*
X97956822Y-54641313D01*
X97956822Y-54641313D01*
G37*
G36*
X100496822Y-54641313D02*
G01*
X100657241Y-54689976D01*
X100805077Y-54768995D01*
X100934659Y-54875341D01*
X101041004Y-55004922D01*
X101041005Y-55004924D01*
X101120024Y-55152758D01*
X101168687Y-55313177D01*
X101181000Y-55438196D01*
X101181000Y-56321803D01*
X101168687Y-56446822D01*
X101120024Y-56607242D01*
X101049114Y-56739906D01*
X101041004Y-56755078D01*
X100934659Y-56884659D01*
X100805078Y-56991004D01*
X100805076Y-56991005D01*
X100657242Y-57070024D01*
X100496823Y-57118687D01*
X100330000Y-57135117D01*
X100163178Y-57118687D01*
X100002759Y-57070024D01*
X99854925Y-56991005D01*
X99854923Y-56991004D01*
X99725342Y-56884659D01*
X99618997Y-56755078D01*
X99610887Y-56739906D01*
X99539977Y-56607242D01*
X99491314Y-56446823D01*
X99479000Y-56321803D01*
X99479000Y-55438197D01*
X99491313Y-55313178D01*
X99539976Y-55152759D01*
X99618995Y-55004923D01*
X99725341Y-54875341D01*
X99854922Y-54768996D01*
X99870094Y-54760886D01*
X100002758Y-54689976D01*
X100163177Y-54641313D01*
X100330000Y-54624883D01*
X100496822Y-54641313D01*
X100496822Y-54641313D01*
G37*
G36*
X103036822Y-54641313D02*
G01*
X103197241Y-54689976D01*
X103345077Y-54768995D01*
X103474659Y-54875341D01*
X103581004Y-55004922D01*
X103581005Y-55004924D01*
X103660024Y-55152758D01*
X103708687Y-55313177D01*
X103721000Y-55438196D01*
X103721000Y-56321803D01*
X103708687Y-56446822D01*
X103660024Y-56607242D01*
X103589114Y-56739906D01*
X103581004Y-56755078D01*
X103474659Y-56884659D01*
X103345078Y-56991004D01*
X103345076Y-56991005D01*
X103197242Y-57070024D01*
X103036823Y-57118687D01*
X102870000Y-57135117D01*
X102703178Y-57118687D01*
X102542759Y-57070024D01*
X102394925Y-56991005D01*
X102394923Y-56991004D01*
X102265342Y-56884659D01*
X102158997Y-56755078D01*
X102150887Y-56739906D01*
X102079977Y-56607242D01*
X102031314Y-56446823D01*
X102019000Y-56321803D01*
X102019000Y-55438197D01*
X102031313Y-55313178D01*
X102079976Y-55152759D01*
X102158995Y-55004923D01*
X102265341Y-54875341D01*
X102394922Y-54768996D01*
X102410094Y-54760886D01*
X102542758Y-54689976D01*
X102703177Y-54641313D01*
X102870000Y-54624883D01*
X103036822Y-54641313D01*
X103036822Y-54641313D01*
G37*
G36*
X105576822Y-54641313D02*
G01*
X105737241Y-54689976D01*
X105885077Y-54768995D01*
X106014659Y-54875341D01*
X106121004Y-55004922D01*
X106121005Y-55004924D01*
X106200024Y-55152758D01*
X106248687Y-55313177D01*
X106261000Y-55438196D01*
X106261000Y-56321803D01*
X106248687Y-56446822D01*
X106200024Y-56607242D01*
X106129114Y-56739906D01*
X106121004Y-56755078D01*
X106014659Y-56884659D01*
X105885078Y-56991004D01*
X105885076Y-56991005D01*
X105737242Y-57070024D01*
X105576823Y-57118687D01*
X105410000Y-57135117D01*
X105243178Y-57118687D01*
X105082759Y-57070024D01*
X104934925Y-56991005D01*
X104934923Y-56991004D01*
X104805342Y-56884659D01*
X104698997Y-56755078D01*
X104690887Y-56739906D01*
X104619977Y-56607242D01*
X104571314Y-56446823D01*
X104559000Y-56321803D01*
X104559000Y-55438197D01*
X104571313Y-55313178D01*
X104619976Y-55152759D01*
X104698995Y-55004923D01*
X104805341Y-54875341D01*
X104934922Y-54768996D01*
X104950094Y-54760886D01*
X105082758Y-54689976D01*
X105243177Y-54641313D01*
X105410000Y-54624883D01*
X105576822Y-54641313D01*
X105576822Y-54641313D01*
G37*
G36*
X149772822Y-54641313D02*
G01*
X149933241Y-54689976D01*
X150081077Y-54768995D01*
X150210659Y-54875341D01*
X150317004Y-55004922D01*
X150317005Y-55004924D01*
X150396024Y-55152758D01*
X150444687Y-55313177D01*
X150457000Y-55438196D01*
X150457000Y-56321803D01*
X150444687Y-56446822D01*
X150396024Y-56607242D01*
X150325114Y-56739906D01*
X150317004Y-56755078D01*
X150210659Y-56884659D01*
X150081078Y-56991004D01*
X150081076Y-56991005D01*
X149933242Y-57070024D01*
X149772823Y-57118687D01*
X149606000Y-57135117D01*
X149439178Y-57118687D01*
X149278759Y-57070024D01*
X149130925Y-56991005D01*
X149130923Y-56991004D01*
X149001342Y-56884659D01*
X148894997Y-56755078D01*
X148886887Y-56739906D01*
X148815977Y-56607242D01*
X148767314Y-56446823D01*
X148755000Y-56321803D01*
X148755000Y-55438197D01*
X148767313Y-55313178D01*
X148815976Y-55152759D01*
X148894995Y-55004923D01*
X149001341Y-54875341D01*
X149130922Y-54768996D01*
X149146094Y-54760886D01*
X149278758Y-54689976D01*
X149439177Y-54641313D01*
X149606000Y-54624883D01*
X149772822Y-54641313D01*
X149772822Y-54641313D01*
G37*
G36*
X163996822Y-54641313D02*
G01*
X164157241Y-54689976D01*
X164305077Y-54768995D01*
X164434659Y-54875341D01*
X164541004Y-55004922D01*
X164541005Y-55004924D01*
X164620024Y-55152758D01*
X164668687Y-55313177D01*
X164681000Y-55438196D01*
X164681000Y-56321803D01*
X164668687Y-56446822D01*
X164620024Y-56607242D01*
X164549114Y-56739906D01*
X164541004Y-56755078D01*
X164434659Y-56884659D01*
X164305078Y-56991004D01*
X164305076Y-56991005D01*
X164157242Y-57070024D01*
X163996823Y-57118687D01*
X163830000Y-57135117D01*
X163663178Y-57118687D01*
X163502759Y-57070024D01*
X163354925Y-56991005D01*
X163354923Y-56991004D01*
X163225342Y-56884659D01*
X163118997Y-56755078D01*
X163110887Y-56739906D01*
X163039977Y-56607242D01*
X162991314Y-56446823D01*
X162979000Y-56321803D01*
X162979000Y-55438197D01*
X162991313Y-55313178D01*
X163039976Y-55152759D01*
X163118995Y-55004923D01*
X163225341Y-54875341D01*
X163354922Y-54768996D01*
X163370094Y-54760886D01*
X163502758Y-54689976D01*
X163663177Y-54641313D01*
X163830000Y-54624883D01*
X163996822Y-54641313D01*
X163996822Y-54641313D01*
G37*
G36*
X176696822Y-54641313D02*
G01*
X176857241Y-54689976D01*
X177005077Y-54768995D01*
X177134659Y-54875341D01*
X177241004Y-55004922D01*
X177241005Y-55004924D01*
X177320024Y-55152758D01*
X177368687Y-55313177D01*
X177381000Y-55438196D01*
X177381000Y-56321803D01*
X177368687Y-56446822D01*
X177320024Y-56607242D01*
X177249114Y-56739906D01*
X177241004Y-56755078D01*
X177134659Y-56884659D01*
X177005078Y-56991004D01*
X177005076Y-56991005D01*
X176857242Y-57070024D01*
X176696823Y-57118687D01*
X176530000Y-57135117D01*
X176363178Y-57118687D01*
X176202759Y-57070024D01*
X176054925Y-56991005D01*
X176054923Y-56991004D01*
X175925342Y-56884659D01*
X175818997Y-56755078D01*
X175810887Y-56739906D01*
X175739977Y-56607242D01*
X175691314Y-56446823D01*
X175679000Y-56321803D01*
X175679000Y-55438197D01*
X175691313Y-55313178D01*
X175739976Y-55152759D01*
X175818995Y-55004923D01*
X175925341Y-54875341D01*
X176054922Y-54768996D01*
X176070094Y-54760886D01*
X176202758Y-54689976D01*
X176363177Y-54641313D01*
X176530000Y-54624883D01*
X176696822Y-54641313D01*
X176696822Y-54641313D01*
G37*
G36*
X152312822Y-54641313D02*
G01*
X152473241Y-54689976D01*
X152621077Y-54768995D01*
X152750659Y-54875341D01*
X152857004Y-55004922D01*
X152857005Y-55004924D01*
X152936024Y-55152758D01*
X152984687Y-55313177D01*
X152997000Y-55438196D01*
X152997000Y-56321803D01*
X152984687Y-56446822D01*
X152936024Y-56607242D01*
X152865114Y-56739906D01*
X152857004Y-56755078D01*
X152750659Y-56884659D01*
X152621078Y-56991004D01*
X152621076Y-56991005D01*
X152473242Y-57070024D01*
X152312823Y-57118687D01*
X152146000Y-57135117D01*
X151979178Y-57118687D01*
X151818759Y-57070024D01*
X151670925Y-56991005D01*
X151670923Y-56991004D01*
X151541342Y-56884659D01*
X151434997Y-56755078D01*
X151426887Y-56739906D01*
X151355977Y-56607242D01*
X151307314Y-56446823D01*
X151295000Y-56321803D01*
X151295000Y-55438197D01*
X151307313Y-55313178D01*
X151355976Y-55152759D01*
X151434995Y-55004923D01*
X151541341Y-54875341D01*
X151670922Y-54768996D01*
X151686094Y-54760886D01*
X151818758Y-54689976D01*
X151979177Y-54641313D01*
X152146000Y-54624883D01*
X152312822Y-54641313D01*
X152312822Y-54641313D01*
G37*
G36*
X174156822Y-54641313D02*
G01*
X174317241Y-54689976D01*
X174465077Y-54768995D01*
X174594659Y-54875341D01*
X174701004Y-55004922D01*
X174701005Y-55004924D01*
X174780024Y-55152758D01*
X174828687Y-55313177D01*
X174841000Y-55438196D01*
X174841000Y-56321803D01*
X174828687Y-56446822D01*
X174780024Y-56607242D01*
X174709114Y-56739906D01*
X174701004Y-56755078D01*
X174594659Y-56884659D01*
X174465078Y-56991004D01*
X174465076Y-56991005D01*
X174317242Y-57070024D01*
X174156823Y-57118687D01*
X173990000Y-57135117D01*
X173823178Y-57118687D01*
X173662759Y-57070024D01*
X173514925Y-56991005D01*
X173514923Y-56991004D01*
X173385342Y-56884659D01*
X173278997Y-56755078D01*
X173270887Y-56739906D01*
X173199977Y-56607242D01*
X173151314Y-56446823D01*
X173139000Y-56321803D01*
X173139000Y-55438197D01*
X173151313Y-55313178D01*
X173199976Y-55152759D01*
X173278995Y-55004923D01*
X173385341Y-54875341D01*
X173514922Y-54768996D01*
X173530094Y-54760886D01*
X173662758Y-54689976D01*
X173823177Y-54641313D01*
X173990000Y-54624883D01*
X174156822Y-54641313D01*
X174156822Y-54641313D01*
G37*
G36*
X171616822Y-54641313D02*
G01*
X171777241Y-54689976D01*
X171925077Y-54768995D01*
X172054659Y-54875341D01*
X172161004Y-55004922D01*
X172161005Y-55004924D01*
X172240024Y-55152758D01*
X172288687Y-55313177D01*
X172301000Y-55438196D01*
X172301000Y-56321803D01*
X172288687Y-56446822D01*
X172240024Y-56607242D01*
X172169114Y-56739906D01*
X172161004Y-56755078D01*
X172054659Y-56884659D01*
X171925078Y-56991004D01*
X171925076Y-56991005D01*
X171777242Y-57070024D01*
X171616823Y-57118687D01*
X171450000Y-57135117D01*
X171283178Y-57118687D01*
X171122759Y-57070024D01*
X170974925Y-56991005D01*
X170974923Y-56991004D01*
X170845342Y-56884659D01*
X170738997Y-56755078D01*
X170730887Y-56739906D01*
X170659977Y-56607242D01*
X170611314Y-56446823D01*
X170599000Y-56321803D01*
X170599000Y-55438197D01*
X170611313Y-55313178D01*
X170659976Y-55152759D01*
X170738995Y-55004923D01*
X170845341Y-54875341D01*
X170974922Y-54768996D01*
X170990094Y-54760886D01*
X171122758Y-54689976D01*
X171283177Y-54641313D01*
X171450000Y-54624883D01*
X171616822Y-54641313D01*
X171616822Y-54641313D01*
G37*
G36*
X154852822Y-54641313D02*
G01*
X155013241Y-54689976D01*
X155161077Y-54768995D01*
X155290659Y-54875341D01*
X155397004Y-55004922D01*
X155397005Y-55004924D01*
X155476024Y-55152758D01*
X155524687Y-55313177D01*
X155537000Y-55438196D01*
X155537000Y-56321803D01*
X155524687Y-56446822D01*
X155476024Y-56607242D01*
X155405114Y-56739906D01*
X155397004Y-56755078D01*
X155290659Y-56884659D01*
X155161078Y-56991004D01*
X155161076Y-56991005D01*
X155013242Y-57070024D01*
X154852823Y-57118687D01*
X154686000Y-57135117D01*
X154519178Y-57118687D01*
X154358759Y-57070024D01*
X154210925Y-56991005D01*
X154210923Y-56991004D01*
X154081342Y-56884659D01*
X153974997Y-56755078D01*
X153966887Y-56739906D01*
X153895977Y-56607242D01*
X153847314Y-56446823D01*
X153835000Y-56321803D01*
X153835000Y-55438197D01*
X153847313Y-55313178D01*
X153895976Y-55152759D01*
X153974995Y-55004923D01*
X154081341Y-54875341D01*
X154210922Y-54768996D01*
X154226094Y-54760886D01*
X154358758Y-54689976D01*
X154519177Y-54641313D01*
X154686000Y-54624883D01*
X154852822Y-54641313D01*
X154852822Y-54641313D01*
G37*
G36*
X169076822Y-54641313D02*
G01*
X169237241Y-54689976D01*
X169385077Y-54768995D01*
X169514659Y-54875341D01*
X169621004Y-55004922D01*
X169621005Y-55004924D01*
X169700024Y-55152758D01*
X169748687Y-55313177D01*
X169761000Y-55438196D01*
X169761000Y-56321803D01*
X169748687Y-56446822D01*
X169700024Y-56607242D01*
X169629114Y-56739906D01*
X169621004Y-56755078D01*
X169514659Y-56884659D01*
X169385078Y-56991004D01*
X169385076Y-56991005D01*
X169237242Y-57070024D01*
X169076823Y-57118687D01*
X168910000Y-57135117D01*
X168743178Y-57118687D01*
X168582759Y-57070024D01*
X168434925Y-56991005D01*
X168434923Y-56991004D01*
X168305342Y-56884659D01*
X168198997Y-56755078D01*
X168190887Y-56739906D01*
X168119977Y-56607242D01*
X168071314Y-56446823D01*
X168059000Y-56321803D01*
X168059000Y-55438197D01*
X168071313Y-55313178D01*
X168119976Y-55152759D01*
X168198995Y-55004923D01*
X168305341Y-54875341D01*
X168434922Y-54768996D01*
X168450094Y-54760886D01*
X168582758Y-54689976D01*
X168743177Y-54641313D01*
X168910000Y-54624883D01*
X169076822Y-54641313D01*
X169076822Y-54641313D01*
G37*
G36*
X166536822Y-54641313D02*
G01*
X166697241Y-54689976D01*
X166845077Y-54768995D01*
X166974659Y-54875341D01*
X167081004Y-55004922D01*
X167081005Y-55004924D01*
X167160024Y-55152758D01*
X167208687Y-55313177D01*
X167221000Y-55438196D01*
X167221000Y-56321803D01*
X167208687Y-56446822D01*
X167160024Y-56607242D01*
X167089114Y-56739906D01*
X167081004Y-56755078D01*
X166974659Y-56884659D01*
X166845078Y-56991004D01*
X166845076Y-56991005D01*
X166697242Y-57070024D01*
X166536823Y-57118687D01*
X166370000Y-57135117D01*
X166203178Y-57118687D01*
X166042759Y-57070024D01*
X165894925Y-56991005D01*
X165894923Y-56991004D01*
X165765342Y-56884659D01*
X165658997Y-56755078D01*
X165650887Y-56739906D01*
X165579977Y-56607242D01*
X165531314Y-56446823D01*
X165519000Y-56321803D01*
X165519000Y-55438197D01*
X165531313Y-55313178D01*
X165579976Y-55152759D01*
X165658995Y-55004923D01*
X165765341Y-54875341D01*
X165894922Y-54768996D01*
X165910094Y-54760886D01*
X166042758Y-54689976D01*
X166203177Y-54641313D01*
X166370000Y-54624883D01*
X166536822Y-54641313D01*
X166536822Y-54641313D01*
G37*
G36*
X157392822Y-54641313D02*
G01*
X157553241Y-54689976D01*
X157701077Y-54768995D01*
X157830659Y-54875341D01*
X157937004Y-55004922D01*
X157937005Y-55004924D01*
X158016024Y-55152758D01*
X158064687Y-55313177D01*
X158077000Y-55438196D01*
X158077000Y-56321803D01*
X158064687Y-56446822D01*
X158016024Y-56607242D01*
X157945114Y-56739906D01*
X157937004Y-56755078D01*
X157830659Y-56884659D01*
X157701078Y-56991004D01*
X157701076Y-56991005D01*
X157553242Y-57070024D01*
X157392823Y-57118687D01*
X157226000Y-57135117D01*
X157059178Y-57118687D01*
X156898759Y-57070024D01*
X156750925Y-56991005D01*
X156750923Y-56991004D01*
X156621342Y-56884659D01*
X156514997Y-56755078D01*
X156506887Y-56739906D01*
X156435977Y-56607242D01*
X156387314Y-56446823D01*
X156375000Y-56321803D01*
X156375000Y-55438197D01*
X156387313Y-55313178D01*
X156435976Y-55152759D01*
X156514995Y-55004923D01*
X156621341Y-54875341D01*
X156750922Y-54768996D01*
X156766094Y-54760886D01*
X156898758Y-54689976D01*
X157059177Y-54641313D01*
X157226000Y-54624883D01*
X157392822Y-54641313D01*
X157392822Y-54641313D01*
G37*
G36*
X127420822Y-54641313D02*
G01*
X127581241Y-54689976D01*
X127729077Y-54768995D01*
X127858659Y-54875341D01*
X127965004Y-55004922D01*
X127965005Y-55004924D01*
X128044024Y-55152758D01*
X128092687Y-55313177D01*
X128105000Y-55438196D01*
X128105000Y-56321803D01*
X128092687Y-56446822D01*
X128044024Y-56607242D01*
X127973114Y-56739906D01*
X127965004Y-56755078D01*
X127858659Y-56884659D01*
X127729078Y-56991004D01*
X127729076Y-56991005D01*
X127581242Y-57070024D01*
X127420823Y-57118687D01*
X127254000Y-57135117D01*
X127087178Y-57118687D01*
X126926759Y-57070024D01*
X126778925Y-56991005D01*
X126778923Y-56991004D01*
X126649342Y-56884659D01*
X126542997Y-56755078D01*
X126534887Y-56739906D01*
X126463977Y-56607242D01*
X126415314Y-56446823D01*
X126403000Y-56321803D01*
X126403000Y-55438197D01*
X126415313Y-55313178D01*
X126463976Y-55152759D01*
X126542995Y-55004923D01*
X126649341Y-54875341D01*
X126778922Y-54768996D01*
X126794094Y-54760886D01*
X126926758Y-54689976D01*
X127087177Y-54641313D01*
X127254000Y-54624883D01*
X127420822Y-54641313D01*
X127420822Y-54641313D01*
G37*
G36*
X139612822Y-54641313D02*
G01*
X139773241Y-54689976D01*
X139921077Y-54768995D01*
X140050659Y-54875341D01*
X140157004Y-55004922D01*
X140157005Y-55004924D01*
X140236024Y-55152758D01*
X140284687Y-55313177D01*
X140297000Y-55438196D01*
X140297000Y-56321803D01*
X140284687Y-56446822D01*
X140236024Y-56607242D01*
X140165114Y-56739906D01*
X140157004Y-56755078D01*
X140050659Y-56884659D01*
X139921078Y-56991004D01*
X139921076Y-56991005D01*
X139773242Y-57070024D01*
X139612823Y-57118687D01*
X139446000Y-57135117D01*
X139279178Y-57118687D01*
X139118759Y-57070024D01*
X138970925Y-56991005D01*
X138970923Y-56991004D01*
X138841342Y-56884659D01*
X138734997Y-56755078D01*
X138726887Y-56739906D01*
X138655977Y-56607242D01*
X138607314Y-56446823D01*
X138595000Y-56321803D01*
X138595000Y-55438197D01*
X138607313Y-55313178D01*
X138655976Y-55152759D01*
X138734995Y-55004923D01*
X138841341Y-54875341D01*
X138970922Y-54768996D01*
X138986094Y-54760886D01*
X139118758Y-54689976D01*
X139279177Y-54641313D01*
X139446000Y-54624883D01*
X139612822Y-54641313D01*
X139612822Y-54641313D01*
G37*
G36*
X142152822Y-54641313D02*
G01*
X142313241Y-54689976D01*
X142461077Y-54768995D01*
X142590659Y-54875341D01*
X142697004Y-55004922D01*
X142697005Y-55004924D01*
X142776024Y-55152758D01*
X142824687Y-55313177D01*
X142837000Y-55438196D01*
X142837000Y-56321803D01*
X142824687Y-56446822D01*
X142776024Y-56607242D01*
X142705114Y-56739906D01*
X142697004Y-56755078D01*
X142590659Y-56884659D01*
X142461078Y-56991004D01*
X142461076Y-56991005D01*
X142313242Y-57070024D01*
X142152823Y-57118687D01*
X141986000Y-57135117D01*
X141819178Y-57118687D01*
X141658759Y-57070024D01*
X141510925Y-56991005D01*
X141510923Y-56991004D01*
X141381342Y-56884659D01*
X141274997Y-56755078D01*
X141266887Y-56739906D01*
X141195977Y-56607242D01*
X141147314Y-56446823D01*
X141135000Y-56321803D01*
X141135000Y-55438197D01*
X141147313Y-55313178D01*
X141195976Y-55152759D01*
X141274995Y-55004923D01*
X141381341Y-54875341D01*
X141510922Y-54768996D01*
X141526094Y-54760886D01*
X141658758Y-54689976D01*
X141819177Y-54641313D01*
X141986000Y-54624883D01*
X142152822Y-54641313D01*
X142152822Y-54641313D01*
G37*
G36*
X144692822Y-54641313D02*
G01*
X144853241Y-54689976D01*
X145001077Y-54768995D01*
X145130659Y-54875341D01*
X145237004Y-55004922D01*
X145237005Y-55004924D01*
X145316024Y-55152758D01*
X145364687Y-55313177D01*
X145377000Y-55438196D01*
X145377000Y-56321803D01*
X145364687Y-56446822D01*
X145316024Y-56607242D01*
X145245114Y-56739906D01*
X145237004Y-56755078D01*
X145130659Y-56884659D01*
X145001078Y-56991004D01*
X145001076Y-56991005D01*
X144853242Y-57070024D01*
X144692823Y-57118687D01*
X144526000Y-57135117D01*
X144359178Y-57118687D01*
X144198759Y-57070024D01*
X144050925Y-56991005D01*
X144050923Y-56991004D01*
X143921342Y-56884659D01*
X143814997Y-56755078D01*
X143806887Y-56739906D01*
X143735977Y-56607242D01*
X143687314Y-56446823D01*
X143675000Y-56321803D01*
X143675000Y-55438197D01*
X143687313Y-55313178D01*
X143735976Y-55152759D01*
X143814995Y-55004923D01*
X143921341Y-54875341D01*
X144050922Y-54768996D01*
X144066094Y-54760886D01*
X144198758Y-54689976D01*
X144359177Y-54641313D01*
X144526000Y-54624883D01*
X144692822Y-54641313D01*
X144692822Y-54641313D01*
G37*
G36*
X147232822Y-54641313D02*
G01*
X147393241Y-54689976D01*
X147541077Y-54768995D01*
X147670659Y-54875341D01*
X147777004Y-55004922D01*
X147777005Y-55004924D01*
X147856024Y-55152758D01*
X147904687Y-55313177D01*
X147917000Y-55438196D01*
X147917000Y-56321803D01*
X147904687Y-56446822D01*
X147856024Y-56607242D01*
X147785114Y-56739906D01*
X147777004Y-56755078D01*
X147670659Y-56884659D01*
X147541078Y-56991004D01*
X147541076Y-56991005D01*
X147393242Y-57070024D01*
X147232823Y-57118687D01*
X147066000Y-57135117D01*
X146899178Y-57118687D01*
X146738759Y-57070024D01*
X146590925Y-56991005D01*
X146590923Y-56991004D01*
X146461342Y-56884659D01*
X146354997Y-56755078D01*
X146346887Y-56739906D01*
X146275977Y-56607242D01*
X146227314Y-56446823D01*
X146215000Y-56321803D01*
X146215000Y-55438197D01*
X146227313Y-55313178D01*
X146275976Y-55152759D01*
X146354995Y-55004923D01*
X146461341Y-54875341D01*
X146590922Y-54768996D01*
X146606094Y-54760886D01*
X146738758Y-54689976D01*
X146899177Y-54641313D01*
X147066000Y-54624883D01*
X147232822Y-54641313D01*
X147232822Y-54641313D01*
G37*
G36*
X159932822Y-54641313D02*
G01*
X160093241Y-54689976D01*
X160241077Y-54768995D01*
X160370659Y-54875341D01*
X160477004Y-55004922D01*
X160477005Y-55004924D01*
X160556024Y-55152758D01*
X160604687Y-55313177D01*
X160617000Y-55438196D01*
X160617000Y-56321803D01*
X160604687Y-56446822D01*
X160556024Y-56607242D01*
X160485114Y-56739906D01*
X160477004Y-56755078D01*
X160370659Y-56884659D01*
X160241078Y-56991004D01*
X160241076Y-56991005D01*
X160093242Y-57070024D01*
X159932823Y-57118687D01*
X159766000Y-57135117D01*
X159599178Y-57118687D01*
X159438759Y-57070024D01*
X159290925Y-56991005D01*
X159290923Y-56991004D01*
X159161342Y-56884659D01*
X159054997Y-56755078D01*
X159046887Y-56739906D01*
X158975977Y-56607242D01*
X158927314Y-56446823D01*
X158915000Y-56321803D01*
X158915000Y-55438197D01*
X158927313Y-55313178D01*
X158975976Y-55152759D01*
X159054995Y-55004923D01*
X159161341Y-54875341D01*
X159290922Y-54768996D01*
X159306094Y-54760886D01*
X159438758Y-54689976D01*
X159599177Y-54641313D01*
X159766000Y-54624883D01*
X159932822Y-54641313D01*
X159932822Y-54641313D01*
G37*
G36*
X117260822Y-54641313D02*
G01*
X117421241Y-54689976D01*
X117569077Y-54768995D01*
X117698659Y-54875341D01*
X117805004Y-55004922D01*
X117805005Y-55004924D01*
X117884024Y-55152758D01*
X117932687Y-55313177D01*
X117945000Y-55438196D01*
X117945000Y-56321803D01*
X117932687Y-56446822D01*
X117884024Y-56607242D01*
X117813114Y-56739906D01*
X117805004Y-56755078D01*
X117698659Y-56884659D01*
X117569078Y-56991004D01*
X117569076Y-56991005D01*
X117421242Y-57070024D01*
X117260823Y-57118687D01*
X117094000Y-57135117D01*
X116927178Y-57118687D01*
X116766759Y-57070024D01*
X116618925Y-56991005D01*
X116618923Y-56991004D01*
X116489342Y-56884659D01*
X116382997Y-56755078D01*
X116374887Y-56739906D01*
X116303977Y-56607242D01*
X116255314Y-56446823D01*
X116243000Y-56321803D01*
X116243000Y-55438197D01*
X116255313Y-55313178D01*
X116303976Y-55152759D01*
X116382995Y-55004923D01*
X116489341Y-54875341D01*
X116618922Y-54768996D01*
X116634094Y-54760886D01*
X116766758Y-54689976D01*
X116927177Y-54641313D01*
X117094000Y-54624883D01*
X117260822Y-54641313D01*
X117260822Y-54641313D01*
G37*
G36*
X132500822Y-54641313D02*
G01*
X132661241Y-54689976D01*
X132809077Y-54768995D01*
X132938659Y-54875341D01*
X133045004Y-55004922D01*
X133045005Y-55004924D01*
X133124024Y-55152758D01*
X133172687Y-55313177D01*
X133185000Y-55438196D01*
X133185000Y-56321803D01*
X133172687Y-56446822D01*
X133124024Y-56607242D01*
X133053114Y-56739906D01*
X133045004Y-56755078D01*
X132938659Y-56884659D01*
X132809078Y-56991004D01*
X132809076Y-56991005D01*
X132661242Y-57070024D01*
X132500823Y-57118687D01*
X132334000Y-57135117D01*
X132167178Y-57118687D01*
X132006759Y-57070024D01*
X131858925Y-56991005D01*
X131858923Y-56991004D01*
X131729342Y-56884659D01*
X131622997Y-56755078D01*
X131614887Y-56739906D01*
X131543977Y-56607242D01*
X131495314Y-56446823D01*
X131483000Y-56321803D01*
X131483000Y-55438197D01*
X131495313Y-55313178D01*
X131543976Y-55152759D01*
X131622995Y-55004923D01*
X131729341Y-54875341D01*
X131858922Y-54768996D01*
X131874094Y-54760886D01*
X132006758Y-54689976D01*
X132167177Y-54641313D01*
X132334000Y-54624883D01*
X132500822Y-54641313D01*
X132500822Y-54641313D01*
G37*
G36*
X129960822Y-54641313D02*
G01*
X130121241Y-54689976D01*
X130269077Y-54768995D01*
X130398659Y-54875341D01*
X130505004Y-55004922D01*
X130505005Y-55004924D01*
X130584024Y-55152758D01*
X130632687Y-55313177D01*
X130645000Y-55438196D01*
X130645000Y-56321803D01*
X130632687Y-56446822D01*
X130584024Y-56607242D01*
X130513114Y-56739906D01*
X130505004Y-56755078D01*
X130398659Y-56884659D01*
X130269078Y-56991004D01*
X130269076Y-56991005D01*
X130121242Y-57070024D01*
X129960823Y-57118687D01*
X129794000Y-57135117D01*
X129627178Y-57118687D01*
X129466759Y-57070024D01*
X129318925Y-56991005D01*
X129318923Y-56991004D01*
X129189342Y-56884659D01*
X129082997Y-56755078D01*
X129074887Y-56739906D01*
X129003977Y-56607242D01*
X128955314Y-56446823D01*
X128943000Y-56321803D01*
X128943000Y-55438197D01*
X128955313Y-55313178D01*
X129003976Y-55152759D01*
X129082995Y-55004923D01*
X129189341Y-54875341D01*
X129318922Y-54768996D01*
X129334094Y-54760886D01*
X129466758Y-54689976D01*
X129627177Y-54641313D01*
X129794000Y-54624883D01*
X129960822Y-54641313D01*
X129960822Y-54641313D01*
G37*
G36*
X137072822Y-54641313D02*
G01*
X137233241Y-54689976D01*
X137381077Y-54768995D01*
X137510659Y-54875341D01*
X137617004Y-55004922D01*
X137617005Y-55004924D01*
X137696024Y-55152758D01*
X137744687Y-55313177D01*
X137757000Y-55438196D01*
X137757000Y-56321803D01*
X137744687Y-56446822D01*
X137696024Y-56607242D01*
X137625114Y-56739906D01*
X137617004Y-56755078D01*
X137510659Y-56884659D01*
X137381078Y-56991004D01*
X137381076Y-56991005D01*
X137233242Y-57070024D01*
X137072823Y-57118687D01*
X136906000Y-57135117D01*
X136739178Y-57118687D01*
X136578759Y-57070024D01*
X136430925Y-56991005D01*
X136430923Y-56991004D01*
X136301342Y-56884659D01*
X136194997Y-56755078D01*
X136186887Y-56739906D01*
X136115977Y-56607242D01*
X136067314Y-56446823D01*
X136055000Y-56321803D01*
X136055000Y-55438197D01*
X136067313Y-55313178D01*
X136115976Y-55152759D01*
X136194995Y-55004923D01*
X136301341Y-54875341D01*
X136430922Y-54768996D01*
X136446094Y-54760886D01*
X136578758Y-54689976D01*
X136739177Y-54641313D01*
X136906000Y-54624883D01*
X137072822Y-54641313D01*
X137072822Y-54641313D01*
G37*
M02*
